<svg xmlns="http://www.w3.org/2000/svg" width="190" height="35" fill="none"><g fill="#000" clip-path="url(#a)"><path d="M150.385 9.328c4.571 0 8.29 3.719 8.29 8.29 0 4.57-3.719 8.288-8.29 8.288-4.57 0-8.289-3.718-8.289-8.289 0-4.57 3.722-8.29 8.289-8.29Zm0-2.802c-6.125 0-11.091 4.965-11.091 11.091 0 6.126 4.966 11.091 11.091 11.091 6.126 0 11.091-4.965 11.091-11.09 0-6.127-4.962-11.092-11.091-11.092ZM35.271 17.499c0 4.024-1.365 7.737-3.66 10.696a17.539 17.539 0 0 1-7.227 5.502 17.411 17.411 0 0 1-6.617 1.3 17.41 17.41 0 0 1-6.414-1.216.214.214 0 0 1-.116-.288l1.472-3.336.003-.012.006-.012.36-.849a.212.212 0 0 1 .273-.115 12.46 12.46 0 0 0 4.413.807 12.419 12.419 0 0 0 6.158-1.627 12.535 12.535 0 0 0 5.27-5.837 12.386 12.386 0 0 0 1.052-5.013c0-5.324-3.354-9.883-8.064-11.673a.221.221 0 0 1-.122-.115L19.823.443a.216.216 0 0 1 .229-.297c8.58 1.125 15.22 8.479 15.22 17.353Z"/><path d="M19.987 5.218 17.773 0l.329.778 2.416 5.692.29.683h.004l-.825-1.935Zm-8.848 24.241-.017.045.017-.039.021-.047-.02.041Zm20.064 2.178a.215.215 0 0 0-.344-.071 19.281 19.281 0 0 1-4.102 2.923c-.035.02-.074.039-.11.056l.143.324c.036.077.11.128.196.128h5.321a.212.212 0 0 0 .196-.297l-1.3-3.063Z"/><path d="M27.27 22.372a.208.208 0 0 1-.008.187 10.885 10.885 0 0 1-3.799 4.063.214.214 0 0 1-.309-.101l-1.246-2.938-3.209-7.542c-.347-.819-1.51-.819-1.857 0l-3.212 7.542-1.395 3.29-.623 1.476-.454 1.068-.02.048-.018.038-1.53 3.467-.246.558-.594 1.344a.215.215 0 0 1-.196.128H3.237a.212.212 0 0 1-.196-.297l2.146-5.054L7.4 24.43l7.998-18.84a.215.215 0 0 0-.243-.293 12.29 12.29 0 0 0-1.716.498C8.688 7.561 5.293 12.141 5.293 17.5c0 1.752.362 3.416 1.015 4.93a.203.203 0 0 1 0 .166L4.077 27.86a.215.215 0 0 1-.371.042A17.4 17.4 0 0 1 .272 17.5c0-9 6.832-16.438 15.584-17.393.63-.068 1.268-.104 1.914-.104l2.215 5.217.822 1.935 6.464 15.217Zm26.432-10.086c.365-.867 1.715-.864 2.077.003l2.736 6.829.971 2.523 2.639 6.11c.068.16.228.268.403.268h2.24a.441.441 0 0 0 .407-.615L56.56 7.255a.438.438 0 0 0-.407-.267H53.34a.444.444 0 0 0-.407.267l-8.651 20.15a.441.441 0 0 0 .406.614h2.208a.436.436 0 0 0 .407-.273l2.508-6.102 1.003-2.523 2.888-6.835ZM81.81 23.46c-.228.62-1.104.623-1.338.003L74.29 7.122a.219.219 0 0 0-.202-.14h-2.932a.214.214 0 0 0-.199.294l8.147 20.603a.215.215 0 0 0 .199.137h3.463a.212.212 0 0 0 .199-.137l8.108-20.603a.215.215 0 0 0-.199-.294h-2.801c-.09 0-.17.057-.202.14L81.81 23.46Zm18.618-16.261v20.603c0 .119.095.214.214.214h2.644a.213.213 0 0 0 .214-.214V7.199a.213.213 0 0 0-.214-.214h-2.644a.215.215 0 0 0-.214.214Zm26.162 11.48a.212.212 0 0 1 .115-.318c2.864-.864 4.357-3.006 4.357-5.422 0-3.722-3.075-5.95-7.313-5.95h-8.363a.213.213 0 0 0-.214.213v20.603c0 .119.095.214.214.214h2.644a.213.213 0 0 0 .214-.214v-8.601c0-.119.095-.214.214-.214h3.721c.695 0 1.339.36 1.704.947l4.977 7.984a.212.212 0 0 0 .181.1h3.084c.169 0 .27-.186.181-.329l-5.716-9.013Zm-8.343-2.876V9.689c0-.119.095-.214.214-.214h4.804c2.912 0 4.725 1.16 4.725 3.46 0 2.328-1.947 3.56-4.692 3.56h-4.36a.69.69 0 0 1-.691-.692Zm68.911-8.673V23a.402.402 0 0 1-.718.25L173.707 7.041a.145.145 0 0 0-.115-.057h-3.111a.145.145 0 0 0-.145.146v20.74c0 .08.065.145.145.145h2.55c.08 0 .145-.066.145-.146V11.998c0-.404.511-.579.76-.261l12.717 16.225a.147.147 0 0 0 .116.057h3.087c.08 0 .145-.066.145-.146V7.133a.145.145 0 0 0-.145-.145h-2.553a.141.141 0 0 0-.145.143Z"/></g><defs><clipPath id="a"><path fill="#000" d="M0 0h190v35H0z"/></clipPath></defs></svg>