<svg xmlns="http://www.w3.org/2000/svg" width="161" height="32" fill="none"><path fill="#000" fill-rule="evenodd" d="M23.546 15.246a7.368 7.368 0 1 1 0-14.735 7.368 7.368 0 0 1 0 14.735Zm-8.812 0H7.367C3.306 15.246 0 11.942 0 7.88V.512h7.367c4.063 0 7.367 3.306 7.367 7.367v7.367ZM0 31.426v-7.367a7.367 7.367 0 1 1 7.367 7.367H0Zm23.546 0h7.367v-7.367c0-4.064-3.305-7.367-7.367-7.367H16.18v7.367c0 4.063 3.306 7.367 7.367 7.367h-.001Z" clip-rule="evenodd"/><path fill="#000" d="M154.097 10.245h-6.147v21.33h6.147v-21.33Zm3.972 16.908c1.313 0 2.256.943 2.256 2.256 0 1.313-.943 2.256-2.256 2.256-1.313 0-2.256-.943-2.256-2.256 0-1.313.943-2.256 2.256-2.256Zm0 4.032c1.024 0 1.759-.74 1.759-1.776 0-1.035-.735-1.776-1.759-1.776-1.029 0-1.764.74-1.758 1.776-.006 1.036.729 1.776 1.758 1.776Zm.747-1.73a.68.68 0 0 1 .271.486l.081.74h-.659l-.081-.641a.26.26 0 0 0-.272-.238h-.416v.88h-.654v-2.569h1.128c.567 0 .891.353.891.833a.55.55 0 0 1-.289.509Zm-1.076-.81v.596h.434c.208 0 .306-.139.306-.295 0-.162-.098-.3-.306-.3l-.434-.001Zm-18.152-17.729c-1.473-1.559-3.699-2.444-6.18-2.444-3.271 0-6.015 1.136-7.936 3.287-1.871 2.095-2.859 5.026-2.859 8.476 0 3.45.993 6.387 2.872 8.478 1.932 2.15 4.703 3.285 8.013 3.285 2.42 0 4.661-.925 6.092-2.495v2.142h6.024V.183h-6.024v10.733h-.002Zm-5.3 15.762c-1.672 0-3.09-.602-4.096-1.741-1.017-1.151-1.555-2.777-1.555-4.702 0-1.924.538-3.55 1.555-4.701 1.006-1.14 2.424-1.742 4.096-1.742 1.672 0 3.09.602 4.096 1.742 1.017 1.15 1.555 2.777 1.555 4.701 0 1.925-.538 3.551-1.555 4.702-1.006 1.14-2.424 1.741-4.096 1.741ZM120.771.183h-6.025v31.462h6.025V.183Zm-13.849 23.66c-.262.97-.803 1.718-1.606 2.226-.823.521-1.906.785-3.222.785-1.584 0-2.954-.518-3.964-1.497-.93-.9-1.539-2.173-1.773-3.693h16.282l.029-.297c.033-.334.09-1.022.09-1.88 0-2.89-.953-5.567-2.682-7.54-1.994-2.273-4.907-3.475-8.423-3.475s-6.383 1.242-8.402 3.595c-1.799 2.094-2.79 4.963-2.79 8.08 0 3.118 1.098 6.004 3.013 8.158C95.625 30.72 98.606 32 102.092 32c5.664 0 9.883-3.145 10.746-8.011l.07-.388h-5.922l-.066.244.002-.002Zm-8.745-9.539c.86-.748 2.031-1.129 3.478-1.129s2.684.456 3.575 1.316c.774.744 1.262 1.761 1.423 2.95H96.511c.294-1.375.855-2.43 1.666-3.137Zm-15.173 9.539c-.262.97-.803 1.718-1.606 2.226-.823.521-1.906.785-3.222.785-1.584 0-2.954-.518-3.964-1.497-.93-.9-1.539-2.173-1.773-3.693h16.282l.03-.297a19.96 19.96 0 0 0 .089-1.88c0-2.89-.953-5.567-2.682-7.54-1.994-2.273-4.907-3.475-8.423-3.475s-6.382 1.242-8.402 3.595c-1.799 2.094-2.79 4.963-2.79 8.08 0 3.118 1.098 6.004 3.013 8.158C71.707 30.72 74.688 32 78.174 32c5.664 0 9.883-3.145 10.746-8.011l.07-.388h-5.922l-.066.244.002-.002Zm-5.267-10.668c1.447 0 2.684.456 3.575 1.316.772.744 1.262 1.761 1.423 2.95H72.593c.292-1.375.852-2.43 1.665-3.137.86-.748 2.03-1.129 3.477-1.129h.002ZM60.378 14.47c1.657-1.073 3.328-3.162 3.328-6.02 0-2.552-.98-4.672-2.83-6.13C59.116.935 56.65.205 53.745.205H41.498v31.442h12.687c3.282 0 6.048-.86 8-2.484 2.002-1.667 3.06-4.07 3.06-6.948 0-4.722-2.926-6.852-4.869-7.744l.002-.001Zm-12.504-2.217v-6.73h5.387c1.482 0 2.604.298 3.334.884.691.554 1.042 1.39 1.042 2.48s-.347 1.925-1.033 2.483c-.72.585-1.815.882-3.255.882h-5.475v.001ZM59 21.905c0 1.347-.42 2.324-1.284 2.988-.895.688-2.29 1.037-4.147 1.037h-5.695v-8.093h5.695c1.844 0 3.24.36 4.145 1.072.855.671 1.286 1.68 1.286 2.996ZM151.206 0c-1.997 0-3.622 1.69-3.622 3.767v.26c0 2.076 1.625 3.766 3.622 3.766 1.998 0 3.623-1.69 3.623-3.766v-.26c0-2.077-1.625-3.767-3.623-3.767Z"/></svg>