<svg xmlns="http://www.w3.org/2000/svg" width="477" height="229" fill="none"><path fill="#999" fill-opacity=".52" d="m216.066 101.066-87.732-87.732c-7.364-7.364-19.304-7.364-26.668 0l-87.732 87.732c-7.364 7.364-7.364 19.304 0 26.668l87.732 87.732c7.364 7.364 19.304 7.364 26.668 0l87.732-87.732c7.364-7.364 7.364-19.304 0-26.668Z"/><path fill="#000" fill-rule="evenodd" d="M63.42 96.648a8.115 8.115 0 0 1 8.107-7.675h59.691a9.08 9.08 0 0 1 7.565 4.057l9.435 12.778 19.325 1.581.018.002a10.005 10.005 0 0 1 9.114 9.754l.2 10.627v.002c.093 4.536-3.562 8.258-8.097 8.258v-4.728a3.367 3.367 0 0 0 3.37-3.434l-.2-10.627a5.278 5.278 0 0 0-4.801-5.143l-.008-.001-20.377-1.667a2.364 2.364 0 0 1-1.708-.952l-10.112-13.693a1.884 1.884 0 0 1-.079-.113 4.35 4.35 0 0 0-3.645-1.974H71.527a3.387 3.387 0 0 0-3.386 3.202l-.726 13.518v17.52a3.368 3.368 0 0 0 3.371 3.364h1.74v4.728h-1.74c-4.47 0-8.098-3.621-8.098-8.092v-17.584l.003-.126.73-13.582Zm37.004 34.656h39.639v4.728h-39.639v-4.728Z" clip-rule="evenodd"/><path fill="#000" fill-rule="evenodd" d="M73.337 84.743v4.152h52.861v-4.152h-52.86ZM72.81 80a4.216 4.216 0 0 0-4.216 4.216v5.206a4.216 4.216 0 0 0 4.216 4.216h53.915a4.216 4.216 0 0 0 4.216-4.216v-5.206A4.216 4.216 0 0 0 126.725 80H72.81ZM54 104.762a6.587 6.587 0 0 1 6.588-6.587h5.349v4.743h-5.349a1.845 1.845 0 0 0-1.844 1.844v17.959c0 1.019.825 1.845 1.844 1.845h4.817v4.743h-4.817a6.587 6.587 0 0 1-6.587-6.588v-17.959Z" clip-rule="evenodd"/><path fill="#000" fill-rule="evenodd" d="M81.981 109.757V91.336h4.743v18.421h-4.743Zm27.461 0V91.336h4.743v18.421h-4.743Zm-23.795 35.025c6.112 0 11.067-4.955 11.067-11.067 0-6.113-4.955-11.068-11.067-11.068-6.113 0-11.068 4.955-11.068 11.068 0 6.112 4.956 11.067 11.068 11.067Zm0 4.743c8.731 0 15.81-7.079 15.81-15.81 0-8.732-7.078-15.811-15.81-15.811s-15.81 7.079-15.81 15.811c0 8.731 7.078 15.81 15.81 15.81Z" clip-rule="evenodd"/><path fill="#000" fill-rule="evenodd" d="M85.643 131.87a1.845 1.845 0 1 0 0 3.69 1.845 1.845 0 0 0 0-3.69Zm-6.588 1.845a6.587 6.587 0 1 1 13.175-.001 6.587 6.587 0 0 1-13.175.001Zm74.428 11.067c6.112 0 11.067-4.955 11.067-11.067 0-6.113-4.955-11.068-11.067-11.068-6.113 0-11.068 4.955-11.068 11.068 0 6.112 4.955 11.067 11.068 11.067Zm0 4.743c8.731 0 15.81-7.079 15.81-15.81 0-8.732-7.079-15.811-15.81-15.811-8.732 0-15.811 7.079-15.811 15.811 0 8.731 7.079 15.81 15.811 15.81Z" clip-rule="evenodd"/><path fill="#000" fill-rule="evenodd" d="M153.483 131.87a1.845 1.845 0 1 0 0 3.69 1.845 1.845 0 0 0 0-3.69Zm-6.588 1.845a6.587 6.587 0 1 1 13.175-.001 6.587 6.587 0 0 1-13.175.001Zm2.641-23.012H64.34v-4.727h85.196v4.727Z" clip-rule="evenodd"/><path fill="#000" d="M283.599 110.227c-6.633 0-11.901-2.036-15.805-6.108-3.862-4.114-5.794-9.95-5.794-17.505 0-7.473 1.869-13.266 5.605-17.38C271.383 65.078 276.651 63 283.41 63c3.107 0 5.709.189 7.808.567 1.008.168 1.847.671 2.519 1.511.672.84 1.008 1.784 1.008 2.834v.503c0 .882-.378 1.575-1.134 2.078-.714.504-1.49.651-2.33.441-2.057-.546-4.366-.819-6.926-.819-4.156 0-7.431 1.428-9.824 4.282-2.35 2.855-3.526 6.927-3.526 12.216 0 5.248 1.218 9.32 3.652 12.217 2.477 2.854 5.773 4.281 9.887 4.281 2.77 0 5.142-.251 7.115-.755.84-.21 1.616-.063 2.33.441.756.503 1.133 1.196 1.133 2.078v.44c0 1.05-.335 1.994-1.007 2.834-.63.798-1.469 1.28-2.519 1.448-2.393.42-5.058.63-7.997.63Zm33.438-16.372c-6.003 0-9.004 1.847-9.004 5.541 0 1.344.377 2.435 1.133 3.275.798.839 1.805 1.259 3.023 1.259 2.392 0 4.323-.735 5.793-2.204 1.469-1.511 2.204-3.568 2.204-6.17v-1.134c0-.378-.189-.567-.567-.567h-2.582Zm-7.115 16.372c-2.855 0-5.227-.924-7.116-2.771-1.847-1.889-2.771-4.324-2.771-7.304 0-3.652 1.386-6.486 4.156-8.501 2.813-2.015 7.095-3.022 12.846-3.022h2.582c.378 0 .567-.19.567-.567v-.504c0-1.931-.462-3.274-1.386-4.03-.923-.798-2.56-1.196-4.911-1.196-2.435 0-5.416.44-8.942 1.322-.756.21-1.448.084-2.078-.378-.63-.504-.944-1.154-.944-1.952 0-.965.293-1.826.881-2.582.588-.797 1.343-1.28 2.267-1.448 3.19-.714 6.192-1.07 9.005-1.07 5.373 0 9.13.965 11.271 2.896s3.212 5.31 3.212 10.138v16.75c0 .966-.357 1.805-1.071 2.519-.672.713-1.49 1.07-2.456 1.07h-.692c-1.008 0-1.868-.336-2.582-1.007a3.752 3.752 0 0 1-1.134-2.582v-.882c0-.041-.021-.062-.063-.062-.084 0-.125.021-.125.062-2.561 3.401-6.067 5.101-10.516 5.101Zm28.622-.63c-.965 0-1.805-.357-2.519-1.07-.671-.714-1.007-1.553-1.007-2.519V80.442c0-.965.336-1.805 1.007-2.518.714-.714 1.554-1.07 2.519-1.07h.882c.965 0 1.784.335 2.456 1.007.713.671 1.091 1.49 1.133 2.456v.44c0 .042.021.063.063.063.084 0 .126-.02.126-.063 2.477-3.022 5.268-4.533 8.375-4.533 1.889 0 3.4.356 4.534 1.07 1.175.714 2.204 1.973 3.085 3.778 0 .042.042.063.126.063.042 0 .084-.02.126-.063 2.645-3.232 5.625-4.848 8.942-4.848 3.484 0 5.982.944 7.493 2.833 1.553 1.89 2.33 5.143 2.33 9.76v17.191c0 .966-.357 1.805-1.071 2.519-.671.713-1.49 1.07-2.455 1.07h-1.071c-.965 0-1.805-.357-2.519-1.07-.713-.714-1.07-1.553-1.07-2.519V90.077c0-3.065-.294-5.08-.882-6.045-.587-.966-1.721-1.448-3.4-1.448-1.092 0-2.183.503-3.275 1.51-1.091 1.008-1.637 2.016-1.637 3.023v18.891c0 .966-.357 1.805-1.07 2.519-.714.713-1.553 1.07-2.519 1.07h-1.07c-.966 0-1.806-.357-2.519-1.07-.672-.714-1.008-1.553-1.008-2.519V90.077c0-3.023-.315-5.017-.944-5.982-.588-1.008-1.721-1.511-3.401-1.511-1.091 0-2.183.503-3.274 1.51-1.091 1.008-1.637 2.016-1.637 3.023v18.891c0 .966-.357 1.805-1.071 2.519-.713.713-1.553 1.07-2.518 1.07h-1.26Zm54.49-20.654v8.564c0 1.68.713 3.17 2.141 4.471 1.469 1.301 3.169 1.952 5.1 1.952 2.225 0 3.988-.902 5.29-2.708 1.301-1.805 1.952-4.47 1.952-7.997 0-7.136-2.414-10.704-7.242-10.704-1.931 0-3.631.65-5.1 1.951-1.428 1.302-2.141 2.792-2.141 4.471Zm-4.723 34.508c-.965 0-1.805-.357-2.519-1.071-.713-.714-1.07-1.553-1.07-2.519V80.442c0-.965.357-1.805 1.07-2.518.714-.714 1.554-1.07 2.519-1.07h.756c1.007 0 1.868.356 2.581 1.07.714.671 1.092 1.511 1.134 2.518v.441c0 .042.021.063.063.063.042 0 .084-.02.126-.063 1.511-1.679 3.022-2.875 4.534-3.589 1.511-.714 3.274-1.07 5.289-1.07 3.946 0 7.095 1.49 9.445 4.47 2.351 2.939 3.527 7.116 3.527 12.531 0 5.248-1.239 9.404-3.715 12.468-2.435 3.023-5.521 4.534-9.257 4.534-3.652 0-6.822-1.322-9.508-3.967-.042-.042-.084-.063-.126-.063-.042 0-.063.021-.063.063v13.601c0 .966-.357 1.805-1.071 2.519-.671.714-1.49 1.071-2.456 1.071h-1.259Zm46.305-41.371c-2.141 0-3.799.608-4.975 1.826-1.133 1.175-1.847 3.085-2.141 5.73 0 .336.168.504.504.504h12.342c.336 0 .504-.168.504-.504-.168-5.037-2.246-7.556-6.234-7.556Zm1.574 28.147c-5.499 0-9.739-1.427-12.72-4.282-2.938-2.897-4.408-7.136-4.408-12.72 0-5.541 1.323-9.76 3.967-12.657 2.645-2.896 6.465-4.344 11.461-4.344 9.319 0 14.105 5.289 14.357 15.868.042 1.007-.315 1.847-1.071 2.519a3.854 3.854 0 0 1-2.644 1.007h-17.191c-.378 0-.525.189-.441.567.294 2.813 1.218 4.869 2.771 6.171 1.595 1.259 3.904 1.889 6.926 1.889 1.889 0 3.988-.315 6.297-.945.756-.21 1.449-.084 2.078.378.672.462 1.008 1.092 1.008 1.889 0 .966-.294 1.826-.882 2.582-.545.714-1.28 1.154-2.204 1.322a34.749 34.749 0 0 1-7.304.756Zm21.151-.63c-.965 0-1.805-.357-2.519-1.07-.713-.714-1.07-1.553-1.07-2.519V80.443c0-.966.357-1.805 1.07-2.52.714-.713 1.554-1.07 2.519-1.07h1.26c.965 0 1.805.357 2.518 1.07.714.715 1.071 1.554 1.071 2.52v2.644c0 .042.021.063.063.063.084 0 .126-.02.126-.063 1.217-1.679 2.812-3.043 4.785-4.093 1.973-1.091 4.135-1.763 6.486-2.015.882-.084 1.637.21 2.267.882.63.63.945 1.385.945 2.267 0 .881-.315 1.637-.945 2.267-.63.63-1.385.986-2.267 1.07-7.43.588-11.145 4.366-11.145 11.335v11.208c0 .966-.357 1.805-1.071 2.519-.713.713-1.553 1.07-2.519 1.07h-1.574Zm-188.918 56c-.965 0-1.805-.357-2.518-1.07-.714-.714-1.071-1.553-1.071-2.519v-38.789c0-.966.357-1.805 1.071-2.519.713-.713 1.553-1.07 2.518-1.07h1.575c1.091 0 2.099.294 3.022.881.924.588 1.595 1.365 2.015 2.33l11.02 23.803c0 .042.021.063.063.063.042 0 .063-.021.063-.063l11.019-23.803c.42-.965 1.092-1.742 2.015-2.33a5.527 5.527 0 0 1 3.023-.881h1.826c.966 0 1.805.357 2.519 1.07.713.714 1.07 1.553 1.07 2.519v38.789c0 .966-.357 1.805-1.07 2.519-.714.713-1.553 1.07-2.519 1.07h-1.385c-.966 0-1.805-.357-2.519-1.07-.714-.714-1.071-1.553-1.071-2.519v-27.392c0-.042-.021-.063-.063-.063-.042 0-.063.021-.063.063l-7.556 16.184c-.462.965-1.175 1.763-2.141 2.392-.923.588-1.91.882-2.959.882h-.378c-1.05 0-2.057-.294-3.023-.882a5.994 5.994 0 0 1-2.078-2.392l-7.556-16.184c0-.042-.021-.063-.063-.063-.042 0-.063.021-.063.063v27.392c0 .966-.357 1.805-1.07 2.519-.714.713-1.554 1.07-2.519 1.07h-1.134Zm62.081-15.742c-6.003 0-9.004 1.847-9.004 5.541 0 1.344.377 2.435 1.133 3.275.798.839 1.805 1.259 3.023 1.259 2.392 0 4.323-.735 5.793-2.204 1.469-1.511 2.204-3.568 2.204-6.171v-1.133c0-.378-.189-.567-.567-.567h-2.582Zm-7.115 16.372c-2.855 0-5.227-.924-7.116-2.771-1.847-1.889-2.77-4.324-2.77-7.304 0-3.652 1.385-6.486 4.155-8.501 2.813-2.015 7.095-3.022 12.846-3.022h2.582c.378 0 .567-.189.567-.567v-.504c0-1.931-.462-3.274-1.386-4.03-.923-.798-2.56-1.196-4.911-1.196-2.435 0-5.416.44-8.942 1.322-.756.21-1.448.084-2.078-.378-.63-.504-.944-1.154-.944-1.952 0-.965.293-1.826.881-2.582.588-.797 1.344-1.28 2.267-1.448 3.191-.714 6.192-1.07 9.005-1.07 5.373 0 9.13.965 11.271 2.896s3.212 5.311 3.212 10.138v16.75c0 .966-.357 1.805-1.071 2.519-.672.713-1.49 1.07-2.456 1.07h-.692c-1.008 0-1.868-.336-2.582-1.007a3.752 3.752 0 0 1-1.134-2.582v-.882c0-.041-.021-.062-.062-.062-.084 0-.126.021-.126.062-2.561 3.401-6.066 5.101-10.516 5.101Zm24.638-26.006c-.84 0-1.553-.294-2.141-.882-.588-.63-.882-1.364-.882-2.204 0-.839.294-1.553.882-2.141a2.913 2.913 0 0 1 2.141-.881h3.022c.378 0 .567-.189.567-.567v-7.808c0-.966.336-1.805 1.008-2.519.713-.714 1.553-1.071 2.518-1.071h1.26c.965 0 1.805.357 2.519 1.071.713.714 1.07 1.553 1.07 2.519v7.808c0 .378.189.567.567.567h7.178c.84 0 1.554.293 2.141.881.63.588.945 1.302.945 2.141 0 .84-.315 1.574-.945 2.204a2.912 2.912 0 0 1-2.141.882h-7.178c-.378 0-.567.168-.567.503v12.72c0 2.729.294 4.492.882 5.29.587.797 1.805 1.196 3.652 1.196 1.007 0 1.763-.042 2.267-.126.839-.084 1.574.105 2.204.567.629.462.944 1.091.944 1.889 0 .923-.315 1.763-.944 2.519-.588.713-1.323 1.112-2.204 1.196-1.847.168-3.233.252-4.156.252-4.072 0-6.927-.861-8.564-2.582-1.637-1.763-2.456-4.89-2.456-9.382v-13.539c0-.335-.189-.503-.567-.503h-3.022Zm42.358-2.141c-2.141 0-3.8.608-4.975 1.826-1.133 1.175-1.847 3.085-2.141 5.73 0 .336.168.504.504.504h12.342c.336 0 .504-.168.504-.504-.168-5.038-2.246-7.556-6.234-7.556Zm1.574 28.147c-5.499 0-9.739-1.427-12.72-4.282-2.939-2.896-4.408-7.136-4.408-12.72 0-5.541 1.323-9.76 3.967-12.657 2.645-2.896 6.465-4.344 11.461-4.344 9.319 0 14.105 5.289 14.357 15.868.042 1.007-.315 1.847-1.071 2.519a3.857 3.857 0 0 1-2.644 1.007H383.71c-.378 0-.525.189-.441.567.294 2.812 1.218 4.869 2.771 6.171 1.595 1.259 3.904 1.889 6.926 1.889 1.889 0 3.988-.315 6.297-.945.756-.21 1.449-.084 2.078.378.672.462 1.008 1.092 1.008 1.889 0 .966-.294 1.826-.882 2.582-.545.714-1.28 1.154-2.204 1.322a34.749 34.749 0 0 1-7.304.756Z"/></svg>