<svg xmlns="http://www.w3.org/2000/svg" width="121" height="26" fill="none"><path fill="#000" d="M31.08 5.284a5.14 5.14 0 0 1 5.35-5.28 4.56 4.56 0 0 1 4.08 2.28l-1.51.8a3 3 0 0 0-2.57-1.48c-2.02 0-3.52 1.53-3.52 3.69 0 2.13 1.5 3.69 3.52 3.69 1.09 0 2.08-.64 2.57-1.49l1.53.77a4.65 4.65 0 0 1-4.1 2.31 5.15 5.15 0 0 1-5.35-5.29ZM41.61.174h1.6v10.21h-1.6V.174Zm6.21 3.95c-1.36 0-2 1.06-2.06 1.95h4.16c-.05-.88-.65-1.95-2.1-1.95Zm-3.74 2.56a3.74 3.74 0 0 1 3.75-3.87c2.22 0 3.63 1.68 3.63 4.01v.4h-5.69c.12 1.1.95 2.04 2.34 2.04.73 0 1.58-.29 2.11-.83l.73 1.06a4.4 4.4 0 0 1-3 1.09 3.731 3.731 0 0 1-3.87-3.9Zm13.86 1.47v-2.93a2.4 2.4 0 0 0-1.9-1c-1.28 0-2.1 1.03-2.1 2.45 0 1.44.81 2.47 2.1 2.47a2.4 2.4 0 0 0 1.9-.99Zm0 2.23v-1.01a2.97 2.97 0 0 1-2.37 1.2c-1.88 0-3.28-1.44-3.28-3.89 0-2.39 1.38-3.87 3.28-3.87.93 0 1.77.41 2.37 1.21v-1.03h1.61v7.39h-1.61Zm2.92 0v-7.39h1.61v1.07a3.21 3.21 0 0 1 2.4-1.25v1.59a2.24 2.24 0 0 0-.49-.05c-.69 0-1.59.46-1.91 1v5.04h-1.61v-.01Zm7.15-5.1a5.141 5.141 0 0 1 5.35-5.28 4.6 4.6 0 0 1 4.09 2.28l-1.51.8a3 3 0 0 0-2.57-1.48c-2.02 0-3.52 1.53-3.52 3.69 0 2.13 1.5 3.69 3.52 3.69 1.09 0 2.08-.64 2.57-1.49l1.53.77a4.65 4.65 0 0 1-4.1 2.31 5.16 5.16 0 0 1-5.36-5.29Zm15.38 5.1v-4.65c0-1.16-.58-1.5-1.48-1.5-.83 0-1.53.49-1.9.98v5.17H78.4V.174h1.61v3.81a3.5 3.5 0 0 1 2.6-1.18c1.59 0 2.38.83 2.38 2.34v5.24h-1.6Zm8.27-2.23v-2.93a2.4 2.4 0 0 0-1.9-1c-1.28 0-2.1 1.03-2.1 2.45 0 1.44.81 2.47 2.1 2.47a2.4 2.4 0 0 0 1.9-.99Zm0 2.23v-1.01a2.97 2.97 0 0 1-2.37 1.2c-1.88 0-3.27-1.44-3.27-3.89 0-2.39 1.38-3.87 3.27-3.87.93 0 1.77.41 2.37 1.21v-1.03h1.61v7.39h-1.61Zm7.85 0v-4.62c0-1.17-.6-1.53-1.5-1.53-.81 0-1.51.49-1.9.98v5.17H94.5v-7.39h1.61v1a3.53 3.53 0 0 1 2.62-1.18c1.59 0 2.39.86 2.39 2.37v5.21h-1.61v-.01Zm7.92 0v-4.62c0-1.17-.6-1.53-1.5-1.53-.81 0-1.51.49-1.9.98v5.17h-1.61v-7.39h1.61v1a3.518 3.518 0 0 1 2.61-1.18c1.59 0 2.39.86 2.39 2.37v5.21h-1.6v-.01Zm6.29-6.26c-1.36 0-2 1.06-2.06 1.95h4.16c-.05-.88-.65-1.95-2.1-1.95Zm-3.73 2.56a3.747 3.747 0 0 1 3.75-3.87c2.22 0 3.63 1.68 3.63 4.01v.4h-5.69c.12 1.1.95 2.04 2.34 2.04.73 0 1.58-.29 2.11-.83l.73 1.06a4.4 4.4 0 0 1-3 1.09 3.719 3.719 0 0 1-3.87-3.9Zm8.43-6.51h1.6v10.21h-1.6V.174Zm-78.33 19.7c0-2.59-1.59-4.49-4.05-4.49s-4.04 1.9-4.04 4.49c0 2.57 1.58 4.49 4.04 4.49s4.05-1.92 4.05-4.49Zm-9.01 0c0-2.99 1.96-5.29 4.96-5.29 2.99 0 4.96 2.3 4.96 5.29s-1.98 5.29-4.96 5.29c-3 0-4.96-2.3-4.96-5.29Zm16.45 5.1v-1.09a3.74 3.74 0 0 1-2.67 1.27c-1.5 0-2.33-.71-2.33-2.38v-5.21h.8v5.03c0 1.44.72 1.84 1.79 1.84.95 0 1.91-.57 2.41-1.23v-5.64h.8v7.4h-.8v.01Zm2.89-1.42v-5.27h-1.23v-.71h1.23v-2.02h.81v2.02h1.5v.71h-1.5v5.15c0 .6.25 1.01.77 1.01.35 0 .66-.17.83-.35l.31.61c-.29.28-.64.46-1.26.46-.99 0-1.46-.6-1.46-1.61Zm8.69-.43v-3.66a2.95 2.95 0 0 0-2.44-1.35c-1.64 0-2.59 1.38-2.59 3.17s.95 3.16 2.59 3.16a3 3 0 0 0 2.44-1.32Zm0 1.85v-1.18a3.14 3.14 0 0 1-2.57 1.36c-1.96 0-3.29-1.5-3.29-3.88 0-2.35 1.33-3.89 3.29-3.89 1.06 0 1.99.54 2.57 1.38v-4.02h.81v10.22h-.81v.01Zm8.43-3.71c0-1.64-.96-3.16-2.71-3.16-1.71 0-2.69 1.52-2.69 3.16 0 1.65.98 3.17 2.69 3.17 1.74.01 2.71-1.51 2.71-3.17Zm-6.26 0c0-2.16 1.38-3.88 3.54-3.88 2.19 0 3.57 1.72 3.57 3.88s-1.38 3.89-3.57 3.89c-2.16.01-3.54-1.72-3.54-3.89Zm14.34 0c0-1.64-.96-3.16-2.71-3.16-1.71 0-2.7 1.52-2.7 3.16 0 1.65.98 3.17 2.7 3.17 1.75.01 2.71-1.51 2.71-3.17Zm-6.25 0c0-2.16 1.38-3.88 3.54-3.88 2.19 0 3.57 1.72 3.57 3.88s-1.38 3.89-3.57 3.89c-2.16.01-3.54-1.72-3.54-3.89Zm8.47 3.71v-7.4h.8v1.27c.63-.83 1.47-1.43 2.5-1.43v.87c-.14-.03-.25-.03-.4-.03-.75 0-1.76.68-2.1 1.32v5.4h-.8Zm-52.39-9.33v6.96a3 3 0 0 1-3 3H3a3 3 0 0 1-3-3v-3.78c1.71 3.09 5.77 4.06 7.98 4.06 3.88-.01 9.11-1 17.47-7.24ZM22.21.154c-3.69 0-8.83 2.5-10.81 3.54-14.03 7.36-6.95 24.24 14.05 7.68v-8.21a3.048 3.048 0 0 0-3.24-3.01Zm-9.8 0h.01H3a3 3 0 0 0-3 3v8.01C2.87 2.934 12.41.154 12.41.154Z"/></svg>