<svg xmlns="http://www.w3.org/2000/svg" width="657" height="209" fill="none"><g clip-path="url(#a)"><path fill="#000" fill-rule="evenodd" d="M179.546 132.385h-29.823c-2.116 16.897-6.099 32.635-12.022 44.792-22.083 9.623-44.867 8.52-47.409 9.055h-.005c-2.536-.535-25.332.568-47.415-9.061C24.568 139.592 24.8 67.767 41.37 33.156c23.796-11.439 48.918-10.308 48.918-10.308h.005s25.122-1.13 48.912 10.308c5.47 11.412 9.155 26.88 10.989 43.826h29.237c-6.823-22.94-24.331-36.188-40.226-43.826l-.105-.22C122.359-1.708 90.287.373 90.287.373S58.22-1.707 41.48 32.936l-.11.22C19.943 43.46-.405 63.965-.35 104.684c.06 42.799 21.293 62.93 43.221 72.487l.199.408c16.282 32.961 47.216 31.388 47.216 31.388s30.939 1.573 47.221-31.388l.193-.402c16.525-7.202 34.868-20.401 41.845-44.792ZM288.248 24.013h-26.105V208.37h26.105V24.013Zm214.99 4.74c-15.232 4.696-27.79 16.737-29.249 36.089l-12.381 117.66c-4.481 1.556-9.663 2.5-15.668 2.577-5.415-.011-10.188-.734-14.398-1.976L406.365 3.153h-26.669l21.138 141.83s3.365 30.058 30.708 38.12l1.276 9.1s1.448 16.229 13.122 16.163c13.679.325 14.646-16.163 14.646-16.163l1.022-9.701c25.939-9.017 28.028-38.611 28.028-38.611l13.602-115.138c9.702-2.991 20.492-3.002 30.193-.039l13.608 115.177s2.089 29.594 28.028 38.611l1.022 9.701s.967 16.488 14.641 16.163c11.68.066 13.127-16.163 13.127-16.163l1.271-9.1c27.348-8.062 30.713-38.12 30.713-38.12l21.138-141.83h-26.674l-25.177 179.95c-4.205 1.242-8.978 1.965-14.398 1.976-6-.077-11.188-1.021-15.663-2.577l-12.381-117.66c-1.459-19.43-14.017-31.46-29.255-36.128l-1.696-14.336S530.846.582 518.337.35C505.89.56 504.94 14.378 504.94 14.378l-1.702 14.375Zm-241.095-4.74a20.837 20.837 0 0 0-6.116-14.75 20.887 20.887 0 0 0-14.762-6.11h-51.149v20.86h72.027Zm26.105 0a20.858 20.858 0 0 1 6.111-14.75 20.9 20.9 0 0 1 14.768-6.11h51.149v20.86h-72.028Z" clip-rule="evenodd"/></g><defs><clipPath id="a"><path fill="#000" d="M0 0h657v209H0z"/></clipPath></defs></svg>