<svg xmlns="http://www.w3.org/2000/svg" width="85" height="16" fill="none"><g fill="#000" clip-path="url(#a)"><path d="M23.264 16c-1.092 0-2.101-.198-3.029-.593a7.49 7.49 0 0 1-2.434-1.658 7.775 7.775 0 0 1-1.637-2.496c-.382-.955-.573-1.998-.573-3.13s.184-2.176.552-3.13a7.385 7.385 0 0 1 1.596-2.497A7.228 7.228 0 0 1 20.174.86c.928-.395 1.937-.593 3.028-.593s2.067.184 2.926.552c.873.369 1.61.86 2.21 1.474.6.6 1.03 1.261 1.289 1.984L27.15 5.463a3.993 3.993 0 0 0-1.453-1.923c-.682-.491-1.514-.737-2.496-.737-.955 0-1.8.225-2.537.675a4.672 4.672 0 0 0-1.698 1.862c-.396.791-.594 1.719-.594 2.783 0 1.064.205 1.998.614 2.803a4.768 4.768 0 0 0 1.74 1.862c.736.45 1.582.675 2.537.675.777 0 1.493-.15 2.148-.45a4.012 4.012 0 0 0 1.575-1.31c.396-.573.594-1.248.594-2.025v-.062h-4.379V7.263h7.161v1.535c0 1.173-.198 2.21-.593 3.11a6.557 6.557 0 0 1-1.616 2.271 7.028 7.028 0 0 1-2.272 1.37 7.747 7.747 0 0 1-2.619.451Zm14.519 0c-1.092 0-2.087-.252-2.988-.757a5.833 5.833 0 0 1-2.127-2.066c-.519-.873-.778-1.87-.778-2.988 0-1.118.26-2.114.778-2.987a5.832 5.832 0 0 1 2.127-2.066c.887-.505 1.883-.757 2.988-.757 1.09 0 2.08.252 2.966.757a5.673 5.673 0 0 1 2.108 2.066c.532.86.798 1.855.798 2.987 0 1.119-.266 2.114-.798 2.988a5.833 5.833 0 0 1-2.128 2.066c-.887.505-1.869.757-2.946.757Zm0-2.455c.6 0 1.125-.143 1.575-.43a2.943 2.943 0 0 0 1.085-1.187 3.684 3.684 0 0 0 .409-1.739c0-.654-.137-1.227-.41-1.718-.259-.505-.62-.9-1.084-1.187-.45-.3-.975-.45-1.575-.45-.614 0-1.153.15-1.617.45a3.092 3.092 0 0 0-1.104 1.187c-.26.49-.39 1.064-.39 1.718 0 .641.13 1.221.39 1.74.272.504.64.9 1.104 1.186.464.287 1.003.43 1.617.43Zm12.201 2.21L44.664.51h3.029l3.889 11.762L55.447.511h3.028l-5.299 15.244h-3.192Zm9.97 0V4.623h2.68v11.13h-2.68Zm0-12.38V.512h2.68v2.865h-2.68ZM69.344 16c-1.187 0-2.223-.28-3.11-.839a4.375 4.375 0 0 1-1.8-2.312l2.005-.962c.286.628.682 1.119 1.186 1.474a2.977 2.977 0 0 0 1.72.532c.49 0 .879-.11 1.165-.328a1.03 1.03 0 0 0 .43-.86.765.765 0 0 0-.184-.531 1.185 1.185 0 0 0-.47-.368 2.951 2.951 0 0 0-.635-.266l-1.821-.512c-.941-.273-1.657-.689-2.148-1.248-.478-.56-.716-1.22-.716-1.985 0-.682.17-1.275.511-1.78a3.52 3.52 0 0 1 1.453-1.207c.627-.286 1.343-.43 2.148-.43 1.05 0 1.978.253 2.783.758a4.152 4.152 0 0 1 1.718 2.127l-2.046.962a2.466 2.466 0 0 0-.961-1.207 2.67 2.67 0 0 0-1.514-.45c-.45 0-.805.102-1.064.307a.97.97 0 0 0-.39.798.88.88 0 0 0 .165.532c.109.15.259.272.45.368.204.095.436.184.695.266l1.78.532c.914.273 1.617.682 2.108 1.227.505.546.757 1.214.757 2.006 0 .668-.177 1.261-.532 1.78-.355.504-.846.9-1.473 1.186-.628.287-1.364.43-2.21.43Zm9.651 0c-.778 0-1.453-.13-2.026-.389-.573-.259-1.016-.627-1.33-1.105-.314-.49-.47-1.057-.47-1.698 0-.614.136-1.16.409-1.637.272-.49.695-.9 1.268-1.227.573-.328 1.296-.56 2.169-.696l3.315-.54v2.048l-2.803.477c-.532.095-.928.266-1.187.511-.26.246-.389.566-.389.962 0 .382.143.689.43.92.3.219.668.328 1.105.328.559 0 1.05-.116 1.473-.348.436-.245.77-.58 1.002-1.002a2.72 2.72 0 0 0 .369-1.392V8.348c0-.478-.191-.873-.573-1.187-.369-.327-.86-.49-1.473-.49a2.62 2.62 0 0 0-1.535.47c-.436.3-.757.702-.962 1.207l-2.189-1.064a3.828 3.828 0 0 1 1.023-1.514A5.231 5.231 0 0 1 78.3 4.747a5.787 5.787 0 0 1 2.087-.368c.914 0 1.719.17 2.414.511.696.327 1.235.791 1.617 1.391.395.587.593 1.276.593 2.067v7.406h-2.537v-1.167a4.14 4.14 0 0 1-.45.43c-.396.315-.846.56-1.35.738a5.417 5.417 0 0 1-1.678.245ZM6.771 0H1.025C.23 0-.261.865.146 1.547L3.66 7.436c.195.326.193.733-.005 1.057L.172 14.198a1.023 1.023 0 0 0 .874 1.556h5.732c.335 0 .649-.164.84-.439l4.707-6.772c.242-.348.244-.808.006-1.159L7.617.448A1.023 1.023 0 0 0 6.771 0Z"/></g><defs><clipPath id="a"><path fill="#000" d="M0 0h85v16H0z"/></clipPath></defs></svg>