<svg xmlns="http://www.w3.org/2000/svg" width="415" height="64" fill="none"><mask id="a" width="64" height="64" x="0" y="0" maskUnits="userSpaceOnUse" style="mask-type:luminance"><path fill="#000" d="M0 0h64v64H0V0Z"/></mask><g mask="url(#a)"><path fill="#666" d="M44 0H20C8.954 0 0 8.954 0 20v24c0 11.046 8.954 20 20 20h24c11.046 0 20-8.954 20-20V20C64 8.954 55.046 0 44 0Z"/><path fill="#666" fill-rule="evenodd" d="M31.96 43.254c-.388.007-3.572.084-5.993.785-2.582.748-4.514.661-5.516.7-1.003.04-5.554-.118-8.524-2.122-2.97-2.004-5.102-5.904-5.002-10.116.1-4.21 2.616-8.316 9.29-11.03C21.09 19.489 26.739 18.83 32 18.83c5.26 0 10.91.658 15.783 2.64 6.674 2.714 9.191 6.82 9.291 11.03.1 4.212-2.031 8.112-5.002 10.116-2.97 2.004-7.521 2.163-8.524 2.123-1.003-.04-2.933.047-5.516-.701-2.583-.747-6.032-.785-6.032-.785h-.04Z" clip-rule="evenodd"/><path fill="#000" d="M20.439 30.32c2.313-.09 4.253.676 5.857 2.258 1.144 1.129 1.265 2.576.36 3.602-.916 1.039-2.33 1.072-3.603.085-1.957-1.517-3.234-1.523-5.252-.028-1.401 1.04-2.891 1.008-3.716-.176-.92-1.32-.613-2.53.544-3.578 1.665-1.507 3.612-2.246 5.81-2.163Zm23.199 0c2.313-.09 4.254.676 5.857 2.258 1.144 1.129 1.266 2.576.36 3.602-.915 1.039-2.33 1.072-3.602.085-1.958-1.517-3.235-1.523-5.252-.028-1.402 1.04-2.892 1.008-3.716-.176-.92-1.32-.614-2.53.544-3.578 1.664-1.507 3.611-2.246 5.81-2.163Z"/></g><path fill="#000" d="M117.32 50h-7.056l-8.288-14.28H94.36V50h-6.44V10.8h15.68c3.509 0 6.477 1.232 8.904 3.696 2.464 2.39 3.696 5.357 3.696 8.904 0 2.501-.728 4.797-2.184 6.888a12.221 12.221 0 0 1-5.6 4.48L117.32 50ZM103.6 16.848h-9.24v13.104h9.24c1.717 0 3.173-.635 4.368-1.904 1.195-1.27 1.792-2.819 1.792-4.648 0-1.83-.597-3.379-1.792-4.648-1.195-1.27-2.651-1.904-4.368-1.904Zm43.843 21.728h-22.288c.448 2.09 1.456 3.715 3.024 4.872 1.606 1.157 3.584 1.736 5.936 1.736 3.174 0 5.582-1.157 7.224-3.472l4.984 2.912c-2.725 4.07-6.813 6.104-12.264 6.104-4.517 0-8.194-1.381-11.032-4.144-2.8-2.8-4.2-6.328-4.2-10.584 0-4.144 1.382-7.635 4.144-10.472 2.726-2.837 6.272-4.256 10.64-4.256 4.07 0 7.43 1.437 10.08 4.312 2.651 2.875 3.976 6.365 3.976 10.472 0 .747-.074 1.587-.224 2.52Zm-22.344-4.928h16.464c-.41-2.203-1.344-3.901-2.8-5.096-1.418-1.195-3.154-1.792-5.208-1.792-2.24 0-4.106.616-5.6 1.848-1.493 1.232-2.445 2.912-2.856 5.04Zm37.996 9.632L170.879 22h6.608l-10.92 28h-7l-10.92-28h6.608l7.84 21.28Zm23.934-26.6c-.747.747-1.643 1.12-2.688 1.12-1.045 0-1.96-.373-2.744-1.12-.747-.784-1.12-1.699-1.12-2.744 0-1.045.373-1.941 1.12-2.688.747-.784 1.661-1.176 2.744-1.176 1.083 0 1.997.392 2.744 1.176.747.747 1.12 1.643 1.12 2.688 0 1.045-.392 1.96-1.176 2.744Zm.336 33.32h-6.048V22h6.048v28Zm12.29-20.272c0 .859.448 1.568 1.344 2.128.896.523 2.203 1.027 3.92 1.512a33.04 33.04 0 0 1 3.416.952c.971.336 1.998.84 3.08 1.512a6.289 6.289 0 0 1 2.464 2.576c.598 1.045.878 2.277.84 3.696 0 2.688-1.045 4.797-3.136 6.328-2.09 1.53-4.685 2.296-7.784 2.296-2.762 0-5.133-.579-7.112-1.736-1.978-1.157-3.416-2.763-4.312-4.816l5.208-3.024c.934 2.688 3.006 4.032 6.216 4.032 3.174 0 4.76-1.045 4.76-3.136 0-1.53-1.773-2.725-5.32-3.584-1.344-.336-2.482-.672-3.416-1.008-.896-.336-1.904-.821-3.024-1.456-1.082-.635-1.922-1.475-2.52-2.52-.56-1.045-.821-2.259-.784-3.64 0-2.576.971-4.648 2.912-6.216 1.979-1.568 4.424-2.352 7.336-2.352 2.315 0 4.368.523 6.16 1.568 1.83 1.008 3.23 2.427 4.2 4.256l-5.096 2.856c-.933-2.128-2.688-3.192-5.264-3.192-1.194 0-2.184.261-2.968.784-.746.523-1.12 1.25-1.12 2.184ZM225.42 16.68c-.747.747-1.643 1.12-2.688 1.12-1.046 0-1.96-.373-2.744-1.12-.747-.784-1.12-1.699-1.12-2.744 0-1.045.373-1.941 1.12-2.688.746-.784 1.661-1.176 2.744-1.176 1.082 0 1.997.392 2.744 1.176.746.747 1.12 1.643 1.12 2.688 0 1.045-.392 1.96-1.176 2.744Zm.336 33.32h-6.048V22h6.048v28Zm30.71-3.528c-2.837 2.837-6.328 4.256-10.472 4.256-4.144 0-7.635-1.419-10.472-4.256-2.875-2.875-4.312-6.365-4.312-10.472 0-4.107 1.437-7.597 4.312-10.472 2.837-2.837 6.328-4.256 10.472-4.256 4.144 0 7.635 1.419 10.472 4.256 2.875 2.875 4.312 6.365 4.312 10.472 0 4.107-1.437 7.597-4.312 10.472ZM237.258 36c0 2.539.84 4.648 2.52 6.328 1.68 1.68 3.752 2.52 6.216 2.52 2.464 0 4.536-.84 6.216-2.52 1.68-1.68 2.52-3.79 2.52-6.328 0-2.539-.84-4.648-2.52-6.328-1.68-1.68-3.752-2.52-6.216-2.52-2.464 0-4.536.84-6.216 2.52-1.68 1.68-2.52 3.79-2.52 6.328Zm43.717-14.728c3.248 0 5.842 1.045 7.784 3.136 1.978 2.053 2.968 4.853 2.968 8.4V50h-6.048V33.424c0-2.09-.56-3.696-1.68-4.816-1.12-1.12-2.651-1.68-4.592-1.68-2.203 0-3.939.69-5.208 2.072-1.27 1.344-1.904 3.341-1.904 5.992V50h-6.048V22h6.048v3.584c1.866-2.875 4.76-4.312 8.68-4.312ZM298.631 10.8h15.4c5.376 0 9.837 1.885 13.384 5.656 3.584 3.77 5.376 8.419 5.376 13.944 0 5.488-1.792 10.136-5.376 13.944-3.547 3.77-8.008 5.656-13.384 5.656h-15.4V10.8Zm6.44 33.04h8.96c3.696 0 6.701-1.27 9.016-3.808 2.352-2.539 3.528-5.75 3.528-9.632 0-3.883-1.176-7.093-3.528-9.632-2.315-2.539-5.32-3.808-9.016-3.808h-8.96v26.88Zm56.887 2.632c-2.837 2.837-6.328 4.256-10.472 4.256-4.144 0-7.634-1.419-10.472-4.256-2.874-2.875-4.312-6.365-4.312-10.472 0-4.107 1.438-7.597 4.312-10.472 2.838-2.837 6.328-4.256 10.472-4.256 4.144 0 7.635 1.419 10.472 4.256 2.875 2.875 4.312 6.365 4.312 10.472 0 4.107-1.437 7.597-4.312 10.472ZM342.75 36c0 2.539.84 4.648 2.52 6.328 1.68 1.68 3.752 2.52 6.216 2.52 2.464 0 4.536-.84 6.216-2.52 1.68-1.68 2.52-3.79 2.52-6.328 0-2.539-.84-4.648-2.52-6.328-1.68-1.68-3.752-2.52-6.216-2.52-2.464 0-4.536.84-6.216 2.52-1.68 1.68-2.52 3.79-2.52 6.328Zm34.89-19.32c-.747.747-1.643 1.12-2.688 1.12-1.045 0-1.96-.373-2.744-1.12-.747-.784-1.12-1.699-1.12-2.744 0-1.045.373-1.941 1.12-2.688.784-.784 1.699-1.176 2.744-1.176 1.045 0 1.941.392 2.688 1.176.784.747 1.176 1.643 1.176 2.688 0 1.045-.392 1.96-1.176 2.744Zm-5.712 34.44V22h6.048v29.12c0 7.765-3.827 11.368-11.48 10.808v-5.824c1.867.187 3.229-.112 4.088-.896.896-.784 1.344-2.147 1.344-4.088Zm36.788-4.648c-2.837 2.837-6.328 4.256-10.472 4.256-4.144 0-7.635-1.419-10.472-4.256-2.875-2.875-4.312-6.365-4.312-10.472 0-4.107 1.437-7.597 4.312-10.472 2.837-2.837 6.328-4.256 10.472-4.256 4.144 0 7.635 1.419 10.472 4.256 2.875 2.875 4.312 6.365 4.312 10.472 0 4.107-1.437 7.597-4.312 10.472ZM389.508 36c0 2.539.84 4.648 2.52 6.328 1.68 1.68 3.752 2.52 6.216 2.52 2.464 0 4.536-.84 6.216-2.52 1.68-1.68 2.52-3.79 2.52-6.328 0-2.539-.84-4.648-2.52-6.328-1.68-1.68-3.752-2.52-6.216-2.52-2.464 0-4.536.84-6.216 2.52-1.68 1.68-2.52 3.79-2.52 6.328Z"/></svg>