<svg xmlns="http://www.w3.org/2000/svg" width="163" height="32" fill="none"><path fill="#000" d="M12.848 9.856c-.6-.47-1.285-.896-2.013-1.152-.814-.341-1.627-.597-2.484-.853-.556-.171-1.07-.299-1.499-.47a5.964 5.964 0 0 1-1.199-.512c-.3-.128-.557-.384-.77-.64-.172-.256-.3-.554-.258-.853 0-.427.086-.81.3-1.067.171-.256.428-.469.728-.597s.6-.256.942-.299c.343-.042.686-.085 1.028-.085.386 0 .728.043 1.114.17.342.129.685.257.985.427.342.171.6.384.9.598.256.213.513.384.684.554l.643.512.47-.512 1.286-1.365v-.043l.47-.512-.47-.426A10.376 10.376 0 0 0 10.964.768C9.979.256 8.865 0 7.709 0 6.68 0 5.739.128 4.882.384a6.572 6.572 0 0 0-2.184 1.11 4.882 4.882 0 0 0-1.456 1.663 4.742 4.742 0 0 0-.514 2.134c0 1.45.557 2.645 1.627 3.541 1.071.896 2.656 1.664 4.754 2.261.343.086.728.171 1.157.299a4.75 4.75 0 0 1 1.156.512c.343.17.642.427.9.725.256.299.385.64.385 1.024 0 .342-.086.64-.214.939-.172.299-.386.597-.643.81-.257.214-.6.427-1.028.555a4.84 4.84 0 0 1-1.37.214c-.471 0-.942-.043-1.37-.214a5.961 5.961 0 0 1-1.2-.512 6.271 6.271 0 0 1-1.028-.725c-.3-.256-.6-.512-.856-.768-.043-.043-.086-.043-.086-.085l-.428-.384-.385.426-1.67 1.622v.042L0 15.957l.471.47.086.085c.9.939 1.97 1.75 3.169 2.304a9.23 9.23 0 0 0 3.854.853c.943 0 1.842-.128 2.698-.426.814-.256 1.628-.64 2.313-1.195.643-.512 1.2-1.11 1.585-1.877.385-.768.6-1.579.6-2.432 0-.896-.172-1.664-.515-2.304-.385-.598-.856-1.152-1.413-1.579Zm30.45 1.365h7.71V7.723h-7.71v-3.84h9.85V.34H39.53v19.03h13.962v-3.499H43.298v-4.65Zm67.324-2.005c.514-.427.857-.939 1.114-1.536.257-.64.385-1.323.343-2.005 0-.768-.129-1.451-.386-2.091a5.55 5.55 0 0 0-1.071-1.664 4.961 4.961 0 0 0-1.67-1.11c-.642-.298-1.37-.426-2.056-.426h-8.822v19.03h9.679c.728 0 1.413-.171 2.056-.47a5.2 5.2 0 0 0 1.67-1.195A5.776 5.776 0 0 0 112.592 16c.3-.683.429-1.365.429-2.09a5.91 5.91 0 0 0-.643-2.689 4.953 4.953 0 0 0-1.756-2.005Zm-8.779-5.76h4.068c.729 0 1.328.213 1.799.64.471.427.685.981.685 1.664 0 .725-.214 1.28-.685 1.707-.428.426-1.028.64-1.799.64h-4.025V3.456h-.043Zm7.152 11.179a1.937 1.937 0 0 1-.471.81 2.09 2.09 0 0 1-.771.598c-.3.128-.642.213-1.071.213H101.8v-5.205h4.84c.342 0 .642.085.942.213.3.128.556.341.813.555.215.256.429.554.557.853.129.341.214.683.214 1.067 0 .298-.043.597-.171.896Zm53.148-8.491c-1.07-2.261-2.955-4.096-5.267-5.035a9.292 9.292 0 0 0-3.555-.725h-6.681v19.03h6.767a10.534 10.534 0 0 0 3.769-.854 11.199 11.199 0 0 0 3.04-2.048c.857-.853 1.542-1.877 2.056-2.987A9.456 9.456 0 0 0 163 9.9c0-1.323-.3-2.603-.857-3.755Zm-3.426 6.101a5.824 5.824 0 0 1-1.285 1.92 6.022 6.022 0 0 1-1.97 1.28c-.77.342-1.584.47-2.484.47h-2.569V3.84h2.569c.9 0 1.714.17 2.484.47a6.024 6.024 0 0 1 1.97 1.28 5.825 5.825 0 0 1 1.285 1.92c.343.725.471 1.535.471 2.346 0 .853-.171 1.621-.471 2.39ZM140.13 14.38l-1.242-2.432c.985-.555 1.799-1.323 2.356-2.262a5.46 5.46 0 0 0 .899-3.029c0-.81-.171-1.579-.471-2.347a7.485 7.485 0 0 0-1.242-2.005 6.23 6.23 0 0 0-1.927-1.408c-.771-.341-1.585-.555-2.441-.512h-8.694v19.03h3.769V12.8h3.897l.599 1.195 2.656 5.376h4.325l-2.484-4.992Zm-8.951-4.95V3.67h4.026c.428 0 .857.086 1.242.214.386.128.685.341.985.597.3.256.514.555.643.896.171.341.214.725.214 1.152 0 .853-.3 1.536-.9 2.048-.599.555-1.327.81-2.227.81h-3.983v.043ZM121.286.341h-3.811v19.03h3.811V.34Zm-27.88 0H78.845v3.456h5.182v15.616h3.897V3.797h5.482V.341ZM70.793 13.27 61.8.384h-3.811v19.03H61.8V6.698l8.993 12.714h3.812V.341h-3.812V13.27Zm-42.442 2.774A6.13 6.13 0 0 1 22.184 9.9c0-5.291 6.21-8.107 10.236-4.651l2.013-3.03C32.72.854 30.579.129 28.352.129c-5.397 0-9.808 4.352-9.808 9.77 0 5.377 4.411 9.771 9.808 9.771a9.71 9.71 0 0 0 6.21-2.218l-2.056-3.03a6.182 6.182 0 0 1-4.154 1.622Zm-.385 15.828h1.114v-3.157l2.484 3.157h.985v-5.077h-1.114v3.157l-2.484-3.157h-.985v5.077Zm15.46 0h3.855v-1.024h-2.784v-1.11h2.099v-.98h-2.099v-.982h2.699v-1.024h-3.812v5.12h.043Zm15.547 0h1.07l1.029-3.285h.042l1.028 3.285h1.07l1.671-5.077H63.77l-1.071 3.413h-.043l-1.07-3.413h-1.028l-1.071 3.413h-.043l-1.07-3.413H57.26l1.713 5.077Zm28.137 0h1.114v-1.835l1.927-3.285h-1.285l-1.199 2.176h-.043l-1.199-2.176H85.14l1.927 3.285v1.835h.043Zm13.705-2.517c0-.896.728-1.622 1.627-1.622.9 0 1.628.726 1.628 1.622 0 .896-.728 1.621-1.628 1.621a1.624 1.624 0 0 1-1.627-1.621Zm-1.114 0c0 1.45 1.2 2.645 2.784 2.645 1.585 0 2.784-1.195 2.784-2.645 0-1.451-1.199-2.646-2.784-2.646-1.584 0-2.784 1.195-2.784 2.646Zm16.104 2.517h1.07v-1.664h1.028l.899 1.664h1.2l-1.071-1.877c.171-.086.3-.171.428-.299.214-.213.428-.597.428-1.195 0-1.024-.685-1.706-1.798-1.706h-2.27v5.077h.086Zm1.07-2.688v-1.365h1.114c.428 0 .685.298.685.682 0 .384-.3.683-.685.683h-1.114Zm13.619 2.688h1.071v-1.493l.642-.683 1.499 2.176h1.285l-2.056-2.987 1.885-2.09h-1.328l-1.97 2.176v-2.176h-1.071v5.077h.043Z"/></svg>