<svg width="800" height="163" viewBox="0 0 800 163" fill="none" xmlns="http://www.w3.org/2000/svg">
<g id="audit-log">
<g id="Group 6">
<g id="insert">
<rect x="157.5" y="20" width="100" height="123" rx="10" fill="#16181F"/>
<rect x="156.5" y="19" width="102" height="125" rx="11" stroke="#919CF9" stroke-opacity="0.3" stroke-width="2"/>
<path id="Vector" d="M186.5 36.2308C186.5 38.5672 182.694 40.4615 178 40.4615C173.306 40.4615 169.5 38.5672 169.5 36.2308M186.5 36.2308C186.5 33.8944 182.694 32 178 32C173.306 32 169.5 33.8944 169.5 36.2308M186.5 36.2308V47.7692C186.5 50.1056 182.694 52 178 52C173.306 52 169.5 50.1056 169.5 47.7692V36.2308M186.5 36.2308V40.0769M169.5 36.2308V40.0769M186.5 40.0769V43.9231C186.5 46.2595 182.694 48.1538 178 48.1538C173.306 48.1538 169.5 46.2595 169.5 43.9231V40.0769M186.5 40.0769C186.5 42.4133 182.694 44.3077 178 44.3077C173.306 44.3077 169.5 42.4133 169.5 40.0769" stroke="#919CF9" stroke-linecap="round" stroke-linejoin="round"/>
<g id="Code snippet">
<text fill="#FF79C6" xml:space="preserve" style="white-space: pre" font-family="DM Mono" font-size="15" letter-spacing="0em"><tspan x="169.5" y="124.615">DELETE</tspan></text>
<text fill="#50FA7B" xml:space="preserve" style="white-space: pre" font-family="DM Mono" font-size="15" letter-spacing="0em"><tspan x="169.5" y="78.615">INSERT&#10;</tspan></text>
<text fill="#919CF9" xml:space="preserve" style="white-space: pre" font-family="DM Mono" font-size="15" letter-spacing="0em"><tspan x="169.5" y="101.615">UPDATE&#10;</tspan></text>
</g>
</g>
<g id="wal">
<rect x="252.5" y="113" width="62" height="25" rx="10" transform="rotate(-90 252.5 113)" fill="#919CF9" fill-opacity="0.7"/>
<text id="W A L" fill="white" xml:space="preserve" style="white-space: pre" font-family="DM Mono" font-size="10" font-weight="500" letter-spacing="0em"><tspan x="262.002" y="75.41">W&#10;</tspan><tspan x="262.002" y="85.41">A&#10;</tspan><tspan x="262.002" y="95.41">L</tspan></text>
</g>
</g>
<path id="Arrow 9" d="M344.207 82.2071C344.598 81.8166 344.598 81.1834 344.207 80.7929L337.843 74.4289C337.453 74.0384 336.819 74.0384 336.429 74.4289C336.038 74.8195 336.038 75.4526 336.429 75.8431L342.086 81.5L336.429 87.1569C336.038 87.5474 336.038 88.1805 336.429 88.5711C336.819 88.9616 337.453 88.9616 337.843 88.5711L344.207 82.2071ZM287.5 82.5H343.5V80.5H287.5V82.5Z" fill="black" class="dark:fill-white"/>
<path id="Sequin" d="M371.731 84.2588C371.731 73.7176 358.397 77.4235 358.397 71.9882C358.397 69.7647 360.043 68.5294 362.513 68.5294C365.064 68.5294 366.71 69.9294 366.71 72.3588H371.607C371.607 67.3765 367.821 64 362.513 64C357.286 64 353.541 67.2118 353.541 71.9882C353.541 82.2823 366.793 77.8765 366.793 84.2588C366.793 86.6058 365.229 87.8823 362.677 87.8823C360.043 87.8823 358.397 86.4823 358.397 84.0529H353.5C353.5 89.0352 357.327 92.4117 362.677 92.4117C367.945 92.4117 371.731 89.1176 371.731 84.2588ZM394.871 81.7058C394.871 75.4471 390.426 71 384.171 71C377.916 71 373.471 75.4471 373.471 81.7058C373.471 88.0059 377.916 92.4117 384.171 92.4117C388.78 92.4117 392.813 90.1058 393.965 86.1941H388.698C387.669 87.7176 386.023 88.2117 384.171 88.2117C381.125 88.2117 378.986 86.4411 378.327 83.5176H394.706C394.788 82.9411 394.871 82.3235 394.871 81.7058ZM384.171 75.2C387.01 75.2 389.109 76.8059 389.809 79.4823H378.451C379.191 76.8059 381.29 75.2 384.171 75.2ZM407.119 71C400.863 71 396.419 75.4059 396.419 81.7058C396.419 87.9647 400.863 92.4117 407.119 92.4117C409.464 92.4117 411.481 91.6294 413.045 90.2706V99H417.818V71.4118H413.045V73.1412C411.481 71.7412 409.464 71 407.119 71ZM407.119 75.3647C410.699 75.3647 413.045 77.8765 413.045 81.7058C413.045 85.5353 410.699 88.047 407.119 88.047C403.497 88.047 401.11 85.5353 401.11 81.7058C401.11 77.8765 403.497 75.3647 407.119 75.3647ZM420.422 83.7647C420.422 88.8294 423.838 92.4117 428.694 92.4117C430.711 92.4117 432.439 91.6705 433.715 90.3941V92H438.406V71.4118H433.715V83.7647C433.715 86.3176 431.986 88.047 429.435 88.047C426.883 88.047 425.155 86.3176 425.155 83.7647V71.4118H420.422V83.7647ZM441.08 68.9412H445.854V64.4118H441.08V68.9412ZM441.08 92H445.854V71.4118H441.08V92ZM448.475 92H453.249V79.647C453.249 77.0941 454.895 75.3647 457.529 75.3647C460.039 75.3647 461.767 77.0941 461.767 79.647V92H466.5V79.647C466.5 74.5823 463.084 71 458.228 71C456.253 71 454.524 71.7 453.249 72.9765V71.4118H448.475V92Z" fill="black" class="dark:fill-white"/>
<path id="Arrow 10" d="M533.207 82.2071C533.598 81.8166 533.598 81.1834 533.207 80.7929L526.843 74.4289C526.453 74.0384 525.819 74.0384 525.429 74.4289C525.038 74.8195 525.038 75.4526 525.429 75.8431L531.086 81.5L525.429 87.1569C525.038 87.5474 525.038 88.1805 525.429 88.5711C525.819 88.9616 526.453 88.9616 526.843 88.5711L533.207 82.2071ZM476.5 82.5H532.5V80.5H476.5V82.5Z" fill="black" class="dark:fill-white"/>
<g id="Group 7">
<g id="insert_2">
<rect x="542.5" y="20" width="100" height="123" rx="10" fill="#16181F"/>
<rect x="541.5" y="19" width="102" height="125" rx="11" stroke="#919CF9" stroke-opacity="0.3" stroke-width="2"/>
<path id="Vector_2" d="M554.5 44.25H571M554.5 48.75H567.5M554.5 53.25H571M554.5 57.75H571" stroke="#F1FA8C" stroke-width="1.5" stroke-linecap="round" stroke-linejoin="round"/>
<g id="Code snippet_2">
<text fill="#FF79C6" xml:space="preserve" style="white-space: pre" font-family="DM Mono" font-size="15" letter-spacing="0em"><tspan x="554.5" y="84.365">Insert&#10;</tspan></text>
<text fill="#FF79C6" xml:space="preserve" style="white-space: pre" font-family="DM Mono" font-size="10" letter-spacing="0em"><tspan x="554.5" y="99.365">into </tspan></text>
<text fill="#F8F8F2" xml:space="preserve" style="white-space: pre" font-family="DM Mono" font-size="10" letter-spacing="0em"><tspan x="554.5" y="114.365">user_log</tspan></text>
</g>
</g>
</g>
</g>
<style>
@media (prefers-color-scheme: dark) {
  .dark\:fill-white {
    fill: white;
  }
}
</style>
</svg>
