<svg fill="none" height="200" viewBox="0 0 800 200" width="800"
  xmlns="http://www.w3.org/2000/svg">
  <rect fill="#16181f" height="100" rx="10" width="100" x="134" y="20"/>
  <rect height="102" rx="11" stroke="#919cf9" stroke-opacity=".3" stroke-width="2" width="102" x="133" y="19"/>
  <path d="m163 41.2308c0 2.3364-3.806 4.2307-8.5 4.2307s-8.5-1.8943-8.5-4.2307m17 0c0-2.3364-3.806-4.2308-8.5-4.2308s-8.5 1.8944-8.5 4.2308m17 0v11.5384c0 2.3364-3.806 4.2308-8.5 4.2308s-8.5-1.8944-8.5-4.2308v-11.5384m17 0v3.8461m-17-3.8461v3.8461m17 0v3.8462c0 2.3364-3.806 4.2307-8.5 4.2307s-8.5-1.8943-8.5-4.2307v-3.8462m17 0c0 2.3364-3.806 4.2308-8.5 4.2308s-8.5-1.8944-8.5-4.2308" stroke="#919cf9" stroke-linecap="round" stroke-linejoin="round"/>
  <g font-family="'Courier New', Courier, monospace" letter-spacing="0em">
    <text fill="#ff79c6" font-size="15" xml:space="preserve">
      <tspan x="146" y="83.615">INSERT </tspan>
    </text>
    <text fill="#f8f8f2" font-size="10" xml:space="preserve">
      <tspan x="169.984" y="98.615"> orders</tspan>
    </text>
    <text fill="#ff79c6" font-size="10">
      <tspan x="146" y="98.615">INTO</tspan>
    </text>
  </g>
  <rect fill="#16181f" height="100" rx="10" width="125" x="271" y="80"/>
  <rect height="102" rx="11" stroke="#919cf9" stroke-opacity=".3" stroke-width="2" width="127" x="270" y="79"/>
  <path d="m294.25 110.75v2.25m-7.5-6.75h.008v.008h-.008zm0 2.25h.008v.008h-.008zm0 2.25h.008v.008h-.008zm0 2.25h.008v.008h-.008zm2.498-6.75h.007v.008h-.007zm0 2.25h.007v.008h-.007zm0 2.25h.007v.008h-.007zm0 2.25h.007v.008h-.007zm2.504-6.75h.008v.008h-.008zm0 2.25h.008v.008h-.008zm0 2.25h.008v.008h-.008zm0 2.25h.008v.008h-.008zm2.498-6.75h.008v.008h-.008zm0 2.25h.008v.008h-.008zm-7.5-7.5h7.5v2.25h-7.5zm3.75-3.75c-1.892 0-3.758.11-5.593.322-1.1.128-1.907 1.078-1.907 2.185v14.743c0 .597.237 1.169.659 1.591s.994.659 1.591.659h10.5c.597 0 1.169-.237 1.591-.659s.659-.994.659-1.591v-14.743c0-1.108-.806-2.057-1.907-2.185-1.857-.215-3.724-.3225-5.593-.322z" stroke="#f1fa8c" stroke-linecap="round" stroke-linejoin="round" stroke-width="1.5"/>
  <text fill="#f1fa8c" font-family="'Courier New', Courier, monospace" font-size="10" letter-spacing="0em">
    <tspan x="283" y="158.365">inventory</tspan>
  </text>
  <text fill="#f1fa8c" font-family="'Courier New', Courier, monospace" font-size="15" letter-spacing="0em" xml:space="preserve">
    <tspan x="283" y="143.365">Update </tspan>
  </text>
  <rect fill="#16181f" height="100" rx="10" width="125" x="406" y="80"/>
  <rect height="102" rx="11" stroke="#919cf9" stroke-opacity=".3" stroke-width="2" width="127" x="405" y="79"/>
  <path d="m424 113c0 .398-.158.78-.439 1.061-.282.281-.663.439-1.061.439s-.779-.158-1.061-.439c-.281-.281-.439-.663-.439-1.061m3 0c0-.398-.158-.779-.439-1.06-.282-.282-.663-.44-1.061-.44s-.779.158-1.061.44c-.281.281-.439.662-.439 1.06m3 0h6m-9 0h-1.875c-.298 0-.584-.118-.795-.329s-.33-.497-.33-.796v-3.375m12 4.5h2.25m-2.25 0v-4.5m-12 0v-7.635c-.002-.274.098-.538.281-.743.182-.2039.434-.3333.706-.3628 3.333-.3459 6.693-.3459 10.026 0 .565.058.987.5378.987 1.1058v.958m-12 6.677h12m5.25 4.5c0 .398-.158.78-.439 1.061-.282.281-.663.439-1.061.439s-.779-.158-1.061-.439c-.281-.281-.439-.663-.439-1.061m3 0c0-.398-.158-.779-.439-1.06-.282-.282-.663-.44-1.061-.44s-.779.158-1.061.44c-.281.281-.439.662-.439 1.06m3 0h1.125c.621 0 1.129-.504 1.09-1.124-.201-3.302-1.313-6.484-3.213-9.193-.181-.253-.417-.463-.691-.612s-.578-.234-.889-.248h-2.672m0 0v6.677" stroke="#ff79c6" stroke-linecap="round" stroke-linejoin="round" stroke-width="1.5"/>
  <text fill="#ff79c6" font-family="'Courier New', Courier, monospace" font-size="10" letter-spacing="0em">
    <tspan x="418" y="156.115">shipment</tspan>
  </text>
  <text fill="#ff79c6" font-family="'Courier New', Courier, monospace" font-size="15" letter-spacing="0em" xml:space="preserve">
    <tspan x="418" y="141.115">Schedule </tspan>
  </text>
  <rect fill="#16181f" height="100" rx="10" width="125" x="541" y="80"/>
  <rect height="102" rx="11" stroke="#919cf9" stroke-opacity=".3" stroke-width="2" width="127" x="540" y="79"/>
  <path d="m568 109.25v-2.625c0-.895-.356-1.754-.989-2.386-.632-.633-1.491-.989-2.386-.989h-1.5c-.298 0-.585-.119-.795-.33-.211-.21-.33-.497-.33-.795v-1.5c0-.8951-.356-1.7536-.989-2.3865-.632-.6329-1.491-.9885-2.386-.9885h-1.875m3.75 9v7.5m2.25-6.466c-1.13-.291-2.305-.36-3.461-.203-.536.072-.974.478-1.021 1.017-.012.134-.018.268-.018.402 0 .464.336.844.775.994l2.95 1.012c.44.15.775.53.775.994 0 .136-.006.27-.018.402-.047.539-.485.945-1.021 1.017-1.156.155-2.331.086-3.461-.203m.75-15.466h-4.875c-.621 0-1.125.504-1.125 1.125v17.25c0 .621.504 1.125 1.125 1.125h12.75c.621 0 1.125-.504 1.125-1.125v-9.375c0-2.387-.948-4.676-2.636-6.364-1.688-1.6878-3.977-2.636-6.364-2.636z" stroke="#50fa7b" stroke-linecap="round" stroke-linejoin="round" stroke-width="1.5"/>
  <text fill="#50fa7b" font-family="'Courier New', Courier, monospace" font-size="10" letter-spacing="0em">
    <tspan x="553" y="158.365">invoice</tspan>
  </text>
  <text fill="#50fa7b" font-family="'Courier New', Courier, monospace" font-size="15" letter-spacing="0em" xml:space="preserve">
    <tspan x="553" y="143.365">Create </tspan>
  </text>

  <g id="arrows">
    <path d="m311 60.0001v1zm10 9.9999h1zm-.707 5.7072c.39.3905 1.024.3905 1.414 0l6.364-6.364c.391-.3905.391-1.0237 0-1.4142s-1.024-.3905-1.414 0l-5.657 5.6568-5.657-5.6568c-.39-.3905-1.024-.3905-1.414 0-.391.3905-.391 1.0237 0 1.4142zm-80.293-14.7071h71v-2h-71zm80 8.9999v5.0001h2v-5.0001zm-9-8.9999c4.971 0 9 4.0294 9 8.9999h2c0-6.0751-4.925-10.9999-11-10.9999z" class="arrow-path"/>
    <path d="m454.343 50.2569-.001 1zm9.99 9.9909-1 .0009zm-.693 15.6801c.391.3902 1.024.3896 1.415-.0013l6.358-6.3697c.39-.3909.389-1.0241-.001-1.4142-.391-.3902-1.025-.3896-1.415.0012l-5.651 5.662-5.662-5.6517c-.391-.3902-1.024-.3896-1.415.0013-.39.3909-.389 1.024.002 1.4142zm-223.641-24.8816 214.343.2106.002-2-214.343-.2106zm223.334 9.2024.014 14.9724 2-.0019-.014-14.9723zm-8.991-8.9918c4.964.0049 8.987 4.0279 8.991 8.9918l2-.0018c-.005-6.067-4.922-10.984-10.989-10.99z" class="arrow-path"/>
    <path d="m592.778 38.2688-.004-1zm10.039 9.9999h-1zm-.707 27.4384c.39.3905 1.023.3905 1.414 0l6.364-6.364c.39-.3905.39-1.0236 0-1.4142-.391-.3905-1.024-.3905-1.414 0l-5.657 5.6569-5.657-5.6569c-.391-.3905-1.024-.3905-1.414 0-.391.3906-.391 1.0237 0 1.4142zm-362.106-35.0684 352.778-1.3699-.008-2-352.778 1.3699zm361.813 7.63v26.7313h2v-26.7313zm-9.035-8.9999c4.984-.0194 9.035 4.0157 9.035 8.9999h2c0-6.0918-4.951-11.0236-11.043-10.9999z" class="arrow-path"/>
  </g>

  <style>
    .arrow-path { fill: black; }
    @media (prefers-color-scheme: dark) {
      .arrow-path { fill: white; }
    }
  </style>
</svg>