<svg width="800" height="140" viewBox="0 0 800 140" fill="none" xmlns="http://www.w3.org/2000/svg">
<rect width="800" height="140" fill="white"/>
<rect x="249.5" y="20" width="100" height="100" rx="10" fill="#16181F"/>
<rect x="248.5" y="19" width="102" height="102" rx="11" stroke="#919CF9" stroke-opacity="0.3" stroke-width="2"/>
<path d="M278.5 41.2308C278.5 43.5672 274.694 45.4615 270 45.4615C265.306 45.4615 261.5 43.5672 261.5 41.2308M278.5 41.2308C278.5 38.8944 274.694 37 270 37C265.306 37 261.5 38.8944 261.5 41.2308M278.5 41.2308V52.7692C278.5 55.1056 274.694 57 270 57C265.306 57 261.5 55.1056 261.5 52.7692V41.2308M278.5 41.2308V45.0769M261.5 41.2308V45.0769M278.5 45.0769V48.9231C278.5 51.2595 274.694 53.1538 270 53.1538C265.306 53.1538 261.5 51.2595 261.5 48.9231V45.0769M278.5 45.0769C278.5 47.4133 274.694 49.3077 270 49.3077C265.306 49.3077 261.5 47.4133 261.5 45.0769" stroke="#919CF9" stroke-linecap="round" stroke-linejoin="round"/>
<path d="M262.985 84V82.905H265.37V74.595H262.985V73.5H269.015V74.595H266.63V82.905H269.015V84H262.985ZM271.349 84V73.5H272.639L277.409 81.795V73.5H278.654V84H277.349L272.579 75.705V84H271.349ZM284.093 84.18C283.353 84.18 282.708 84.04 282.158 83.76C281.618 83.48 281.198 83.09 280.898 82.59C280.608 82.09 280.458 81.505 280.448 80.835H281.768C281.778 81.435 281.978 81.955 282.368 82.395C282.768 82.825 283.343 83.04 284.093 83.04C284.783 83.04 285.313 82.875 285.683 82.545C286.063 82.205 286.253 81.8 286.253 81.33C286.253 80.94 286.163 80.615 285.983 80.355C285.803 80.085 285.508 79.85 285.098 79.65C284.698 79.44 284.158 79.225 283.478 79.005C282.518 78.715 281.818 78.32 281.378 77.82C280.938 77.32 280.718 76.7 280.718 75.96C280.718 75.46 280.848 75.01 281.108 74.61C281.368 74.21 281.743 73.895 282.233 73.665C282.723 73.435 283.318 73.32 284.018 73.32C284.678 73.32 285.253 73.445 285.743 73.695C286.243 73.935 286.628 74.275 286.898 74.715C287.178 75.155 287.318 75.66 287.318 76.23H285.998C285.998 75.95 285.923 75.675 285.773 75.405C285.623 75.135 285.398 74.91 285.098 74.73C284.798 74.55 284.418 74.46 283.958 74.46C283.408 74.46 282.948 74.595 282.578 74.865C282.208 75.125 282.023 75.485 282.023 75.945C282.023 76.295 282.103 76.59 282.263 76.83C282.433 77.07 282.708 77.29 283.088 77.49C283.468 77.68 283.983 77.885 284.633 78.105C285.243 78.305 285.763 78.54 286.193 78.81C286.633 79.07 286.968 79.395 287.198 79.785C287.438 80.175 287.558 80.66 287.558 81.24C287.558 81.81 287.413 82.315 287.123 82.755C286.833 83.195 286.428 83.545 285.908 83.805C285.388 84.055 284.783 84.18 284.093 84.18ZM289.772 84V73.5H296.327V74.64H291.032V78.135H295.877V79.275H291.032V82.86H296.327V84H289.772ZM298.707 84V73.5H301.932C302.742 73.5 303.407 73.635 303.927 73.905C304.457 74.175 304.852 74.545 305.112 75.015C305.372 75.475 305.502 76 305.502 76.59C305.502 77.28 305.322 77.89 304.962 78.42C304.612 78.94 304.072 79.305 303.342 79.515L305.622 84H304.122L302.007 79.695H301.932H299.967V84H298.707ZM299.967 78.54H301.887C302.687 78.54 303.272 78.36 303.642 78C304.022 77.63 304.212 77.16 304.212 76.59C304.212 75.99 304.027 75.515 303.657 75.165C303.297 74.815 302.702 74.64 301.872 74.64H299.967V78.54ZM310.341 84V74.64H307.521V73.5H314.421V74.64H311.601V84H310.341ZM262.49 99V98.27H264.08V92.73H262.49V92H266.51V92.73H264.92V98.27H266.51V99H262.49ZM268.066 99V92H268.926L272.106 97.53V92H272.936V99H272.066L268.886 93.47V99H268.066ZM276.072 99V92.76H274.192V92H278.792V92.76H276.912V99H276.072ZM282.488 99.12C281.922 99.12 281.435 98.97 281.028 98.67C280.622 98.37 280.308 97.95 280.088 97.41C279.875 96.8633 279.768 96.2267 279.768 95.5C279.768 94.7733 279.875 94.14 280.088 93.6C280.308 93.0533 280.622 92.63 281.028 92.33C281.435 92.03 281.922 91.88 282.488 91.88C283.055 91.88 283.542 92.03 283.948 92.33C284.355 92.63 284.665 93.0533 284.878 93.6C285.098 94.14 285.208 94.7733 285.208 95.5C285.208 96.2267 285.098 96.8633 284.878 97.41C284.665 97.95 284.355 98.37 283.948 98.67C283.542 98.97 283.055 99.12 282.488 99.12ZM282.488 98.33C283.042 98.33 283.488 98.0833 283.828 97.59C284.175 97.0967 284.348 96.4 284.348 95.5C284.348 94.6 284.175 93.9033 283.828 93.41C283.488 92.9167 283.042 92.67 282.488 92.67C281.928 92.67 281.478 92.9167 281.138 93.41C280.798 93.9033 280.628 94.6 280.628 95.5C280.628 96.4 280.798 97.0967 281.138 97.59C281.478 98.0833 281.928 98.33 282.488 98.33Z" fill="#FF79C6"/>
<path d="M294.13 99.12C293.53 99.12 293.077 98.94 292.77 98.58C292.464 98.22 292.31 97.7 292.31 97.02V94.04H293.15V96.92C293.15 97.36 293.247 97.7067 293.44 97.96C293.64 98.2067 293.94 98.33 294.34 98.33C294.74 98.33 295.077 98.1967 295.35 97.93C295.624 97.6567 295.76 97.2667 295.76 96.76V94.04H296.6V99H295.9L295.81 98.25H295.76C295.627 98.49 295.417 98.6967 295.13 98.87C294.844 99.0367 294.51 99.12 294.13 99.12ZM300.527 99.12C299.893 99.12 299.38 98.9733 298.987 98.68C298.6 98.38 298.383 97.97 298.337 97.45H299.207C299.247 97.7233 299.38 97.9467 299.607 98.12C299.84 98.2933 300.153 98.38 300.547 98.38C300.92 98.38 301.197 98.3 301.377 98.14C301.563 97.98 301.657 97.7967 301.657 97.59C301.657 97.31 301.547 97.12 301.327 97.02C301.107 96.9133 300.777 96.8333 300.337 96.78C299.81 96.72 299.373 96.5767 299.027 96.35C298.68 96.1233 298.507 95.7833 298.507 95.33C298.507 94.9233 298.677 94.5867 299.017 94.32C299.357 94.0533 299.82 93.92 300.407 93.92C300.987 93.92 301.443 94.0533 301.777 94.32C302.11 94.58 302.3 94.9533 302.347 95.44H301.517C301.497 95.2 301.38 95.01 301.167 94.87C300.96 94.7233 300.7 94.65 300.387 94.65C300.06 94.65 299.807 94.7133 299.627 94.84C299.447 94.96 299.357 95.12 299.357 95.32C299.357 95.52 299.457 95.6867 299.657 95.82C299.863 95.9467 300.187 96.03 300.627 96.07C300.973 96.11 301.29 96.1767 301.577 96.27C301.863 96.3633 302.09 96.51 302.257 96.71C302.43 96.91 302.517 97.19 302.517 97.55C302.523 97.85 302.44 98.12 302.267 98.36C302.1 98.5933 301.867 98.78 301.567 98.92C301.267 99.0533 300.92 99.12 300.527 99.12ZM306.523 99.12C306.056 99.12 305.643 99.0133 305.283 98.8C304.929 98.58 304.649 98.2767 304.443 97.89C304.236 97.4967 304.133 97.04 304.133 96.52C304.133 96 304.233 95.5467 304.433 95.16C304.639 94.7667 304.923 94.4633 305.283 94.25C305.643 94.03 306.063 93.92 306.543 93.92C307.023 93.92 307.433 94.03 307.773 94.25C308.113 94.4633 308.373 94.7467 308.553 95.1C308.733 95.4533 308.823 95.8333 308.823 96.24C308.823 96.3133 308.819 96.3867 308.813 96.46C308.813 96.5333 308.813 96.6167 308.813 96.71H304.963C304.983 97.0767 305.066 97.3833 305.213 97.63C305.366 97.87 305.556 98.05 305.783 98.17C306.016 98.29 306.263 98.35 306.523 98.35C306.889 98.35 307.176 98.2733 307.383 98.12C307.589 97.9667 307.746 97.7533 307.853 97.48H308.683C308.569 97.94 308.333 98.33 307.973 98.65C307.613 98.9633 307.129 99.12 306.523 99.12ZM306.523 94.67C306.136 94.67 305.796 94.7867 305.503 95.02C305.216 95.2533 305.039 95.58 304.973 96H307.993C307.966 95.5867 307.816 95.2633 307.543 95.03C307.276 94.79 306.936 94.67 306.523 94.67ZM310.309 99V98.28H311.579V95.01C311.579 94.8433 311.499 94.76 311.339 94.76H310.439V94.04H311.649C311.869 94.04 312.045 94.1 312.179 94.22C312.312 94.34 312.379 94.5167 312.379 94.75V94.96H312.419C312.499 94.6267 312.649 94.37 312.869 94.19C313.095 94.01 313.409 93.92 313.809 93.92H314.719V94.81H313.689C313.282 94.81 312.969 94.9467 312.749 95.22C312.529 95.4867 312.419 95.83 312.419 96.25V98.28H313.979V99H310.309ZM318.515 99.12C317.882 99.12 317.368 98.9733 316.975 98.68C316.588 98.38 316.372 97.97 316.325 97.45H317.195C317.235 97.7233 317.368 97.9467 317.595 98.12C317.828 98.2933 318.142 98.38 318.535 98.38C318.908 98.38 319.185 98.3 319.365 98.14C319.552 97.98 319.645 97.7967 319.645 97.59C319.645 97.31 319.535 97.12 319.315 97.02C319.095 96.9133 318.765 96.8333 318.325 96.78C317.798 96.72 317.362 96.5767 317.015 96.35C316.668 96.1233 316.495 95.7833 316.495 95.33C316.495 94.9233 316.665 94.5867 317.005 94.32C317.345 94.0533 317.808 93.92 318.395 93.92C318.975 93.92 319.432 94.0533 319.765 94.32C320.098 94.58 320.288 94.9533 320.335 95.44H319.505C319.485 95.2 319.368 95.01 319.155 94.87C318.948 94.7233 318.688 94.65 318.375 94.65C318.048 94.65 317.795 94.7133 317.615 94.84C317.435 94.96 317.345 95.12 317.345 95.32C317.345 95.52 317.445 95.6867 317.645 95.82C317.852 95.9467 318.175 96.03 318.615 96.07C318.962 96.11 319.278 96.1767 319.565 96.27C319.852 96.3633 320.078 96.51 320.245 96.71C320.418 96.91 320.505 97.19 320.505 97.55C320.512 97.85 320.428 98.12 320.255 98.36C320.088 98.5933 319.855 98.78 319.555 98.92C319.255 99.0533 318.908 99.12 318.515 99.12Z" fill="#F8F8F2"/>
<path d="M416.207 70.7071C416.598 70.3166 416.598 69.6834 416.207 69.2929L409.843 62.9289C409.453 62.5384 408.819 62.5384 408.429 62.9289C408.038 63.3195 408.038 63.9526 408.429 64.3431L414.086 70L408.429 75.6569C408.038 76.0474 408.038 76.6805 408.429 77.0711C408.819 77.4616 409.453 77.4616 409.843 77.0711L416.207 70.7071ZM359.5 71H415.5V69H359.5V71Z" fill="black"/>
<rect x="425.5" y="20" width="125" height="100" rx="10" fill="#16181F"/>
<rect x="424.5" y="19" width="127" height="102" rx="11" stroke="#919CF9" stroke-opacity="0.3" stroke-width="2"/>
<path d="M457 41.75V52.25C457 52.8467 456.763 53.419 456.341 53.841C455.919 54.2629 455.347 54.5 454.75 54.5H439.75C439.153 54.5 438.581 54.2629 438.159 53.841C437.737 53.419 437.5 52.8467 437.5 52.25V41.75M457 41.75C457 41.1533 456.763 40.581 456.341 40.159C455.919 39.7371 455.347 39.5 454.75 39.5H439.75C439.153 39.5 438.581 39.7371 438.159 40.159C437.737 40.581 437.5 41.1533 437.5 41.75M457 41.75V41.993C457 42.3771 456.902 42.7549 456.714 43.0903C456.527 43.4257 456.257 43.7075 455.93 43.909L448.43 48.524C448.075 48.7425 447.667 48.8582 447.25 48.8582C446.833 48.8582 446.425 48.7425 446.07 48.524L438.57 43.91C438.243 43.7085 437.973 43.4267 437.786 43.0913C437.598 42.7559 437.5 42.3781 437.5 41.994V41.75" stroke="#8BE9FD" stroke-width="2" stroke-linecap="round" stroke-linejoin="round"/>
<path d="M442.105 81.68C441.365 81.68 440.72 81.54 440.17 81.26C439.63 80.98 439.21 80.59 438.91 80.09C438.62 79.59 438.47 79.005 438.46 78.335H439.78C439.79 78.935 439.99 79.455 440.38 79.895C440.78 80.325 441.355 80.54 442.105 80.54C442.795 80.54 443.325 80.375 443.695 80.045C444.075 79.705 444.265 79.3 444.265 78.83C444.265 78.44 444.175 78.115 443.995 77.855C443.815 77.585 443.52 77.35 443.11 77.15C442.71 76.94 442.17 76.725 441.49 76.505C440.53 76.215 439.83 75.82 439.39 75.32C438.95 74.82 438.73 74.2 438.73 73.46C438.73 72.96 438.86 72.51 439.12 72.11C439.38 71.71 439.755 71.395 440.245 71.165C440.735 70.935 441.33 70.82 442.03 70.82C442.69 70.82 443.265 70.945 443.755 71.195C444.255 71.435 444.64 71.775 444.91 72.215C445.19 72.655 445.33 73.16 445.33 73.73H444.01C444.01 73.45 443.935 73.175 443.785 72.905C443.635 72.635 443.41 72.41 443.11 72.23C442.81 72.05 442.43 71.96 441.97 71.96C441.42 71.96 440.96 72.095 440.59 72.365C440.22 72.625 440.035 72.985 440.035 73.445C440.035 73.795 440.115 74.09 440.275 74.33C440.445 74.57 440.72 74.79 441.1 74.99C441.48 75.18 441.995 75.385 442.645 75.605C443.255 75.805 443.775 76.04 444.205 76.31C444.645 76.57 444.98 76.895 445.21 77.285C445.45 77.675 445.57 78.16 445.57 78.74C445.57 79.31 445.425 79.815 445.135 80.255C444.845 80.695 444.44 81.045 443.92 81.305C443.4 81.555 442.795 81.68 442.105 81.68ZM447.784 81.5V71H454.339V72.14H449.044V75.635H453.889V76.775H449.044V80.36H454.339V81.5H447.784ZM456.343 81.5V71H457.633L462.403 79.295V71H463.648V81.5H462.343L457.573 73.205V81.5H456.343ZM465.472 81.5V71H467.677C469.397 71 470.667 71.47 471.487 72.41C472.317 73.35 472.732 74.63 472.732 76.25C472.732 77.87 472.317 79.15 471.487 80.09C470.667 81.03 469.397 81.5 467.677 81.5H465.472ZM466.732 80.345H467.647C468.567 80.345 469.302 80.175 469.852 79.835C470.412 79.495 470.817 79.02 471.067 78.41C471.317 77.8 471.442 77.08 471.442 76.25C471.442 75.42 471.317 74.7 471.067 74.09C470.817 73.48 470.412 73.005 469.852 72.665C469.302 72.325 468.567 72.155 467.647 72.155H466.732V80.345ZM438.74 96.5L437.64 91.54H438.47L439.18 95.25L440.03 91.54H440.97L441.82 95.25L442.53 91.54H443.37L442.26 96.5H441.4L440.5 92.65L439.6 96.5H438.74ZM446.546 96.62C446.079 96.62 445.666 96.5133 445.306 96.3C444.953 96.08 444.673 95.7767 444.466 95.39C444.259 94.9967 444.156 94.54 444.156 94.02C444.156 93.5 444.256 93.0467 444.456 92.66C444.663 92.2667 444.946 91.9633 445.306 91.75C445.666 91.53 446.086 91.42 446.566 91.42C447.046 91.42 447.456 91.53 447.796 91.75C448.136 91.9633 448.396 92.2467 448.576 92.6C448.756 92.9533 448.846 93.3333 448.846 93.74C448.846 93.8133 448.843 93.8867 448.836 93.96C448.836 94.0333 448.836 94.1167 448.836 94.21H444.986C445.006 94.5767 445.089 94.8833 445.236 95.13C445.389 95.37 445.579 95.55 445.806 95.67C446.039 95.79 446.286 95.85 446.546 95.85C446.913 95.85 447.199 95.7733 447.406 95.62C447.613 95.4667 447.769 95.2533 447.876 94.98H448.706C448.593 95.44 448.356 95.83 447.996 96.15C447.636 96.4633 447.153 96.62 446.546 96.62ZM446.546 92.17C446.159 92.17 445.819 92.2867 445.526 92.52C445.239 92.7533 445.063 93.08 444.996 93.5H448.016C447.989 93.0867 447.839 92.7633 447.566 92.53C447.299 92.29 446.959 92.17 446.546 92.17ZM450.242 96.5V95.78H451.932V90.27C451.932 90.1033 451.849 90.02 451.682 90.02H450.422V89.3H451.882C452.169 89.3 452.389 89.3767 452.542 89.53C452.696 89.6833 452.772 89.9033 452.772 90.19V95.78H454.462V96.5H450.242ZM458.568 96.62C458.122 96.62 457.722 96.5167 457.368 96.31C457.022 96.1033 456.745 95.8067 456.538 95.42C456.332 95.0267 456.228 94.56 456.228 94.02C456.228 93.48 456.332 93.0167 456.538 92.63C456.745 92.2367 457.025 91.9367 457.378 91.73C457.738 91.5233 458.135 91.42 458.568 91.42C459.182 91.42 459.672 91.5733 460.038 91.88C460.405 92.1867 460.638 92.5967 460.738 93.11H459.878C459.798 92.8367 459.645 92.62 459.418 92.46C459.192 92.2933 458.905 92.21 458.558 92.21C458.305 92.21 458.065 92.2767 457.838 92.41C457.612 92.5433 457.428 92.7433 457.288 93.01C457.148 93.2767 457.078 93.6133 457.078 94.02C457.078 94.4267 457.148 94.7667 457.288 95.04C457.428 95.3067 457.612 95.5067 457.838 95.64C458.065 95.7733 458.305 95.84 458.558 95.84C458.925 95.84 459.215 95.7567 459.428 95.59C459.648 95.4233 459.798 95.2033 459.878 94.93H460.738C460.612 95.4567 460.362 95.87 459.988 96.17C459.622 96.47 459.148 96.62 458.568 96.62ZM464.484 96.62C464.018 96.62 463.604 96.5133 463.244 96.3C462.884 96.0867 462.601 95.7867 462.394 95.4C462.188 95.0067 462.084 94.5467 462.084 94.02C462.084 93.4933 462.188 93.0367 462.394 92.65C462.601 92.2567 462.884 91.9533 463.244 91.74C463.604 91.5267 464.018 91.42 464.484 91.42C464.951 91.42 465.364 91.5267 465.724 91.74C466.084 91.9533 466.368 92.2567 466.574 92.65C466.781 93.0367 466.884 93.4933 466.884 94.02C466.884 94.5467 466.781 95.0067 466.574 95.4C466.368 95.7867 466.084 96.0867 465.724 96.3C465.364 96.5133 464.951 96.62 464.484 96.62ZM464.484 95.82C464.771 95.82 465.031 95.7567 465.264 95.63C465.498 95.5033 465.681 95.3067 465.814 95.04C465.954 94.7733 466.024 94.4333 466.024 94.02C466.024 93.6067 465.954 93.2667 465.814 93C465.681 92.7333 465.498 92.5367 465.264 92.41C465.031 92.2833 464.771 92.22 464.484 92.22C464.204 92.22 463.948 92.2833 463.714 92.41C463.481 92.5367 463.294 92.7333 463.154 93C463.014 93.2667 462.944 93.6067 462.944 94.02C462.944 94.64 463.094 95.0967 463.394 95.39C463.694 95.6767 464.058 95.82 464.484 95.82ZM467.85 96.5V91.54H468.54L468.63 92.12H468.68C468.767 91.92 468.897 91.7533 469.07 91.62C469.25 91.4867 469.467 91.42 469.72 91.42C469.974 91.42 470.187 91.4833 470.36 91.61C470.54 91.73 470.67 91.9 470.75 92.12H470.79C470.877 91.92 471.017 91.7533 471.21 91.62C471.404 91.4867 471.637 91.42 471.91 91.42C472.29 91.42 472.574 91.55 472.76 91.81C472.954 92.0633 473.05 92.4033 473.05 92.83V96.5H472.23V92.96C472.23 92.72 472.18 92.53 472.08 92.39C471.987 92.25 471.834 92.18 471.62 92.18C471.4 92.18 471.22 92.2633 471.08 92.43C470.94 92.5967 470.87 92.8333 470.87 93.14V96.5H470.04V92.96C470.04 92.72 469.994 92.53 469.9 92.39C469.807 92.25 469.654 92.18 469.44 92.18C469.22 92.18 469.037 92.2633 468.89 92.43C468.75 92.5967 468.68 92.8333 468.68 93.14V96.5H467.85ZM476.527 96.62C476.06 96.62 475.647 96.5133 475.287 96.3C474.933 96.08 474.653 95.7767 474.447 95.39C474.24 94.9967 474.137 94.54 474.137 94.02C474.137 93.5 474.237 93.0467 474.437 92.66C474.643 92.2667 474.927 91.9633 475.287 91.75C475.647 91.53 476.067 91.42 476.547 91.42C477.027 91.42 477.437 91.53 477.777 91.75C478.117 91.9633 478.377 92.2467 478.557 92.6C478.737 92.9533 478.827 93.3333 478.827 93.74C478.827 93.8133 478.823 93.8867 478.817 93.96C478.817 94.0333 478.817 94.1167 478.817 94.21H474.967C474.987 94.5767 475.07 94.8833 475.217 95.13C475.37 95.37 475.56 95.55 475.787 95.67C476.02 95.79 476.267 95.85 476.527 95.85C476.893 95.85 477.18 95.7733 477.387 95.62C477.593 95.4667 477.75 95.2533 477.857 94.98H478.687C478.573 95.44 478.337 95.83 477.977 96.15C477.617 96.4633 477.133 96.62 476.527 96.62ZM476.527 92.17C476.14 92.17 475.8 92.2867 475.507 92.52C475.22 92.7533 475.043 93.08 474.977 93.5H477.997C477.97 93.0867 477.82 92.7633 477.547 92.53C477.28 92.29 476.94 92.17 476.527 92.17ZM488.519 96.62C488.052 96.62 487.639 96.5133 487.279 96.3C486.925 96.08 486.645 95.7767 486.439 95.39C486.232 94.9967 486.129 94.54 486.129 94.02C486.129 93.5 486.229 93.0467 486.429 92.66C486.635 92.2667 486.919 91.9633 487.279 91.75C487.639 91.53 488.059 91.42 488.539 91.42C489.019 91.42 489.429 91.53 489.769 91.75C490.109 91.9633 490.369 92.2467 490.549 92.6C490.729 92.9533 490.819 93.3333 490.819 93.74C490.819 93.8133 490.815 93.8867 490.809 93.96C490.809 94.0333 490.809 94.1167 490.809 94.21H486.959C486.979 94.5767 487.062 94.8833 487.209 95.13C487.362 95.37 487.552 95.55 487.779 95.67C488.012 95.79 488.259 95.85 488.519 95.85C488.885 95.85 489.172 95.7733 489.379 95.62C489.585 95.4667 489.742 95.2533 489.849 94.98H490.679C490.565 95.44 490.329 95.83 489.969 96.15C489.609 96.4633 489.125 96.62 488.519 96.62ZM488.519 92.17C488.132 92.17 487.792 92.2867 487.499 92.52C487.212 92.7533 487.035 93.08 486.969 93.5H489.989C489.962 93.0867 489.812 92.7633 489.539 92.53C489.272 92.29 488.932 92.17 488.519 92.17ZM491.835 96.5V91.54H492.525L492.615 92.12H492.665C492.752 91.92 492.882 91.7533 493.055 91.62C493.235 91.4867 493.452 91.42 493.705 91.42C493.958 91.42 494.172 91.4833 494.345 91.61C494.525 91.73 494.655 91.9 494.735 92.12H494.775C494.862 91.92 495.002 91.7533 495.195 91.62C495.388 91.4867 495.622 91.42 495.895 91.42C496.275 91.42 496.558 91.55 496.745 91.81C496.938 92.0633 497.035 92.4033 497.035 92.83V96.5H496.215V92.96C496.215 92.72 496.165 92.53 496.065 92.39C495.972 92.25 495.818 92.18 495.605 92.18C495.385 92.18 495.205 92.2633 495.065 92.43C494.925 92.5967 494.855 92.8333 494.855 93.14V96.5H494.025V92.96C494.025 92.72 493.978 92.53 493.885 92.39C493.792 92.25 493.638 92.18 493.425 92.18C493.205 92.18 493.022 92.2633 492.875 92.43C492.735 92.5967 492.665 92.8333 492.665 93.14V96.5H491.835ZM500.041 96.62C499.648 96.62 499.321 96.55 499.061 96.41C498.801 96.27 498.608 96.0867 498.481 95.86C498.354 95.6267 498.291 95.3733 498.291 95.1C498.291 94.5933 498.474 94.21 498.841 93.95C499.214 93.6833 499.711 93.55 500.331 93.55H501.691V93.45C501.691 92.5833 501.294 92.15 500.501 92.15C500.181 92.15 499.911 92.22 499.691 92.36C499.478 92.5 499.341 92.72 499.281 93.02H498.421C498.454 92.6867 498.564 92.4 498.751 92.16C498.944 91.92 499.191 91.7367 499.491 91.61C499.791 91.4833 500.128 91.42 500.501 91.42C501.208 91.42 501.721 91.6067 502.041 91.98C502.368 92.3467 502.531 92.8367 502.531 93.45V96.5H501.811L501.741 95.73H501.671C501.524 95.97 501.328 96.18 501.081 96.36C500.841 96.5333 500.494 96.62 500.041 96.62ZM500.191 95.88C500.511 95.88 500.781 95.8033 501.001 95.65C501.228 95.4967 501.398 95.2933 501.511 95.04C501.631 94.7867 501.691 94.51 501.691 94.21H500.401C499.948 94.21 499.628 94.2867 499.441 94.44C499.261 94.5933 499.171 94.7967 499.171 95.05C499.171 95.31 499.258 95.5133 499.431 95.66C499.604 95.8067 499.858 95.88 500.191 95.88ZM506.397 90.66C506.197 90.66 506.03 90.5933 505.897 90.46C505.764 90.3267 505.697 90.1667 505.697 89.98C505.697 89.7867 505.764 89.6267 505.897 89.5C506.03 89.3667 506.197 89.3 506.397 89.3C506.59 89.3 506.754 89.3667 506.887 89.5C507.027 89.6267 507.097 89.7867 507.097 89.98C507.097 90.1667 507.027 90.3267 506.887 90.46C506.754 90.5933 506.59 90.66 506.397 90.66ZM504.457 96.5V95.78H506.037V92.51C506.037 92.3433 505.954 92.26 505.787 92.26H504.627V91.54H505.987C506.58 91.54 506.877 91.8367 506.877 92.43V95.78H508.457V96.5H504.457ZM510.203 96.5V95.78H511.893V90.27C511.893 90.1033 511.81 90.02 511.643 90.02H510.383V89.3H511.843C512.13 89.3 512.35 89.3767 512.503 89.53C512.656 89.6833 512.733 89.9033 512.733 90.19V95.78H514.423V96.5H510.203Z" fill="#8BE9FD"/>
</svg>
