<svg width="800" height="140" viewBox="0 0 800 140" fill="none" xmlns="http://www.w3.org/2000/svg">
<rect width="800" height="140" fill="white"/>
<rect x="249.5" y="20" width="100" height="100" rx="10" fill="#16181F"/>
<rect x="248.5" y="19" width="102" height="102" rx="11" stroke="#919CF9" stroke-opacity="0.3" stroke-width="2"/>
<path d="M278.5 33.7308C278.5 36.0672 274.694 37.9615 270 37.9615C265.306 37.9615 261.5 36.0672 261.5 33.7308M278.5 33.7308C278.5 31.3944 274.694 29.5 270 29.5C265.306 29.5 261.5 31.3944 261.5 33.7308M278.5 33.7308V45.2692C278.5 47.6056 274.694 49.5 270 49.5C265.306 49.5 261.5 47.6056 261.5 45.2692V33.7308M278.5 33.7308V37.5769M261.5 33.7308V37.5769M278.5 37.5769V41.4231C278.5 43.7595 274.694 45.6538 270 45.6538C265.306 45.6538 261.5 43.7595 261.5 41.4231V37.5769M278.5 37.5769C278.5 39.9133 274.694 41.8077 270 41.8077C265.306 41.8077 261.5 39.9133 261.5 37.5769" stroke="#919CF9" stroke-linecap="round" stroke-linejoin="round"/>
<path d="M262.49 76.5V66H264.695C266.415 66 267.685 66.47 268.505 67.41C269.335 68.35 269.75 69.63 269.75 71.25C269.75 72.87 269.335 74.15 268.505 75.09C267.685 76.03 266.415 76.5 264.695 76.5H262.49ZM263.75 75.345H264.665C265.585 75.345 266.32 75.175 266.87 74.835C267.43 74.495 267.835 74.02 268.085 73.41C268.335 72.8 268.46 72.08 268.46 71.25C268.46 70.42 268.335 69.7 268.085 69.09C267.835 68.48 267.43 68.005 266.87 67.665C266.32 67.325 265.585 67.155 264.665 67.155H263.75V75.345ZM275.069 76.68C274.369 76.68 273.749 76.52 273.209 76.2C272.679 75.87 272.259 75.415 271.949 74.835C271.639 74.245 271.484 73.56 271.484 72.78C271.484 72 271.634 71.32 271.934 70.74C272.244 70.15 272.669 69.695 273.209 69.375C273.749 69.045 274.379 68.88 275.099 68.88C275.819 68.88 276.434 69.045 276.944 69.375C277.454 69.695 277.844 70.12 278.114 70.65C278.384 71.18 278.519 71.75 278.519 72.36C278.519 72.47 278.514 72.58 278.504 72.69C278.504 72.8 278.504 72.925 278.504 73.065H272.729C272.759 73.615 272.884 74.075 273.104 74.445C273.334 74.805 273.619 75.075 273.959 75.255C274.309 75.435 274.679 75.525 275.069 75.525C275.619 75.525 276.049 75.41 276.359 75.18C276.669 74.95 276.904 74.63 277.064 74.22H278.309C278.139 74.91 277.784 75.495 277.244 75.975C276.704 76.445 275.979 76.68 275.069 76.68ZM275.069 70.005C274.489 70.005 273.979 70.18 273.539 70.53C273.109 70.88 272.844 71.37 272.744 72H277.274C277.234 71.38 277.009 70.895 276.599 70.545C276.199 70.185 275.689 70.005 275.069 70.005ZM280.613 76.5V75.42H283.148V67.155C283.148 66.905 283.023 66.78 282.773 66.78H280.883V65.7H283.073C283.503 65.7 283.833 65.815 284.063 66.045C284.293 66.275 284.408 66.605 284.408 67.035V75.42H286.943V76.5H280.613ZM293.057 76.68C292.357 76.68 291.737 76.52 291.197 76.2C290.667 75.87 290.247 75.415 289.937 74.835C289.627 74.245 289.472 73.56 289.472 72.78C289.472 72 289.622 71.32 289.922 70.74C290.232 70.15 290.657 69.695 291.197 69.375C291.737 69.045 292.367 68.88 293.087 68.88C293.807 68.88 294.422 69.045 294.932 69.375C295.442 69.695 295.832 70.12 296.102 70.65C296.372 71.18 296.507 71.75 296.507 72.36C296.507 72.47 296.502 72.58 296.492 72.69C296.492 72.8 296.492 72.925 296.492 73.065H290.717C290.747 73.615 290.872 74.075 291.092 74.445C291.322 74.805 291.607 75.075 291.947 75.255C292.297 75.435 292.667 75.525 293.057 75.525C293.607 75.525 294.037 75.41 294.347 75.18C294.657 74.95 294.892 74.63 295.052 74.22H296.297C296.127 74.91 295.772 75.495 295.232 75.975C294.692 76.445 293.967 76.68 293.057 76.68ZM293.057 70.005C292.477 70.005 291.967 70.18 291.527 70.53C291.097 70.88 290.832 71.37 290.732 72H295.262C295.222 71.38 294.997 70.895 294.587 70.545C294.187 70.185 293.677 70.005 293.057 70.005ZM302.757 76.5C302.077 76.5 301.542 76.335 301.152 76.005C300.762 75.675 300.567 75.08 300.567 74.22V70.14H298.677V69.06H299.802C300.312 69.06 300.607 68.81 300.687 68.31L300.897 67.155H301.827V69.06H304.797V70.14H301.827V74.22C301.827 74.64 301.922 74.935 302.112 75.105C302.312 75.275 302.652 75.36 303.132 75.36H304.797V76.5H302.757ZM311.046 76.68C310.346 76.68 309.726 76.52 309.186 76.2C308.656 75.87 308.236 75.415 307.926 74.835C307.616 74.245 307.461 73.56 307.461 72.78C307.461 72 307.611 71.32 307.911 70.74C308.221 70.15 308.646 69.695 309.186 69.375C309.726 69.045 310.356 68.88 311.076 68.88C311.796 68.88 312.411 69.045 312.921 69.375C313.431 69.695 313.821 70.12 314.091 70.65C314.361 71.18 314.496 71.75 314.496 72.36C314.496 72.47 314.491 72.58 314.481 72.69C314.481 72.8 314.481 72.925 314.481 73.065H308.706C308.736 73.615 308.861 74.075 309.081 74.445C309.311 74.805 309.596 75.075 309.936 75.255C310.286 75.435 310.656 75.525 311.046 75.525C311.596 75.525 312.026 75.41 312.336 75.18C312.646 74.95 312.881 74.63 313.041 74.22H314.286C314.116 74.91 313.761 75.495 313.221 75.975C312.681 76.445 311.956 76.68 311.046 76.68ZM311.046 70.005C310.466 70.005 309.956 70.18 309.516 70.53C309.086 70.88 308.821 71.37 308.721 72H313.251C313.211 71.38 312.986 70.895 312.576 70.545C312.176 70.185 311.666 70.005 311.046 70.005ZM262.42 93.7V92.93H263.03C263.283 92.93 263.463 92.88 263.57 92.78C263.677 92.68 263.73 92.5033 263.73 92.25V87.26H262.5V86.54H263.73V85.75C263.73 85.2367 263.853 84.8667 264.1 84.64C264.347 84.4133 264.72 84.3 265.22 84.3H266.41V85.06H265.27C265.023 85.06 264.843 85.1133 264.73 85.22C264.623 85.32 264.57 85.4967 264.57 85.75V86.54H266.41V87.26H264.57V92.25C264.57 92.7633 264.447 93.1333 264.2 93.36C263.953 93.5867 263.583 93.7 263.09 93.7H262.42ZM268.336 91.5V90.78H269.606V87.51C269.606 87.3433 269.526 87.26 269.366 87.26H268.466V86.54H269.676C269.896 86.54 270.073 86.6 270.206 86.72C270.339 86.84 270.406 87.0167 270.406 87.25V87.46H270.446C270.526 87.1267 270.676 86.87 270.896 86.69C271.123 86.51 271.436 86.42 271.836 86.42H272.746V87.31H271.716C271.309 87.31 270.996 87.4467 270.776 87.72C270.556 87.9867 270.446 88.33 270.446 88.75V90.78H272.006V91.5H268.336ZM276.492 91.62C276.026 91.62 275.612 91.5133 275.252 91.3C274.892 91.0867 274.609 90.7867 274.402 90.4C274.196 90.0067 274.092 89.5467 274.092 89.02C274.092 88.4933 274.196 88.0367 274.402 87.65C274.609 87.2567 274.892 86.9533 275.252 86.74C275.612 86.5267 276.026 86.42 276.492 86.42C276.959 86.42 277.372 86.5267 277.732 86.74C278.092 86.9533 278.376 87.2567 278.582 87.65C278.789 88.0367 278.892 88.4933 278.892 89.02C278.892 89.5467 278.789 90.0067 278.582 90.4C278.376 90.7867 278.092 91.0867 277.732 91.3C277.372 91.5133 276.959 91.62 276.492 91.62ZM276.492 90.82C276.779 90.82 277.039 90.7567 277.272 90.63C277.506 90.5033 277.689 90.3067 277.822 90.04C277.962 89.7733 278.032 89.4333 278.032 89.02C278.032 88.6067 277.962 88.2667 277.822 88C277.689 87.7333 277.506 87.5367 277.272 87.41C277.039 87.2833 276.779 87.22 276.492 87.22C276.212 87.22 275.956 87.2833 275.722 87.41C275.489 87.5367 275.302 87.7333 275.162 88C275.022 88.2667 274.952 88.6067 274.952 89.02C274.952 89.64 275.102 90.0967 275.402 90.39C275.702 90.6767 276.066 90.82 276.492 90.82ZM279.858 91.5V86.54H280.548L280.638 87.12H280.688C280.775 86.92 280.905 86.7533 281.078 86.62C281.258 86.4867 281.475 86.42 281.728 86.42C281.982 86.42 282.195 86.4833 282.368 86.61C282.548 86.73 282.678 86.9 282.758 87.12H282.798C282.885 86.92 283.025 86.7533 283.218 86.62C283.412 86.4867 283.645 86.42 283.918 86.42C284.298 86.42 284.582 86.55 284.768 86.81C284.962 87.0633 285.058 87.4033 285.058 87.83V91.5H284.238V87.96C284.238 87.72 284.188 87.53 284.088 87.39C283.995 87.25 283.842 87.18 283.628 87.18C283.408 87.18 283.228 87.2633 283.088 87.43C282.948 87.5967 282.878 87.8333 282.878 88.14V91.5H282.048V87.96C282.048 87.72 282.002 87.53 281.908 87.39C281.815 87.25 281.662 87.18 281.448 87.18C281.228 87.18 281.045 87.2633 280.898 87.43C280.758 87.5967 280.688 87.8333 280.688 88.14V91.5H279.858Z" fill="#FF79C6"/>
<path d="M262.28 108.7V101.54H262.96L263.06 102.36H263.12C263.247 102.093 263.45 101.87 263.73 101.69C264.01 101.51 264.34 101.42 264.72 101.42C265.12 101.42 265.48 101.52 265.8 101.72C266.127 101.92 266.383 102.217 266.57 102.61C266.757 102.997 266.85 103.47 266.85 104.03C266.85 104.583 266.753 105.053 266.56 105.44C266.373 105.827 266.113 106.12 265.78 106.32C265.453 106.52 265.077 106.62 264.65 106.62C264.27 106.62 263.947 106.54 263.68 106.38C263.42 106.213 263.233 106.02 263.12 105.8V108.7H262.28ZM264.55 105.82C264.97 105.82 265.317 105.673 265.59 105.38C265.863 105.08 266 104.627 266 104.02C266 103.413 265.863 102.963 265.59 102.67C265.317 102.37 264.97 102.22 264.55 102.22C264.13 102.22 263.783 102.37 263.51 102.67C263.237 102.963 263.1 103.413 263.1 104.02C263.1 104.627 263.237 105.08 263.51 105.38C263.783 105.673 264.13 105.82 264.55 105.82ZM268.336 106.5V105.78H269.606V102.51C269.606 102.343 269.526 102.26 269.366 102.26H268.466V101.54H269.676C269.896 101.54 270.073 101.6 270.206 101.72C270.339 101.84 270.406 102.017 270.406 102.25V102.46H270.446C270.526 102.127 270.676 101.87 270.896 101.69C271.123 101.51 271.436 101.42 271.836 101.42H272.746V102.31H271.716C271.309 102.31 270.996 102.447 270.776 102.72C270.556 102.987 270.446 103.33 270.446 103.75V105.78H272.006V106.5H268.336ZM276.492 106.62C276.026 106.62 275.612 106.513 275.252 106.3C274.892 106.087 274.609 105.787 274.402 105.4C274.196 105.007 274.092 104.547 274.092 104.02C274.092 103.493 274.196 103.037 274.402 102.65C274.609 102.257 274.892 101.953 275.252 101.74C275.612 101.527 276.026 101.42 276.492 101.42C276.959 101.42 277.372 101.527 277.732 101.74C278.092 101.953 278.376 102.257 278.582 102.65C278.789 103.037 278.892 103.493 278.892 104.02C278.892 104.547 278.789 105.007 278.582 105.4C278.376 105.787 278.092 106.087 277.732 106.3C277.372 106.513 276.959 106.62 276.492 106.62ZM276.492 105.82C276.779 105.82 277.039 105.757 277.272 105.63C277.506 105.503 277.689 105.307 277.822 105.04C277.962 104.773 278.032 104.433 278.032 104.02C278.032 103.607 277.962 103.267 277.822 103C277.689 102.733 277.506 102.537 277.272 102.41C277.039 102.283 276.779 102.22 276.492 102.22C276.212 102.22 275.956 102.283 275.722 102.41C275.489 102.537 275.302 102.733 275.162 103C275.022 103.267 274.952 103.607 274.952 104.02C274.952 104.64 275.102 105.097 275.402 105.39C275.702 105.677 276.066 105.82 276.492 105.82ZM282.318 106.62C281.898 106.62 281.522 106.52 281.188 106.32C280.862 106.12 280.605 105.827 280.418 105.44C280.232 105.047 280.138 104.57 280.138 104.01C280.138 103.457 280.232 102.987 280.418 102.6C280.605 102.213 280.862 101.92 281.188 101.72C281.522 101.52 281.898 101.42 282.318 101.42C282.712 101.42 283.035 101.497 283.288 101.65C283.548 101.803 283.742 102.003 283.868 102.25V99.3H284.708V106.5H284.018L283.928 105.73H283.868C283.735 106.003 283.538 106.22 283.278 106.38C283.018 106.54 282.698 106.62 282.318 106.62ZM282.428 105.82C282.848 105.82 283.195 105.673 283.468 105.38C283.742 105.08 283.878 104.627 283.878 104.02C283.878 103.413 283.742 102.963 283.468 102.67C283.195 102.37 282.848 102.22 282.428 102.22C282.008 102.22 281.662 102.37 281.388 102.67C281.122 102.963 280.988 103.413 280.988 104.02C280.988 104.627 281.122 105.08 281.388 105.38C281.662 105.673 282.008 105.82 282.428 105.82ZM288.134 106.62C287.534 106.62 287.081 106.44 286.774 106.08C286.468 105.72 286.314 105.2 286.314 104.52V101.54H287.154V104.42C287.154 104.86 287.251 105.207 287.444 105.46C287.644 105.707 287.944 105.83 288.344 105.83C288.744 105.83 289.081 105.697 289.354 105.43C289.628 105.157 289.764 104.767 289.764 104.26V101.54H290.604V106.5H289.904L289.814 105.75H289.764C289.631 105.99 289.421 106.197 289.134 106.37C288.848 106.537 288.514 106.62 288.134 106.62ZM294.56 106.62C294.114 106.62 293.714 106.517 293.36 106.31C293.014 106.103 292.737 105.807 292.53 105.42C292.324 105.027 292.22 104.56 292.22 104.02C292.22 103.48 292.324 103.017 292.53 102.63C292.737 102.237 293.017 101.937 293.37 101.73C293.73 101.523 294.127 101.42 294.56 101.42C295.174 101.42 295.664 101.573 296.03 101.88C296.397 102.187 296.63 102.597 296.73 103.11H295.87C295.79 102.837 295.637 102.62 295.41 102.46C295.184 102.293 294.897 102.21 294.55 102.21C294.297 102.21 294.057 102.277 293.83 102.41C293.604 102.543 293.42 102.743 293.28 103.01C293.14 103.277 293.07 103.613 293.07 104.02C293.07 104.427 293.14 104.767 293.28 105.04C293.42 105.307 293.604 105.507 293.83 105.64C294.057 105.773 294.297 105.84 294.55 105.84C294.917 105.84 295.207 105.757 295.42 105.59C295.64 105.423 295.79 105.203 295.87 104.93H296.73C296.604 105.457 296.354 105.87 295.98 106.17C295.614 106.47 295.14 106.62 294.56 106.62ZM300.997 106.5C300.543 106.5 300.187 106.39 299.927 106.17C299.667 105.95 299.537 105.553 299.537 104.98V102.26H298.277V101.54H299.027C299.367 101.54 299.563 101.373 299.617 101.04L299.757 100.27H300.377V101.54H302.357V102.26H300.377V104.98C300.377 105.26 300.44 105.457 300.567 105.57C300.7 105.683 300.927 105.74 301.247 105.74H302.357V106.5H300.997ZM306.523 106.62C305.889 106.62 305.376 106.473 304.983 106.18C304.596 105.88 304.379 105.47 304.333 104.95H305.203C305.243 105.223 305.376 105.447 305.603 105.62C305.836 105.793 306.149 105.88 306.543 105.88C306.916 105.88 307.193 105.8 307.373 105.64C307.559 105.48 307.653 105.297 307.653 105.09C307.653 104.81 307.543 104.62 307.323 104.52C307.103 104.413 306.773 104.333 306.333 104.28C305.806 104.22 305.369 104.077 305.023 103.85C304.676 103.623 304.503 103.283 304.503 102.83C304.503 102.423 304.673 102.087 305.013 101.82C305.353 101.553 305.816 101.42 306.403 101.42C306.983 101.42 307.439 101.553 307.773 101.82C308.106 102.08 308.296 102.453 308.343 102.94H307.513C307.493 102.7 307.376 102.51 307.163 102.37C306.956 102.223 306.696 102.15 306.383 102.15C306.056 102.15 305.803 102.213 305.623 102.34C305.443 102.46 305.353 102.62 305.353 102.82C305.353 103.02 305.453 103.187 305.653 103.32C305.859 103.447 306.183 103.53 306.623 103.57C306.969 103.61 307.286 103.677 307.573 103.77C307.859 103.863 308.086 104.01 308.253 104.21C308.426 104.41 308.513 104.69 308.513 105.05C308.519 105.35 308.436 105.62 308.263 105.86C308.096 106.093 307.863 106.28 307.563 106.42C307.263 106.553 306.916 106.62 306.523 106.62Z" fill="#F8F8F2"/>
<path d="M416.207 70.7071C416.598 70.3166 416.598 69.6834 416.207 69.2929L409.843 62.9289C409.453 62.5384 408.819 62.5384 408.429 62.9289C408.038 63.3195 408.038 63.9526 408.429 64.3431L414.086 70L408.429 75.6569C408.038 76.0474 408.038 76.6805 408.429 77.0711C408.819 77.4616 409.453 77.4616 409.843 77.0711L416.207 70.7071ZM359.5 71H415.5V69H359.5V71Z" fill="black"/>
<rect x="425.5" y="20" width="125" height="100" rx="10" fill="#16181F"/>
<rect x="424.5" y="19" width="127" height="102" rx="11" stroke="#919CF9" stroke-opacity="0.3" stroke-width="2"/>
<path d="M452.5 49.625V47C452.5 46.1049 452.144 45.2465 451.511 44.6135C450.879 43.9806 450.02 43.625 449.125 43.625H447.625C447.327 43.625 447.04 43.5065 446.83 43.2955C446.619 43.0845 446.5 42.7984 446.5 42.5V41C446.5 40.1049 446.144 39.2464 445.511 38.6135C444.879 37.9806 444.02 37.625 443.125 37.625H441.25M446.481 51.106L448 52.625M446.481 51.106C446.725 50.8622 446.918 50.573 447.05 50.2545C447.182 49.9361 447.25 49.5947 447.25 49.25C447.25 48.5538 446.973 47.8861 446.481 47.3938C445.989 46.9016 445.321 46.625 444.625 46.625C443.929 46.625 443.261 46.9016 442.769 47.3938C442.277 47.8861 442 48.5538 442 49.25C442 49.5947 442.068 49.9361 442.2 50.2545C442.332 50.573 442.525 50.8624 442.769 51.1062C443.013 51.3499 443.302 51.5433 443.62 51.6752C443.939 51.8071 444.28 51.875 444.625 51.875C444.97 51.875 445.311 51.8071 445.63 51.6752C445.948 51.5433 446.237 51.3498 446.481 51.106ZM443.5 37.625H438.625C438.004 37.625 437.5 38.129 437.5 38.75V55.25C437.5 55.871 438.004 56.375 438.625 56.375H451.375C451.996 56.375 452.5 55.871 452.5 55.25V46.625C452.5 44.2381 451.552 41.9489 449.864 40.261C448.176 38.5732 445.887 37.625 443.5 37.625Z" stroke="#BD93F9" stroke-width="1.5" stroke-linecap="round" stroke-linejoin="round"/>
<path d="M438.985 83.375V82.28H441.37V73.97H438.985V72.875H445.015V73.97H442.63V82.28H445.015V83.375H438.985ZM447.814 83.375V75.935H448.864L448.999 77.06H449.074C449.274 76.7 449.589 76.395 450.019 76.145C450.449 75.885 450.944 75.755 451.504 75.755C452.414 75.755 453.094 76.025 453.544 76.565C454.004 77.105 454.234 77.885 454.234 78.905V83.375H452.974V79.055C452.974 78.395 452.829 77.88 452.539 77.51C452.249 77.13 451.799 76.94 451.189 76.94C450.599 76.94 450.099 77.145 449.689 77.555C449.279 77.955 449.074 78.535 449.074 79.295V83.375H447.814ZM459.253 83.375L455.983 75.935H457.423L459.988 81.995L462.568 75.935H463.993L460.708 83.375H459.253ZM468.352 83.555C467.762 83.555 467.272 83.45 466.882 83.24C466.492 83.03 466.202 82.755 466.012 82.415C465.822 82.065 465.727 81.685 465.727 81.275C465.727 80.515 466.002 79.94 466.552 79.55C467.112 79.15 467.857 78.95 468.787 78.95H470.827V78.8C470.827 77.5 470.232 76.85 469.042 76.85C468.562 76.85 468.157 76.955 467.827 77.165C467.507 77.375 467.302 77.705 467.212 78.155H465.922C465.972 77.655 466.137 77.225 466.417 76.865C466.707 76.505 467.077 76.23 467.527 76.04C467.977 75.85 468.482 75.755 469.042 75.755C470.102 75.755 470.872 76.035 471.352 76.595C471.842 77.145 472.087 77.88 472.087 78.8V83.375H471.007L470.902 82.22H470.797C470.577 82.58 470.282 82.895 469.912 83.165C469.552 83.425 469.032 83.555 468.352 83.555ZM468.577 82.445C469.057 82.445 469.462 82.33 469.792 82.1C470.132 81.87 470.387 81.565 470.557 81.185C470.737 80.805 470.827 80.39 470.827 79.94H468.892C468.212 79.94 467.732 80.055 467.452 80.285C467.182 80.515 467.047 80.82 467.047 81.2C467.047 81.59 467.177 81.895 467.437 82.115C467.697 82.335 468.077 82.445 468.577 82.445ZM474.602 83.375V82.295H477.137V74.03C477.137 73.78 477.012 73.655 476.762 73.655H474.872V72.575H477.062C477.492 72.575 477.822 72.69 478.052 72.92C478.282 73.15 478.397 73.48 478.397 73.91V82.295H480.932V83.375H474.602ZM486.881 74.615C486.581 74.615 486.331 74.515 486.131 74.315C485.931 74.115 485.831 73.875 485.831 73.595C485.831 73.305 485.931 73.065 486.131 72.875C486.331 72.675 486.581 72.575 486.881 72.575C487.171 72.575 487.416 72.675 487.616 72.875C487.826 73.065 487.931 73.305 487.931 73.595C487.931 73.875 487.826 74.115 487.616 74.315C487.416 74.515 487.171 74.615 486.881 74.615ZM483.971 83.375V82.295H486.341V77.39C486.341 77.14 486.216 77.015 485.966 77.015H484.226V75.935H486.266C487.156 75.935 487.601 76.38 487.601 77.27V82.295H489.971V83.375H483.971ZM495.71 83.555C495.08 83.555 494.515 83.405 494.015 83.105C493.525 82.805 493.14 82.365 492.86 81.785C492.58 81.195 492.44 80.48 492.44 79.64C492.44 78.81 492.58 78.105 492.86 77.525C493.14 76.945 493.525 76.505 494.015 76.205C494.515 75.905 495.08 75.755 495.71 75.755C496.3 75.755 496.785 75.87 497.165 76.1C497.555 76.33 497.845 76.63 498.035 77V72.575H499.295V83.375H498.26L498.125 82.22H498.035C497.835 82.63 497.54 82.955 497.15 83.195C496.76 83.435 496.28 83.555 495.71 83.555ZM495.875 82.355C496.505 82.355 497.025 82.135 497.435 81.695C497.845 81.245 498.05 80.565 498.05 79.655C498.05 78.745 497.845 78.07 497.435 77.63C497.025 77.18 496.505 76.955 495.875 76.955C495.245 76.955 494.725 77.18 494.315 77.63C493.915 78.07 493.715 78.745 493.715 79.655C493.715 80.565 493.915 81.245 494.315 81.695C494.725 82.135 495.245 82.355 495.875 82.355ZM504.329 83.555C503.739 83.555 503.249 83.45 502.859 83.24C502.469 83.03 502.179 82.755 501.989 82.415C501.799 82.065 501.704 81.685 501.704 81.275C501.704 80.515 501.979 79.94 502.529 79.55C503.089 79.15 503.834 78.95 504.764 78.95H506.804V78.8C506.804 77.5 506.209 76.85 505.019 76.85C504.539 76.85 504.134 76.955 503.804 77.165C503.484 77.375 503.279 77.705 503.189 78.155H501.899C501.949 77.655 502.114 77.225 502.394 76.865C502.684 76.505 503.054 76.23 503.504 76.04C503.954 75.85 504.459 75.755 505.019 75.755C506.079 75.755 506.849 76.035 507.329 76.595C507.819 77.145 508.064 77.88 508.064 78.8V83.375H506.984L506.879 82.22H506.774C506.554 82.58 506.259 82.895 505.889 83.165C505.529 83.425 505.009 83.555 504.329 83.555ZM504.554 82.445C505.034 82.445 505.439 82.33 505.769 82.1C506.109 81.87 506.364 81.565 506.534 81.185C506.714 80.805 506.804 80.39 506.804 79.94H504.869C504.189 79.94 503.709 80.055 503.429 80.285C503.159 80.515 503.024 80.82 503.024 81.2C503.024 81.59 503.154 81.895 503.414 82.115C503.674 82.335 504.054 82.445 504.554 82.445ZM514.733 83.375C514.053 83.375 513.518 83.21 513.128 82.88C512.738 82.55 512.543 81.955 512.543 81.095V77.015H510.653V75.935H511.778C512.288 75.935 512.583 75.685 512.663 75.185L512.873 74.03H513.803V75.935H516.773V77.015H513.803V81.095C513.803 81.515 513.898 81.81 514.088 81.98C514.288 82.15 514.628 82.235 515.108 82.235H516.773V83.375H514.733ZM523.022 83.555C522.322 83.555 521.702 83.395 521.162 83.075C520.632 82.745 520.212 82.29 519.902 81.71C519.592 81.12 519.437 80.435 519.437 79.655C519.437 78.875 519.587 78.195 519.887 77.615C520.197 77.025 520.622 76.57 521.162 76.25C521.702 75.92 522.332 75.755 523.052 75.755C523.772 75.755 524.387 75.92 524.897 76.25C525.407 76.57 525.797 76.995 526.067 77.525C526.337 78.055 526.472 78.625 526.472 79.235C526.472 79.345 526.467 79.455 526.457 79.565C526.457 79.675 526.457 79.8 526.457 79.94H520.682C520.712 80.49 520.837 80.95 521.057 81.32C521.287 81.68 521.572 81.95 521.912 82.13C522.262 82.31 522.632 82.4 523.022 82.4C523.572 82.4 524.002 82.285 524.312 82.055C524.622 81.825 524.857 81.505 525.017 81.095H526.262C526.092 81.785 525.737 82.37 525.197 82.85C524.657 83.32 523.932 83.555 523.022 83.555ZM523.022 76.88C522.442 76.88 521.932 77.055 521.492 77.405C521.062 77.755 520.797 78.245 520.697 78.875H525.227C525.187 78.255 524.962 77.77 524.552 77.42C524.152 77.06 523.642 76.88 523.022 76.88ZM440.55 98.495C439.917 98.495 439.403 98.3483 439.01 98.055C438.623 97.755 438.407 97.345 438.36 96.825H439.23C439.27 97.0983 439.403 97.3217 439.63 97.495C439.863 97.6683 440.177 97.755 440.57 97.755C440.943 97.755 441.22 97.675 441.4 97.515C441.587 97.355 441.68 97.1717 441.68 96.965C441.68 96.685 441.57 96.495 441.35 96.395C441.13 96.2883 440.8 96.2083 440.36 96.155C439.833 96.095 439.397 95.9517 439.05 95.725C438.703 95.4983 438.53 95.1583 438.53 94.705C438.53 94.2983 438.7 93.9617 439.04 93.695C439.38 93.4283 439.843 93.295 440.43 93.295C441.01 93.295 441.467 93.4283 441.8 93.695C442.133 93.955 442.323 94.3283 442.37 94.815H441.54C441.52 94.575 441.403 94.385 441.19 94.245C440.983 94.0983 440.723 94.025 440.41 94.025C440.083 94.025 439.83 94.0883 439.65 94.215C439.47 94.335 439.38 94.495 439.38 94.695C439.38 94.895 439.48 95.0617 439.68 95.195C439.887 95.3217 440.21 95.405 440.65 95.445C440.997 95.485 441.313 95.5517 441.6 95.645C441.887 95.7383 442.113 95.885 442.28 96.085C442.453 96.285 442.54 96.565 442.54 96.925C442.547 97.225 442.463 97.495 442.29 97.735C442.123 97.9683 441.89 98.155 441.59 98.295C441.29 98.4283 440.943 98.495 440.55 98.495ZM446.546 98.495C446.079 98.495 445.666 98.3883 445.306 98.175C444.953 97.955 444.673 97.6517 444.466 97.265C444.259 96.8717 444.156 96.415 444.156 95.895C444.156 95.375 444.256 94.9217 444.456 94.535C444.663 94.1417 444.946 93.8383 445.306 93.625C445.666 93.405 446.086 93.295 446.566 93.295C447.046 93.295 447.456 93.405 447.796 93.625C448.136 93.8383 448.396 94.1217 448.576 94.475C448.756 94.8283 448.846 95.2083 448.846 95.615C448.846 95.6883 448.843 95.7617 448.836 95.835C448.836 95.9083 448.836 95.9917 448.836 96.085H444.986C445.006 96.4517 445.089 96.7583 445.236 97.005C445.389 97.245 445.579 97.425 445.806 97.545C446.039 97.665 446.286 97.725 446.546 97.725C446.913 97.725 447.199 97.6483 447.406 97.495C447.613 97.3417 447.769 97.1283 447.876 96.855H448.706C448.593 97.315 448.356 97.705 447.996 98.025C447.636 98.3383 447.153 98.495 446.546 98.495ZM446.546 94.045C446.159 94.045 445.819 94.1617 445.526 94.395C445.239 94.6283 445.063 94.955 444.996 95.375H448.016C447.989 94.9617 447.839 94.6383 447.566 94.405C447.299 94.165 446.959 94.045 446.546 94.045ZM452.072 98.495C451.679 98.495 451.352 98.425 451.092 98.285C450.832 98.145 450.639 97.9617 450.512 97.735C450.386 97.5017 450.322 97.2483 450.322 96.975C450.322 96.4683 450.506 96.085 450.872 95.825C451.246 95.5583 451.742 95.425 452.362 95.425H453.722V95.325C453.722 94.4583 453.326 94.025 452.532 94.025C452.212 94.025 451.942 94.095 451.722 94.235C451.509 94.375 451.372 94.595 451.312 94.895H450.452C450.486 94.5617 450.596 94.275 450.782 94.035C450.976 93.795 451.222 93.6117 451.522 93.485C451.822 93.3583 452.159 93.295 452.532 93.295C453.239 93.295 453.752 93.4817 454.072 93.855C454.399 94.2217 454.562 94.7117 454.562 95.325V98.375H453.842L453.772 97.605H453.702C453.556 97.845 453.359 98.055 453.112 98.235C452.872 98.4083 452.526 98.495 452.072 98.495ZM452.222 97.755C452.542 97.755 452.812 97.6783 453.032 97.525C453.259 97.3717 453.429 97.1683 453.542 96.915C453.662 96.6617 453.722 96.385 453.722 96.085H452.432C451.979 96.085 451.659 96.1617 451.472 96.315C451.292 96.4683 451.202 96.6717 451.202 96.925C451.202 97.185 451.289 97.3883 451.462 97.535C451.636 97.6817 451.889 97.755 452.222 97.755ZM456.328 98.375V97.655H457.598V94.385C457.598 94.2183 457.518 94.135 457.358 94.135H456.458V93.415H457.668C457.888 93.415 458.065 93.475 458.198 93.595C458.332 93.715 458.398 93.8917 458.398 94.125V94.335H458.438C458.518 94.0017 458.668 93.745 458.888 93.565C459.115 93.385 459.428 93.295 459.828 93.295H460.738V94.185H459.708C459.302 94.185 458.988 94.3217 458.768 94.595C458.548 94.8617 458.438 95.205 458.438 95.625V97.655H459.998V98.375H456.328ZM464.564 98.495C464.118 98.495 463.718 98.3917 463.364 98.185C463.018 97.9783 462.741 97.6817 462.534 97.295C462.328 96.9017 462.224 96.435 462.224 95.895C462.224 95.355 462.328 94.8917 462.534 94.505C462.741 94.1117 463.021 93.8117 463.374 93.605C463.734 93.3983 464.131 93.295 464.564 93.295C465.178 93.295 465.668 93.4483 466.034 93.755C466.401 94.0617 466.634 94.4717 466.734 94.985H465.874C465.794 94.7117 465.641 94.495 465.414 94.335C465.188 94.1683 464.901 94.085 464.554 94.085C464.301 94.085 464.061 94.1517 463.834 94.285C463.608 94.4183 463.424 94.6183 463.284 94.885C463.144 95.1517 463.074 95.4883 463.074 95.895C463.074 96.3017 463.144 96.6417 463.284 96.915C463.424 97.1817 463.608 97.3817 463.834 97.515C464.061 97.6483 464.301 97.715 464.554 97.715C464.921 97.715 465.211 97.6317 465.424 97.465C465.644 97.2983 465.794 97.0783 465.874 96.805H466.734C466.608 97.3317 466.358 97.745 465.984 98.045C465.618 98.345 465.144 98.495 464.564 98.495ZM468.31 98.375V91.175H469.15V94.165C469.284 93.9117 469.504 93.705 469.81 93.545C470.117 93.3783 470.454 93.295 470.82 93.295C471.427 93.295 471.887 93.4783 472.2 93.845C472.52 94.2117 472.68 94.725 472.68 95.385V98.375H471.84V95.495C471.84 95.0483 471.73 94.7017 471.51 94.455C471.297 94.2083 470.997 94.085 470.61 94.085C470.344 94.085 470.1 94.145 469.88 94.265C469.66 94.385 469.484 94.5617 469.35 94.795C469.217 95.0283 469.15 95.315 469.15 95.655V98.375H468.31ZM482.553 98.495C482.106 98.495 481.706 98.3917 481.353 98.185C481.006 97.9783 480.729 97.6817 480.523 97.295C480.316 96.9017 480.213 96.435 480.213 95.895C480.213 95.355 480.316 94.8917 480.523 94.505C480.729 94.1117 481.009 93.8117 481.363 93.605C481.723 93.3983 482.119 93.295 482.553 93.295C483.166 93.295 483.656 93.4483 484.023 93.755C484.389 94.0617 484.623 94.4717 484.723 94.985H483.863C483.783 94.7117 483.629 94.495 483.403 94.335C483.176 94.1683 482.889 94.085 482.543 94.085C482.289 94.085 482.049 94.1517 481.823 94.285C481.596 94.4183 481.413 94.6183 481.273 94.885C481.133 95.1517 481.063 95.4883 481.063 95.895C481.063 96.3017 481.133 96.6417 481.273 96.915C481.413 97.1817 481.596 97.3817 481.823 97.515C482.049 97.6483 482.289 97.715 482.543 97.715C482.909 97.715 483.199 97.6317 483.413 97.465C483.633 97.2983 483.783 97.0783 483.863 96.805H484.723C484.596 97.3317 484.346 97.745 483.973 98.045C483.606 98.345 483.133 98.495 482.553 98.495ZM488.049 98.495C487.655 98.495 487.329 98.425 487.069 98.285C486.809 98.145 486.615 97.9617 486.489 97.735C486.362 97.5017 486.299 97.2483 486.299 96.975C486.299 96.4683 486.482 96.085 486.849 95.825C487.222 95.5583 487.719 95.425 488.339 95.425H489.699V95.325C489.699 94.4583 489.302 94.025 488.509 94.025C488.189 94.025 487.919 94.095 487.699 94.235C487.485 94.375 487.349 94.595 487.289 94.895H486.429C486.462 94.5617 486.572 94.275 486.759 94.035C486.952 93.795 487.199 93.6117 487.499 93.485C487.799 93.3583 488.135 93.295 488.509 93.295C489.215 93.295 489.729 93.4817 490.049 93.855C490.375 94.2217 490.539 94.7117 490.539 95.325V98.375H489.819L489.749 97.605H489.679C489.532 97.845 489.335 98.055 489.089 98.235C488.849 98.4083 488.502 98.495 488.049 98.495ZM488.199 97.755C488.519 97.755 488.789 97.6783 489.009 97.525C489.235 97.3717 489.405 97.1683 489.519 96.915C489.639 96.6617 489.699 96.385 489.699 96.085H488.409C487.955 96.085 487.635 96.1617 487.449 96.315C487.269 96.4683 487.179 96.6717 487.179 96.925C487.179 97.185 487.265 97.3883 487.439 97.535C487.612 97.6817 487.865 97.755 488.199 97.755ZM494.545 98.495C494.098 98.495 493.698 98.3917 493.345 98.185C492.998 97.9783 492.722 97.6817 492.515 97.295C492.308 96.9017 492.205 96.435 492.205 95.895C492.205 95.355 492.308 94.8917 492.515 94.505C492.722 94.1117 493.002 93.8117 493.355 93.605C493.715 93.3983 494.112 93.295 494.545 93.295C495.158 93.295 495.648 93.4483 496.015 93.755C496.382 94.0617 496.615 94.4717 496.715 94.985H495.855C495.775 94.7117 495.622 94.495 495.395 94.335C495.168 94.1683 494.882 94.085 494.535 94.085C494.282 94.085 494.042 94.1517 493.815 94.285C493.588 94.4183 493.405 94.6183 493.265 94.885C493.125 95.1517 493.055 95.4883 493.055 95.895C493.055 96.3017 493.125 96.6417 493.265 96.915C493.405 97.1817 493.588 97.3817 493.815 97.515C494.042 97.6483 494.282 97.715 494.535 97.715C494.902 97.715 495.192 97.6317 495.405 97.465C495.625 97.2983 495.775 97.0783 495.855 96.805H496.715C496.588 97.3317 496.338 97.745 495.965 98.045C495.598 98.345 495.125 98.495 494.545 98.495ZM498.291 98.375V91.175H499.131V94.165C499.264 93.9117 499.484 93.705 499.791 93.545C500.098 93.3783 500.434 93.295 500.801 93.295C501.408 93.295 501.868 93.4783 502.181 93.845C502.501 94.2117 502.661 94.725 502.661 95.385V98.375H501.821V95.495C501.821 95.0483 501.711 94.7017 501.491 94.455C501.278 94.2083 500.978 94.085 500.591 94.085C500.324 94.085 500.081 94.145 499.861 94.265C499.641 94.385 499.464 94.5617 499.331 94.795C499.198 95.0283 499.131 95.315 499.131 95.655V98.375H498.291ZM506.507 98.495C506.04 98.495 505.627 98.3883 505.267 98.175C504.914 97.955 504.634 97.6517 504.427 97.265C504.22 96.8717 504.117 96.415 504.117 95.895C504.117 95.375 504.217 94.9217 504.417 94.535C504.624 94.1417 504.907 93.8383 505.267 93.625C505.627 93.405 506.047 93.295 506.527 93.295C507.007 93.295 507.417 93.405 507.757 93.625C508.097 93.8383 508.357 94.1217 508.537 94.475C508.717 94.8283 508.807 95.2083 508.807 95.615C508.807 95.6883 508.804 95.7617 508.797 95.835C508.797 95.9083 508.797 95.9917 508.797 96.085H504.947C504.967 96.4517 505.05 96.7583 505.197 97.005C505.35 97.245 505.54 97.425 505.767 97.545C506 97.665 506.247 97.725 506.507 97.725C506.874 97.725 507.16 97.6483 507.367 97.495C507.574 97.3417 507.73 97.1283 507.837 96.855H508.667C508.554 97.315 508.317 97.705 507.957 98.025C507.597 98.3383 507.114 98.495 506.507 98.495ZM506.507 94.045C506.12 94.045 505.78 94.1617 505.487 94.395C505.2 94.6283 505.024 94.955 504.957 95.375H507.977C507.95 94.9617 507.8 94.6383 507.527 94.405C507.26 94.165 506.92 94.045 506.507 94.045Z" fill="#BD93F9"/>
</svg>
