<svg width="800" height="200" viewBox="0 0 800 200" fill="none" xmlns="http://www.w3.org/2000/svg">
<rect width="800" height="200" fill="white"/>
<rect x="134" y="20" width="100" height="100" rx="10" fill="#16181F"/>
<rect x="133" y="19" width="102" height="102" rx="11" stroke="#919CF9" stroke-opacity="0.3" stroke-width="2"/>
<path d="M163 41.2308C163 43.5672 159.194 45.4615 154.5 45.4615C149.806 45.4615 146 43.5672 146 41.2308M163 41.2308C163 38.8944 159.194 37 154.5 37C149.806 37 146 38.8944 146 41.2308M163 41.2308V52.7692C163 55.1056 159.194 57 154.5 57C149.806 57 146 55.1056 146 52.7692V41.2308M163 41.2308V45.0769M146 41.2308V45.0769M163 45.0769V48.9231C163 51.2595 159.194 53.1538 154.5 53.1538C149.806 53.1538 146 51.2595 146 48.9231V45.0769M163 45.0769C163 47.4133 159.194 49.3077 154.5 49.3077C149.806 49.3077 146 47.4133 146 45.0769" stroke="#919CF9" stroke-linecap="round" stroke-linejoin="round"/>
<path d="M147.485 84V82.905H149.87V74.595H147.485V73.5H153.515V74.595H151.13V82.905H153.515V84H147.485ZM155.849 84V73.5H157.139L161.909 81.795V73.5H163.154V84H161.849L157.079 75.705V84H155.849ZM168.593 84.18C167.853 84.18 167.208 84.04 166.658 83.76C166.118 83.48 165.698 83.09 165.398 82.59C165.108 82.09 164.958 81.505 164.948 80.835H166.268C166.278 81.435 166.478 81.955 166.868 82.395C167.268 82.825 167.843 83.04 168.593 83.04C169.283 83.04 169.813 82.875 170.183 82.545C170.563 82.205 170.753 81.8 170.753 81.33C170.753 80.94 170.663 80.615 170.483 80.355C170.303 80.085 170.008 79.85 169.598 79.65C169.198 79.44 168.658 79.225 167.978 79.005C167.018 78.715 166.318 78.32 165.878 77.82C165.438 77.32 165.218 76.7 165.218 75.96C165.218 75.46 165.348 75.01 165.608 74.61C165.868 74.21 166.243 73.895 166.733 73.665C167.223 73.435 167.818 73.32 168.518 73.32C169.178 73.32 169.753 73.445 170.243 73.695C170.743 73.935 171.128 74.275 171.398 74.715C171.678 75.155 171.818 75.66 171.818 76.23H170.498C170.498 75.95 170.423 75.675 170.273 75.405C170.123 75.135 169.898 74.91 169.598 74.73C169.298 74.55 168.918 74.46 168.458 74.46C167.908 74.46 167.448 74.595 167.078 74.865C166.708 75.125 166.523 75.485 166.523 75.945C166.523 76.295 166.603 76.59 166.763 76.83C166.933 77.07 167.208 77.29 167.588 77.49C167.968 77.68 168.483 77.885 169.133 78.105C169.743 78.305 170.263 78.54 170.693 78.81C171.133 79.07 171.468 79.395 171.698 79.785C171.938 80.175 172.058 80.66 172.058 81.24C172.058 81.81 171.913 82.315 171.623 82.755C171.333 83.195 170.928 83.545 170.408 83.805C169.888 84.055 169.283 84.18 168.593 84.18ZM174.272 84V73.5H180.827V74.64H175.532V78.135H180.377V79.275H175.532V82.86H180.827V84H174.272ZM183.207 84V73.5H186.432C187.242 73.5 187.907 73.635 188.427 73.905C188.957 74.175 189.352 74.545 189.612 75.015C189.872 75.475 190.002 76 190.002 76.59C190.002 77.28 189.822 77.89 189.462 78.42C189.112 78.94 188.572 79.305 187.842 79.515L190.122 84H188.622L186.507 79.695H186.432H184.467V84H183.207ZM184.467 78.54H186.387C187.187 78.54 187.772 78.36 188.142 78C188.522 77.63 188.712 77.16 188.712 76.59C188.712 75.99 188.527 75.515 188.157 75.165C187.797 74.815 187.202 74.64 186.372 74.64H184.467V78.54ZM194.841 84V74.64H192.021V73.5H198.921V74.64H196.101V84H194.841ZM146.99 99V98.27H148.58V92.73H146.99V92H151.01V92.73H149.42V98.27H151.01V99H146.99ZM152.566 99V92H153.426L156.606 97.53V92H157.436V99H156.566L153.386 93.47V99H152.566ZM160.572 99V92.76H158.692V92H163.292V92.76H161.412V99H160.572ZM166.988 99.12C166.422 99.12 165.935 98.97 165.528 98.67C165.122 98.37 164.808 97.95 164.588 97.41C164.375 96.8633 164.268 96.2267 164.268 95.5C164.268 94.7733 164.375 94.14 164.588 93.6C164.808 93.0533 165.122 92.63 165.528 92.33C165.935 92.03 166.422 91.88 166.988 91.88C167.555 91.88 168.042 92.03 168.448 92.33C168.855 92.63 169.165 93.0533 169.378 93.6C169.598 94.14 169.708 94.7733 169.708 95.5C169.708 96.2267 169.598 96.8633 169.378 97.41C169.165 97.95 168.855 98.37 168.448 98.67C168.042 98.97 167.555 99.12 166.988 99.12ZM166.988 98.33C167.542 98.33 167.988 98.0833 168.328 97.59C168.675 97.0967 168.848 96.4 168.848 95.5C168.848 94.6 168.675 93.9033 168.328 93.41C167.988 92.9167 167.542 92.67 166.988 92.67C166.428 92.67 165.978 92.9167 165.638 93.41C165.298 93.9033 165.128 94.6 165.128 95.5C165.128 96.4 165.298 97.0967 165.638 97.59C165.978 98.0833 166.428 98.33 166.988 98.33Z" fill="#FF79C6"/>
<path d="M178.98 99.12C178.514 99.12 178.1 99.0133 177.74 98.8C177.38 98.5867 177.097 98.2867 176.89 97.9C176.684 97.5067 176.58 97.0467 176.58 96.52C176.58 95.9933 176.684 95.5367 176.89 95.15C177.097 94.7567 177.38 94.4533 177.74 94.24C178.1 94.0267 178.514 93.92 178.98 93.92C179.447 93.92 179.86 94.0267 180.22 94.24C180.58 94.4533 180.864 94.7567 181.07 95.15C181.277 95.5367 181.38 95.9933 181.38 96.52C181.38 97.0467 181.277 97.5067 181.07 97.9C180.864 98.2867 180.58 98.5867 180.22 98.8C179.86 99.0133 179.447 99.12 178.98 99.12ZM178.98 98.32C179.267 98.32 179.527 98.2567 179.76 98.13C179.994 98.0033 180.177 97.8067 180.31 97.54C180.45 97.2733 180.52 96.9333 180.52 96.52C180.52 96.1067 180.45 95.7667 180.31 95.5C180.177 95.2333 179.994 95.0367 179.76 94.91C179.527 94.7833 179.267 94.72 178.98 94.72C178.7 94.72 178.444 94.7833 178.21 94.91C177.977 95.0367 177.79 95.2333 177.65 95.5C177.51 95.7667 177.44 96.1067 177.44 96.52C177.44 97.14 177.59 97.5967 177.89 97.89C178.19 98.1767 178.554 98.32 178.98 98.32ZM182.817 99V98.28H184.087V95.01C184.087 94.8433 184.007 94.76 183.847 94.76H182.947V94.04H184.157C184.377 94.04 184.553 94.1 184.687 94.22C184.82 94.34 184.887 94.5167 184.887 94.75V94.96H184.927C185.007 94.6267 185.157 94.37 185.377 94.19C185.603 94.01 185.917 93.92 186.317 93.92H187.227V94.81H186.197C185.79 94.81 185.477 94.9467 185.257 95.22C185.037 95.4867 184.927 95.83 184.927 96.25V98.28H186.487V99H182.817ZM190.803 99.12C190.383 99.12 190.006 99.02 189.673 98.82C189.346 98.62 189.089 98.3267 188.903 97.94C188.716 97.5467 188.623 97.07 188.623 96.51C188.623 95.9567 188.716 95.4867 188.903 95.1C189.089 94.7133 189.346 94.42 189.673 94.22C190.006 94.02 190.383 93.92 190.803 93.92C191.196 93.92 191.519 93.9967 191.773 94.15C192.033 94.3033 192.226 94.5033 192.353 94.75V91.8H193.193V99H192.503L192.413 98.23H192.353C192.219 98.5033 192.023 98.72 191.763 98.88C191.503 99.04 191.183 99.12 190.803 99.12ZM190.913 98.32C191.333 98.32 191.679 98.1733 191.953 97.88C192.226 97.58 192.363 97.1267 192.363 96.52C192.363 95.9133 192.226 95.4633 191.953 95.17C191.679 94.87 191.333 94.72 190.913 94.72C190.493 94.72 190.146 94.87 189.873 95.17C189.606 95.4633 189.473 95.9133 189.473 96.52C189.473 97.1267 189.606 97.58 189.873 97.88C190.146 98.1733 190.493 98.32 190.913 98.32ZM197.019 99.12C196.552 99.12 196.139 99.0133 195.779 98.8C195.425 98.58 195.145 98.2767 194.939 97.89C194.732 97.4967 194.629 97.04 194.629 96.52C194.629 96 194.729 95.5467 194.929 95.16C195.135 94.7667 195.419 94.4633 195.779 94.25C196.139 94.03 196.559 93.92 197.039 93.92C197.519 93.92 197.929 94.03 198.269 94.25C198.609 94.4633 198.869 94.7467 199.049 95.1C199.229 95.4533 199.319 95.8333 199.319 96.24C199.319 96.3133 199.315 96.3867 199.309 96.46C199.309 96.5333 199.309 96.6167 199.309 96.71H195.459C195.479 97.0767 195.562 97.3833 195.709 97.63C195.862 97.87 196.052 98.05 196.279 98.17C196.512 98.29 196.759 98.35 197.019 98.35C197.385 98.35 197.672 98.2733 197.879 98.12C198.085 97.9667 198.242 97.7533 198.349 97.48H199.179C199.065 97.94 198.829 98.33 198.469 98.65C198.109 98.9633 197.625 99.12 197.019 99.12ZM197.019 94.67C196.632 94.67 196.292 94.7867 195.999 95.02C195.712 95.2533 195.535 95.58 195.469 96H198.489C198.462 95.5867 198.312 95.2633 198.039 95.03C197.772 94.79 197.432 94.67 197.019 94.67ZM200.805 99V98.28H202.075V95.01C202.075 94.8433 201.995 94.76 201.835 94.76H200.935V94.04H202.145C202.365 94.04 202.542 94.1 202.675 94.22C202.808 94.34 202.875 94.5167 202.875 94.75V94.96H202.915C202.995 94.6267 203.145 94.37 203.365 94.19C203.592 94.01 203.905 93.92 204.305 93.92H205.215V94.81H204.185C203.778 94.81 203.465 94.9467 203.245 95.22C203.025 95.4867 202.915 95.83 202.915 96.25V98.28H204.475V99H200.805ZM209.011 99.12C208.378 99.12 207.864 98.9733 207.471 98.68C207.084 98.38 206.868 97.97 206.821 97.45H207.691C207.731 97.7233 207.864 97.9467 208.091 98.12C208.324 98.2933 208.638 98.38 209.031 98.38C209.404 98.38 209.681 98.3 209.861 98.14C210.048 97.98 210.141 97.7967 210.141 97.59C210.141 97.31 210.031 97.12 209.811 97.02C209.591 96.9133 209.261 96.8333 208.821 96.78C208.294 96.72 207.858 96.5767 207.511 96.35C207.164 96.1233 206.991 95.7833 206.991 95.33C206.991 94.9233 207.161 94.5867 207.501 94.32C207.841 94.0533 208.304 93.92 208.891 93.92C209.471 93.92 209.928 94.0533 210.261 94.32C210.594 94.58 210.784 94.9533 210.831 95.44H210.001C209.981 95.2 209.864 95.01 209.651 94.87C209.444 94.7233 209.184 94.65 208.871 94.65C208.544 94.65 208.291 94.7133 208.111 94.84C207.931 94.96 207.841 95.12 207.841 95.32C207.841 95.52 207.941 95.6867 208.141 95.82C208.348 95.9467 208.671 96.03 209.111 96.07C209.458 96.11 209.774 96.1767 210.061 96.27C210.348 96.3633 210.574 96.51 210.741 96.71C210.914 96.91 211.001 97.19 211.001 97.55C211.008 97.85 210.924 98.12 210.751 98.36C210.584 98.5933 210.351 98.78 210.051 98.92C209.751 99.0533 209.404 99.12 209.011 99.12Z" fill="#F8F8F2"/>
<rect x="271" y="80" width="125" height="100" rx="10" fill="#16181F"/>
<rect x="270" y="79" width="127" height="102" rx="11" stroke="#919CF9" stroke-opacity="0.3" stroke-width="2"/>
<path d="M294.25 110.75V113M286.75 106.25H286.758V106.258H286.75V106.25ZM286.75 108.5H286.758V108.508H286.75V108.5ZM286.75 110.75H286.758V110.758H286.75V110.75ZM286.75 113H286.758V113.008H286.75V113ZM289.248 106.25H289.255V106.258H289.248V106.25ZM289.248 108.5H289.255V108.508H289.248V108.5ZM289.248 110.75H289.255V110.758H289.248V110.75ZM289.248 113H289.255V113.008H289.248V113ZM291.752 106.25H291.76V106.258H291.752V106.25ZM291.752 108.5H291.76V108.508H291.752V108.5ZM291.752 110.75H291.76V110.758H291.752V110.75ZM291.752 113H291.76V113.008H291.752V113ZM294.25 106.25H294.258V106.258H294.25V106.25ZM294.25 108.5H294.258V108.508H294.25V108.5ZM286.75 101H294.25V103.25H286.75V101ZM290.5 97.25C288.608 97.25 286.742 97.36 284.907 97.572C283.807 97.7 283 98.65 283 99.757V114.5C283 115.097 283.237 115.669 283.659 116.091C284.081 116.513 284.653 116.75 285.25 116.75H295.75C296.347 116.75 296.919 116.513 297.341 116.091C297.763 115.669 298 115.097 298 114.5V99.757C298 98.649 297.194 97.7 296.093 97.572C294.236 97.357 292.369 97.2495 290.5 97.25Z" stroke="#F1FA8C" stroke-width="1.5" stroke-linecap="round" stroke-linejoin="round"/>
<path d="M287.485 143.93C286.785 143.93 286.16 143.785 285.61 143.495C285.07 143.205 284.64 142.765 284.32 142.175C284.01 141.575 283.855 140.825 283.855 139.925V133.25H285.115V139.97C285.115 140.87 285.335 141.565 285.775 142.055C286.215 142.545 286.795 142.79 287.515 142.79C288.235 142.79 288.81 142.545 289.24 142.055C289.67 141.565 289.885 140.87 289.885 139.97V133.25H291.145V139.925C291.145 140.825 290.985 141.575 290.665 142.175C290.345 142.765 289.91 143.205 289.36 143.495C288.81 143.785 288.185 143.93 287.485 143.93ZM293.164 147.05V136.31H294.184L294.334 137.54H294.424C294.614 137.14 294.919 136.805 295.339 136.535C295.759 136.265 296.254 136.13 296.824 136.13C297.424 136.13 297.964 136.28 298.444 136.58C298.934 136.88 299.319 137.325 299.599 137.915C299.879 138.495 300.019 139.205 300.019 140.045C300.019 140.875 299.874 141.58 299.584 142.16C299.304 142.74 298.914 143.18 298.414 143.48C297.924 143.78 297.359 143.93 296.719 143.93C296.149 143.93 295.664 143.81 295.264 143.57C294.874 143.32 294.594 143.03 294.424 142.7V147.05H293.164ZM296.569 142.73C297.199 142.73 297.719 142.51 298.129 142.07C298.539 141.62 298.744 140.94 298.744 140.03C298.744 139.12 298.539 138.445 298.129 138.005C297.719 137.555 297.199 137.33 296.569 137.33C295.939 137.33 295.419 137.555 295.009 138.005C294.599 138.445 294.394 139.12 294.394 140.03C294.394 140.94 294.599 141.62 295.009 142.07C295.419 142.51 295.939 142.73 296.569 142.73ZM305.233 143.93C304.603 143.93 304.038 143.78 303.538 143.48C303.048 143.18 302.663 142.74 302.383 142.16C302.103 141.57 301.963 140.855 301.963 140.015C301.963 139.185 302.103 138.48 302.383 137.9C302.663 137.32 303.048 136.88 303.538 136.58C304.038 136.28 304.603 136.13 305.233 136.13C305.823 136.13 306.308 136.245 306.688 136.475C307.078 136.705 307.368 137.005 307.558 137.375V132.95H308.818V143.75H307.783L307.648 142.595H307.558C307.358 143.005 307.063 143.33 306.673 143.57C306.283 143.81 305.803 143.93 305.233 143.93ZM305.398 142.73C306.028 142.73 306.548 142.51 306.958 142.07C307.368 141.62 307.573 140.94 307.573 140.03C307.573 139.12 307.368 138.445 306.958 138.005C306.548 137.555 306.028 137.33 305.398 137.33C304.768 137.33 304.248 137.555 303.838 138.005C303.438 138.445 303.238 139.12 303.238 140.03C303.238 140.94 303.438 141.62 303.838 142.07C304.248 142.51 304.768 142.73 305.398 142.73ZM313.852 143.93C313.262 143.93 312.772 143.825 312.382 143.615C311.992 143.405 311.702 143.13 311.512 142.79C311.322 142.44 311.227 142.06 311.227 141.65C311.227 140.89 311.502 140.315 312.052 139.925C312.612 139.525 313.357 139.325 314.287 139.325H316.327V139.175C316.327 137.875 315.732 137.225 314.542 137.225C314.062 137.225 313.657 137.33 313.327 137.54C313.007 137.75 312.802 138.08 312.712 138.53H311.422C311.472 138.03 311.637 137.6 311.917 137.24C312.207 136.88 312.577 136.605 313.027 136.415C313.477 136.225 313.982 136.13 314.542 136.13C315.602 136.13 316.372 136.41 316.852 136.97C317.342 137.52 317.587 138.255 317.587 139.175V143.75H316.507L316.402 142.595H316.297C316.077 142.955 315.782 143.27 315.412 143.54C315.052 143.8 314.532 143.93 313.852 143.93ZM314.077 142.82C314.557 142.82 314.962 142.705 315.292 142.475C315.632 142.245 315.887 141.94 316.057 141.56C316.237 141.18 316.327 140.765 316.327 140.315H314.392C313.712 140.315 313.232 140.43 312.952 140.66C312.682 140.89 312.547 141.195 312.547 141.575C312.547 141.965 312.677 142.27 312.937 142.49C313.197 142.71 313.577 142.82 314.077 142.82ZM324.257 143.75C323.577 143.75 323.042 143.585 322.652 143.255C322.262 142.925 322.067 142.33 322.067 141.47V137.39H320.177V136.31H321.302C321.812 136.31 322.107 136.06 322.187 135.56L322.397 134.405H323.327V136.31H326.297V137.39H323.327V141.47C323.327 141.89 323.422 142.185 323.612 142.355C323.812 142.525 324.152 142.61 324.632 142.61H326.297V143.75H324.257ZM332.546 143.93C331.846 143.93 331.226 143.77 330.686 143.45C330.156 143.12 329.736 142.665 329.426 142.085C329.116 141.495 328.961 140.81 328.961 140.03C328.961 139.25 329.111 138.57 329.411 137.99C329.721 137.4 330.146 136.945 330.686 136.625C331.226 136.295 331.856 136.13 332.576 136.13C333.296 136.13 333.911 136.295 334.421 136.625C334.931 136.945 335.321 137.37 335.591 137.9C335.861 138.43 335.996 139 335.996 139.61C335.996 139.72 335.991 139.83 335.981 139.94C335.981 140.05 335.981 140.175 335.981 140.315H330.206C330.236 140.865 330.361 141.325 330.581 141.695C330.811 142.055 331.096 142.325 331.436 142.505C331.786 142.685 332.156 142.775 332.546 142.775C333.096 142.775 333.526 142.66 333.836 142.43C334.146 142.2 334.381 141.88 334.541 141.47H335.786C335.616 142.16 335.261 142.745 334.721 143.225C334.181 143.695 333.456 143.93 332.546 143.93ZM332.546 137.255C331.966 137.255 331.456 137.43 331.016 137.78C330.586 138.13 330.321 138.62 330.221 139.25H334.751C334.711 138.63 334.486 138.145 334.076 137.795C333.676 137.435 333.166 137.255 332.546 137.255ZM285.94 152.91C285.74 152.91 285.573 152.843 285.44 152.71C285.307 152.577 285.24 152.417 285.24 152.23C285.24 152.037 285.307 151.877 285.44 151.75C285.573 151.617 285.74 151.55 285.94 151.55C286.133 151.55 286.297 151.617 286.43 151.75C286.57 151.877 286.64 152.037 286.64 152.23C286.64 152.417 286.57 152.577 286.43 152.71C286.297 152.843 286.133 152.91 285.94 152.91ZM284 158.75V158.03H285.58V154.76C285.58 154.593 285.497 154.51 285.33 154.51H284.17V153.79H285.53C286.123 153.79 286.42 154.087 286.42 154.68V158.03H288V158.75H284ZM289.876 158.75V153.79H290.576L290.666 154.54H290.716C290.849 154.3 291.059 154.097 291.346 153.93C291.633 153.757 291.963 153.67 292.336 153.67C292.943 153.67 293.396 153.85 293.696 154.21C294.003 154.57 294.156 155.09 294.156 155.77V158.75H293.316V155.87C293.316 155.43 293.219 155.087 293.026 154.84C292.833 154.587 292.533 154.46 292.126 154.46C291.733 154.46 291.399 154.597 291.126 154.87C290.853 155.137 290.716 155.523 290.716 156.03V158.75H289.876ZM297.502 158.75L295.322 153.79H296.282L297.992 157.83L299.712 153.79H300.662L298.472 158.75H297.502ZM304.038 158.87C303.572 158.87 303.158 158.763 302.798 158.55C302.445 158.33 302.165 158.027 301.958 157.64C301.752 157.247 301.648 156.79 301.648 156.27C301.648 155.75 301.748 155.297 301.948 154.91C302.155 154.517 302.438 154.213 302.798 154C303.158 153.78 303.578 153.67 304.058 153.67C304.538 153.67 304.948 153.78 305.288 154C305.628 154.213 305.888 154.497 306.068 154.85C306.248 155.203 306.338 155.583 306.338 155.99C306.338 156.063 306.335 156.137 306.328 156.21C306.328 156.283 306.328 156.367 306.328 156.46H302.478C302.498 156.827 302.582 157.133 302.728 157.38C302.882 157.62 303.072 157.8 303.298 157.92C303.532 158.04 303.778 158.1 304.038 158.1C304.405 158.1 304.692 158.023 304.898 157.87C305.105 157.717 305.262 157.503 305.368 157.23H306.198C306.085 157.69 305.848 158.08 305.488 158.4C305.128 158.713 304.645 158.87 304.038 158.87ZM304.038 154.42C303.652 154.42 303.312 154.537 303.018 154.77C302.732 155.003 302.555 155.33 302.488 155.75H305.508C305.482 155.337 305.332 155.013 305.058 154.78C304.792 154.54 304.452 154.42 304.038 154.42ZM307.864 158.75V153.79H308.564L308.654 154.54H308.704C308.838 154.3 309.048 154.097 309.334 153.93C309.621 153.757 309.951 153.67 310.324 153.67C310.931 153.67 311.384 153.85 311.684 154.21C311.991 154.57 312.144 155.09 312.144 155.77V158.75H311.304V155.87C311.304 155.43 311.208 155.087 311.014 154.84C310.821 154.587 310.521 154.46 310.114 154.46C309.721 154.46 309.388 154.597 309.114 154.87C308.841 155.137 308.704 155.523 308.704 156.03V158.75H307.864ZM316.5 158.75C316.047 158.75 315.69 158.64 315.43 158.42C315.17 158.2 315.04 157.803 315.04 157.23V154.51H313.78V153.79H314.53C314.87 153.79 315.067 153.623 315.12 153.29L315.26 152.52H315.88V153.79H317.86V154.51H315.88V157.23C315.88 157.51 315.944 157.707 316.07 157.82C316.204 157.933 316.43 157.99 316.75 157.99H317.86V158.75H316.5ZM321.977 158.87C321.51 158.87 321.097 158.763 320.737 158.55C320.377 158.337 320.093 158.037 319.887 157.65C319.68 157.257 319.577 156.797 319.577 156.27C319.577 155.743 319.68 155.287 319.887 154.9C320.093 154.507 320.377 154.203 320.737 153.99C321.097 153.777 321.51 153.67 321.977 153.67C322.443 153.67 322.857 153.777 323.217 153.99C323.577 154.203 323.86 154.507 324.067 154.9C324.273 155.287 324.377 155.743 324.377 156.27C324.377 156.797 324.273 157.257 324.067 157.65C323.86 158.037 323.577 158.337 323.217 158.55C322.857 158.763 322.443 158.87 321.977 158.87ZM321.977 158.07C322.263 158.07 322.523 158.007 322.757 157.88C322.99 157.753 323.173 157.557 323.307 157.29C323.447 157.023 323.517 156.683 323.517 156.27C323.517 155.857 323.447 155.517 323.307 155.25C323.173 154.983 322.99 154.787 322.757 154.66C322.523 154.533 322.263 154.47 321.977 154.47C321.697 154.47 321.44 154.533 321.207 154.66C320.973 154.787 320.787 154.983 320.647 155.25C320.507 155.517 320.437 155.857 320.437 156.27C320.437 156.89 320.587 157.347 320.887 157.64C321.187 157.927 321.55 158.07 321.977 158.07ZM325.813 158.75V158.03H327.083V154.76C327.083 154.593 327.003 154.51 326.843 154.51H325.943V153.79H327.153C327.373 153.79 327.549 153.85 327.683 153.97C327.816 154.09 327.883 154.267 327.883 154.5V154.71H327.923C328.003 154.377 328.153 154.12 328.373 153.94C328.599 153.76 328.913 153.67 329.313 153.67H330.223V154.56H329.193C328.786 154.56 328.473 154.697 328.253 154.97C328.033 155.237 327.923 155.58 327.923 156V158.03H329.483V158.75H325.813ZM332.459 160.95L333.679 158.27H333.389L331.429 153.79H332.339L333.969 157.63L335.689 153.79H336.569L333.339 160.95H332.459Z" fill="#F1FA8C"/>
<rect x="406" y="80" width="125" height="100" rx="10" fill="#16181F"/>
<rect x="405" y="79" width="127" height="102" rx="11" stroke="#919CF9" stroke-opacity="0.3" stroke-width="2"/>
<path d="M424 113C424 113.398 423.842 113.78 423.561 114.061C423.279 114.342 422.898 114.5 422.5 114.5C422.102 114.5 421.721 114.342 421.439 114.061C421.158 113.78 421 113.398 421 113M424 113C424 112.602 423.842 112.221 423.561 111.94C423.279 111.658 422.898 111.5 422.5 111.5C422.102 111.5 421.721 111.658 421.439 111.94C421.158 112.221 421 112.602 421 113M424 113H430M421 113H419.125C418.827 113 418.541 112.882 418.33 112.671C418.119 112.46 418 112.174 418 111.875V108.5M430 113H432.25M430 113V108.5M418 108.5V100.865C417.998 100.591 418.098 100.327 418.281 100.122C418.463 99.9181 418.715 99.7887 418.987 99.7592C422.32 99.4133 425.68 99.4133 429.013 99.7592C429.578 99.8172 430 100.297 430 100.865V101.823M418 108.5H430M435.25 113C435.25 113.398 435.092 113.78 434.811 114.061C434.529 114.342 434.148 114.5 433.75 114.5C433.352 114.5 432.971 114.342 432.689 114.061C432.408 113.78 432.25 113.398 432.25 113M435.25 113C435.25 112.602 435.092 112.221 434.811 111.94C434.529 111.658 434.148 111.5 433.75 111.5C433.352 111.5 432.971 111.658 432.689 111.94C432.408 112.221 432.25 112.602 432.25 113M435.25 113H436.375C436.996 113 437.504 112.496 437.465 111.876C437.264 108.574 436.152 105.392 434.252 102.683C434.071 102.43 433.835 102.22 433.561 102.071C433.287 101.922 432.983 101.837 432.672 101.823H430M430 101.823V108.5" stroke="#FF79C6" stroke-width="1.5" stroke-linecap="round" stroke-linejoin="round"/>
<path d="M422.605 141.68C421.865 141.68 421.22 141.54 420.67 141.26C420.13 140.98 419.71 140.59 419.41 140.09C419.12 139.59 418.97 139.005 418.96 138.335H420.28C420.29 138.935 420.49 139.455 420.88 139.895C421.28 140.325 421.855 140.54 422.605 140.54C423.295 140.54 423.825 140.375 424.195 140.045C424.575 139.705 424.765 139.3 424.765 138.83C424.765 138.44 424.675 138.115 424.495 137.855C424.315 137.585 424.02 137.35 423.61 137.15C423.21 136.94 422.67 136.725 421.99 136.505C421.03 136.215 420.33 135.82 419.89 135.32C419.45 134.82 419.23 134.2 419.23 133.46C419.23 132.96 419.36 132.51 419.62 132.11C419.88 131.71 420.255 131.395 420.745 131.165C421.235 130.935 421.83 130.82 422.53 130.82C423.19 130.82 423.765 130.945 424.255 131.195C424.755 131.435 425.14 131.775 425.41 132.215C425.69 132.655 425.83 133.16 425.83 133.73H424.51C424.51 133.45 424.435 133.175 424.285 132.905C424.135 132.635 423.91 132.41 423.61 132.23C423.31 132.05 422.93 131.96 422.47 131.96C421.92 131.96 421.46 132.095 421.09 132.365C420.72 132.625 420.535 132.985 420.535 133.445C420.535 133.795 420.615 134.09 420.775 134.33C420.945 134.57 421.22 134.79 421.6 134.99C421.98 135.18 422.495 135.385 423.145 135.605C423.755 135.805 424.275 136.04 424.705 136.31C425.145 136.57 425.48 136.895 425.71 137.285C425.95 137.675 426.07 138.16 426.07 138.74C426.07 139.31 425.925 139.815 425.635 140.255C425.345 140.695 424.94 141.045 424.42 141.305C423.9 141.555 423.295 141.68 422.605 141.68ZM431.614 141.68C430.944 141.68 430.344 141.525 429.814 141.215C429.294 140.905 428.879 140.46 428.569 139.88C428.259 139.29 428.104 138.59 428.104 137.78C428.104 136.97 428.259 136.275 428.569 135.695C428.879 135.105 429.299 134.655 429.829 134.345C430.369 134.035 430.964 133.88 431.614 133.88C432.534 133.88 433.269 134.11 433.819 134.57C434.369 135.03 434.719 135.645 434.869 136.415H433.579C433.459 136.005 433.229 135.68 432.889 135.44C432.549 135.19 432.119 135.065 431.599 135.065C431.219 135.065 430.859 135.165 430.519 135.365C430.179 135.565 429.904 135.865 429.694 136.265C429.484 136.665 429.379 137.17 429.379 137.78C429.379 138.39 429.484 138.9 429.694 139.31C429.904 139.71 430.179 140.01 430.519 140.21C430.859 140.41 431.219 140.51 431.599 140.51C432.149 140.51 432.584 140.385 432.904 140.135C433.234 139.885 433.459 139.555 433.579 139.145H434.869C434.679 139.935 434.304 140.555 433.744 141.005C433.194 141.455 432.484 141.68 431.614 141.68ZM437.233 141.5V130.7H438.493V135.185C438.693 134.805 439.023 134.495 439.483 134.255C439.943 134.005 440.448 133.88 440.998 133.88C441.908 133.88 442.598 134.155 443.068 134.705C443.548 135.255 443.788 136.025 443.788 137.015V141.5H442.528V137.18C442.528 136.51 442.363 135.99 442.033 135.62C441.713 135.25 441.263 135.065 440.683 135.065C440.283 135.065 439.918 135.155 439.588 135.335C439.258 135.515 438.993 135.78 438.793 136.13C438.593 136.48 438.493 136.91 438.493 137.42V141.5H437.233ZM449.557 141.68C448.857 141.68 448.237 141.52 447.697 141.2C447.167 140.87 446.747 140.415 446.437 139.835C446.127 139.245 445.972 138.56 445.972 137.78C445.972 137 446.122 136.32 446.422 135.74C446.732 135.15 447.157 134.695 447.697 134.375C448.237 134.045 448.867 133.88 449.587 133.88C450.307 133.88 450.922 134.045 451.432 134.375C451.942 134.695 452.332 135.12 452.602 135.65C452.872 136.18 453.007 136.75 453.007 137.36C453.007 137.47 453.002 137.58 452.992 137.69C452.992 137.8 452.992 137.925 452.992 138.065H447.217C447.247 138.615 447.372 139.075 447.592 139.445C447.822 139.805 448.107 140.075 448.447 140.255C448.797 140.435 449.167 140.525 449.557 140.525C450.107 140.525 450.537 140.41 450.847 140.18C451.157 139.95 451.392 139.63 451.552 139.22H452.797C452.627 139.91 452.272 140.495 451.732 140.975C451.192 141.445 450.467 141.68 449.557 141.68ZM449.557 135.005C448.977 135.005 448.467 135.18 448.027 135.53C447.597 135.88 447.332 136.37 447.232 137H451.762C451.722 136.38 451.497 135.895 451.087 135.545C450.687 135.185 450.177 135.005 449.557 135.005ZM458.222 141.68C457.592 141.68 457.027 141.53 456.527 141.23C456.037 140.93 455.652 140.49 455.372 139.91C455.092 139.32 454.952 138.605 454.952 137.765C454.952 136.935 455.092 136.23 455.372 135.65C455.652 135.07 456.037 134.63 456.527 134.33C457.027 134.03 457.592 133.88 458.222 133.88C458.812 133.88 459.297 133.995 459.677 134.225C460.067 134.455 460.357 134.755 460.547 135.125V130.7H461.807V141.5H460.772L460.637 140.345H460.547C460.347 140.755 460.052 141.08 459.662 141.32C459.272 141.56 458.792 141.68 458.222 141.68ZM458.387 140.48C459.017 140.48 459.537 140.26 459.947 139.82C460.357 139.37 460.562 138.69 460.562 137.78C460.562 136.87 460.357 136.195 459.947 135.755C459.537 135.305 459.017 135.08 458.387 135.08C457.757 135.08 457.237 135.305 456.827 135.755C456.427 136.195 456.227 136.87 456.227 137.78C456.227 138.69 456.427 139.37 456.827 139.82C457.237 140.26 457.757 140.48 458.387 140.48ZM466.946 141.68C466.046 141.68 465.366 141.41 464.906 140.87C464.446 140.33 464.216 139.55 464.216 138.53V134.06H465.476V138.38C465.476 139.04 465.621 139.56 465.911 139.94C466.211 140.31 466.661 140.495 467.261 140.495C467.861 140.495 468.366 140.295 468.776 139.895C469.186 139.485 469.391 138.9 469.391 138.14V134.06H470.651V141.5H469.601L469.466 140.375H469.391C469.191 140.735 468.876 141.045 468.446 141.305C468.016 141.555 467.516 141.68 466.946 141.68ZM473.09 141.5V140.42H475.625V132.155C475.625 131.905 475.5 131.78 475.25 131.78H473.36V130.7H475.55C475.98 130.7 476.31 130.815 476.54 131.045C476.77 131.275 476.885 131.605 476.885 132.035V140.42H479.42V141.5H473.09ZM485.534 141.68C484.834 141.68 484.214 141.52 483.674 141.2C483.144 140.87 482.724 140.415 482.414 139.835C482.104 139.245 481.949 138.56 481.949 137.78C481.949 137 482.099 136.32 482.399 135.74C482.709 135.15 483.134 134.695 483.674 134.375C484.214 134.045 484.844 133.88 485.564 133.88C486.284 133.88 486.899 134.045 487.409 134.375C487.919 134.695 488.309 135.12 488.579 135.65C488.849 136.18 488.984 136.75 488.984 137.36C488.984 137.47 488.979 137.58 488.969 137.69C488.969 137.8 488.969 137.925 488.969 138.065H483.194C483.224 138.615 483.349 139.075 483.569 139.445C483.799 139.805 484.084 140.075 484.424 140.255C484.774 140.435 485.144 140.525 485.534 140.525C486.084 140.525 486.514 140.41 486.824 140.18C487.134 139.95 487.369 139.63 487.529 139.22H488.774C488.604 139.91 488.249 140.495 487.709 140.975C487.169 141.445 486.444 141.68 485.534 141.68ZM485.534 135.005C484.954 135.005 484.444 135.18 484.004 135.53C483.574 135.88 483.309 136.37 483.209 137H487.739C487.699 136.38 487.474 135.895 487.064 135.545C486.664 135.185 486.154 135.005 485.534 135.005ZM421.05 156.62C420.417 156.62 419.903 156.474 419.51 156.18C419.123 155.88 418.907 155.47 418.86 154.95H419.73C419.77 155.224 419.903 155.447 420.13 155.62C420.363 155.794 420.677 155.88 421.07 155.88C421.443 155.88 421.72 155.8 421.9 155.64C422.087 155.48 422.18 155.297 422.18 155.09C422.18 154.81 422.07 154.62 421.85 154.52C421.63 154.414 421.3 154.334 420.86 154.28C420.333 154.22 419.897 154.077 419.55 153.85C419.203 153.624 419.03 153.284 419.03 152.83C419.03 152.424 419.2 152.087 419.54 151.82C419.88 151.554 420.343 151.42 420.93 151.42C421.51 151.42 421.967 151.554 422.3 151.82C422.633 152.08 422.823 152.454 422.87 152.94H422.04C422.02 152.7 421.903 152.51 421.69 152.37C421.483 152.224 421.223 152.15 420.91 152.15C420.583 152.15 420.33 152.214 420.15 152.34C419.97 152.46 419.88 152.62 419.88 152.82C419.88 153.02 419.98 153.187 420.18 153.32C420.387 153.447 420.71 153.53 421.15 153.57C421.497 153.61 421.813 153.677 422.1 153.77C422.387 153.864 422.613 154.01 422.78 154.21C422.953 154.41 423.04 154.69 423.04 155.05C423.047 155.35 422.963 155.62 422.79 155.86C422.623 156.094 422.39 156.28 422.09 156.42C421.79 156.554 421.443 156.62 421.05 156.62ZM424.826 156.5V149.3H425.666V152.29C425.799 152.037 426.019 151.83 426.326 151.67C426.633 151.504 426.969 151.42 427.336 151.42C427.943 151.42 428.403 151.604 428.716 151.97C429.036 152.337 429.196 152.85 429.196 153.51V156.5H428.356V153.62C428.356 153.174 428.246 152.827 428.026 152.58C427.813 152.334 427.513 152.21 427.126 152.21C426.859 152.21 426.616 152.27 426.396 152.39C426.176 152.51 425.999 152.687 425.866 152.92C425.733 153.154 425.666 153.44 425.666 153.78V156.5H424.826ZM432.932 150.66C432.732 150.66 432.566 150.594 432.432 150.46C432.299 150.327 432.232 150.167 432.232 149.98C432.232 149.787 432.299 149.627 432.432 149.5C432.566 149.367 432.732 149.3 432.932 149.3C433.126 149.3 433.289 149.367 433.422 149.5C433.562 149.627 433.632 149.787 433.632 149.98C433.632 150.167 433.562 150.327 433.422 150.46C433.289 150.594 433.126 150.66 432.932 150.66ZM430.992 156.5V155.78H432.572V152.51C432.572 152.344 432.489 152.26 432.322 152.26H431.162V151.54H432.522C433.116 151.54 433.412 151.837 433.412 152.43V155.78H434.992V156.5H430.992ZM436.768 158.7V151.54H437.448L437.548 152.36H437.608C437.735 152.094 437.938 151.87 438.218 151.69C438.498 151.51 438.828 151.42 439.208 151.42C439.608 151.42 439.968 151.52 440.288 151.72C440.615 151.92 440.872 152.217 441.058 152.61C441.245 152.997 441.338 153.47 441.338 154.03C441.338 154.584 441.242 155.054 441.048 155.44C440.862 155.827 440.602 156.12 440.268 156.32C439.942 156.52 439.565 156.62 439.138 156.62C438.758 156.62 438.435 156.54 438.168 156.38C437.908 156.214 437.722 156.02 437.608 155.8V158.7H436.768ZM439.038 155.82C439.458 155.82 439.805 155.674 440.078 155.38C440.352 155.08 440.488 154.627 440.488 154.02C440.488 153.414 440.352 152.964 440.078 152.67C439.805 152.37 439.458 152.22 439.038 152.22C438.618 152.22 438.272 152.37 437.998 152.67C437.725 152.964 437.588 153.414 437.588 154.02C437.588 154.627 437.725 155.08 437.998 155.38C438.272 155.674 438.618 155.82 439.038 155.82ZM442.354 156.5V151.54H443.044L443.134 152.12H443.184C443.271 151.92 443.401 151.754 443.574 151.62C443.754 151.487 443.971 151.42 444.224 151.42C444.478 151.42 444.691 151.484 444.864 151.61C445.044 151.73 445.174 151.9 445.254 152.12H445.294C445.381 151.92 445.521 151.754 445.714 151.62C445.908 151.487 446.141 151.42 446.414 151.42C446.794 151.42 447.078 151.55 447.264 151.81C447.458 152.064 447.554 152.404 447.554 152.83V156.5H446.734V152.96C446.734 152.72 446.684 152.53 446.584 152.39C446.491 152.25 446.338 152.18 446.124 152.18C445.904 152.18 445.724 152.264 445.584 152.43C445.444 152.597 445.374 152.834 445.374 153.14V156.5H444.544V152.96C444.544 152.72 444.498 152.53 444.404 152.39C444.311 152.25 444.158 152.18 443.944 152.18C443.724 152.18 443.541 152.264 443.394 152.43C443.254 152.597 443.184 152.834 443.184 153.14V156.5H442.354ZM451.03 156.62C450.564 156.62 450.15 156.514 449.79 156.3C449.437 156.08 449.157 155.777 448.95 155.39C448.744 154.997 448.64 154.54 448.64 154.02C448.64 153.5 448.74 153.047 448.94 152.66C449.147 152.267 449.43 151.964 449.79 151.75C450.15 151.53 450.57 151.42 451.05 151.42C451.53 151.42 451.94 151.53 452.28 151.75C452.62 151.964 452.88 152.247 453.06 152.6C453.24 152.954 453.33 153.334 453.33 153.74C453.33 153.814 453.327 153.887 453.32 153.96C453.32 154.034 453.32 154.117 453.32 154.21H449.47C449.49 154.577 449.574 154.884 449.72 155.13C449.874 155.37 450.064 155.55 450.29 155.67C450.524 155.79 450.77 155.85 451.03 155.85C451.397 155.85 451.684 155.774 451.89 155.62C452.097 155.467 452.254 155.254 452.36 154.98H453.19C453.077 155.44 452.84 155.83 452.48 156.15C452.12 156.464 451.637 156.62 451.03 156.62ZM451.03 152.17C450.644 152.17 450.304 152.287 450.01 152.52C449.724 152.754 449.547 153.08 449.48 153.5H452.5C452.474 153.087 452.324 152.764 452.05 152.53C451.784 152.29 451.444 152.17 451.03 152.17ZM454.857 156.5V151.54H455.557L455.647 152.29H455.697C455.83 152.05 456.04 151.847 456.327 151.68C456.613 151.507 456.943 151.42 457.317 151.42C457.923 151.42 458.377 151.6 458.677 151.96C458.983 152.32 459.137 152.84 459.137 153.52V156.5H458.297V153.62C458.297 153.18 458.2 152.837 458.007 152.59C457.813 152.337 457.513 152.21 457.107 152.21C456.713 152.21 456.38 152.347 456.107 152.62C455.833 152.887 455.697 153.274 455.697 153.78V156.5H454.857ZM463.493 156.5C463.039 156.5 462.683 156.39 462.423 156.17C462.163 155.95 462.033 155.554 462.033 154.98V152.26H460.773V151.54H461.523C461.863 151.54 462.059 151.374 462.113 151.04L462.253 150.27H462.873V151.54H464.853V152.26H462.873V154.98C462.873 155.26 462.936 155.457 463.063 155.57C463.196 155.684 463.423 155.74 463.743 155.74H464.853V156.5H463.493Z" fill="#FF79C6"/>
<rect x="541" y="80" width="125" height="100" rx="10" fill="#16181F"/>
<rect x="540" y="79" width="127" height="102" rx="11" stroke="#919CF9" stroke-opacity="0.3" stroke-width="2"/>
<path d="M568 109.25V106.625C568 105.73 567.644 104.871 567.011 104.239C566.379 103.606 565.52 103.25 564.625 103.25H563.125C562.827 103.25 562.54 103.131 562.33 102.92C562.119 102.71 562 102.423 562 102.125V100.625C562 99.7299 561.644 98.8714 561.011 98.2385C560.379 97.6056 559.52 97.25 558.625 97.25H556.75M560.5 106.25V113.75M562.75 107.284C561.62 106.993 560.445 106.924 559.289 107.081C558.753 107.153 558.315 107.559 558.268 108.098C558.256 108.232 558.25 108.366 558.25 108.5C558.25 108.964 558.586 109.344 559.025 109.494L561.975 110.506C562.415 110.656 562.75 111.036 562.75 111.5C562.75 111.636 562.744 111.77 562.732 111.902C562.685 112.441 562.247 112.847 561.711 112.919C560.555 113.074 559.38 113.005 558.25 112.716M559 97.25H554.125C553.504 97.25 553 97.754 553 98.375V115.625C553 116.246 553.504 116.75 554.125 116.75H566.875C567.496 116.75 568 116.246 568 115.625V106.25C568 103.863 567.052 101.574 565.364 99.886C563.676 98.1982 561.387 97.25 559 97.25Z" stroke="#50FA7B" stroke-width="1.5" stroke-linecap="round" stroke-linejoin="round"/>
<path d="M557.575 143.93C556.725 143.93 555.99 143.705 555.37 143.255C554.76 142.805 554.29 142.175 553.96 141.365C553.64 140.555 553.48 139.6 553.48 138.5C553.48 137.41 553.64 136.46 553.96 135.65C554.29 134.83 554.76 134.195 555.37 133.745C555.99 133.295 556.725 133.07 557.575 133.07C558.655 133.07 559.525 133.37 560.185 133.97C560.845 134.56 561.23 135.35 561.34 136.34H559.945C559.845 135.75 559.595 135.255 559.195 134.855C558.795 134.455 558.255 134.255 557.575 134.255C556.705 134.255 556.02 134.635 555.52 135.395C555.02 136.145 554.77 137.18 554.77 138.5C554.77 139.83 555.02 140.87 555.52 141.62C556.02 142.37 556.705 142.745 557.575 142.745C558.285 142.745 558.83 142.555 559.21 142.175C559.6 141.795 559.845 141.305 559.945 140.705H561.34C561.18 141.705 560.78 142.495 560.14 143.075C559.51 143.645 558.655 143.93 557.575 143.93ZM563.254 143.75V142.67H565.159V137.765C565.159 137.515 565.039 137.39 564.799 137.39H563.449V136.31H565.264C565.594 136.31 565.859 136.4 566.059 136.58C566.259 136.76 566.359 137.025 566.359 137.375V137.69H566.419C566.539 137.19 566.764 136.805 567.094 136.535C567.434 136.265 567.904 136.13 568.504 136.13H569.869V137.465H568.324C567.714 137.465 567.244 137.67 566.914 138.08C566.584 138.48 566.419 138.995 566.419 139.625V142.67H568.759V143.75H563.254ZM575.563 143.93C574.863 143.93 574.243 143.77 573.703 143.45C573.173 143.12 572.753 142.665 572.443 142.085C572.133 141.495 571.978 140.81 571.978 140.03C571.978 139.25 572.128 138.57 572.428 137.99C572.738 137.4 573.163 136.945 573.703 136.625C574.243 136.295 574.873 136.13 575.593 136.13C576.313 136.13 576.928 136.295 577.438 136.625C577.948 136.945 578.338 137.37 578.608 137.9C578.878 138.43 579.013 139 579.013 139.61C579.013 139.72 579.008 139.83 578.998 139.94C578.998 140.05 578.998 140.175 578.998 140.315H573.223C573.253 140.865 573.378 141.325 573.598 141.695C573.828 142.055 574.113 142.325 574.453 142.505C574.803 142.685 575.173 142.775 575.563 142.775C576.113 142.775 576.543 142.66 576.853 142.43C577.163 142.2 577.398 141.88 577.558 141.47H578.803C578.633 142.16 578.278 142.745 577.738 143.225C577.198 143.695 576.473 143.93 575.563 143.93ZM575.563 137.255C574.983 137.255 574.473 137.43 574.033 137.78C573.603 138.13 573.338 138.62 573.238 139.25H577.768C577.728 138.63 577.503 138.145 577.093 137.795C576.693 137.435 576.183 137.255 575.563 137.255ZM583.852 143.93C583.262 143.93 582.772 143.825 582.382 143.615C581.992 143.405 581.702 143.13 581.512 142.79C581.322 142.44 581.227 142.06 581.227 141.65C581.227 140.89 581.502 140.315 582.052 139.925C582.612 139.525 583.357 139.325 584.287 139.325H586.327V139.175C586.327 137.875 585.732 137.225 584.542 137.225C584.062 137.225 583.657 137.33 583.327 137.54C583.007 137.75 582.802 138.08 582.712 138.53H581.422C581.472 138.03 581.637 137.6 581.917 137.24C582.207 136.88 582.577 136.605 583.027 136.415C583.477 136.225 583.982 136.13 584.542 136.13C585.602 136.13 586.372 136.41 586.852 136.97C587.342 137.52 587.587 138.255 587.587 139.175V143.75H586.507L586.402 142.595H586.297C586.077 142.955 585.782 143.27 585.412 143.54C585.052 143.8 584.532 143.93 583.852 143.93ZM584.077 142.82C584.557 142.82 584.962 142.705 585.292 142.475C585.632 142.245 585.887 141.94 586.057 141.56C586.237 141.18 586.327 140.765 586.327 140.315H584.392C583.712 140.315 583.232 140.43 582.952 140.66C582.682 140.89 582.547 141.195 582.547 141.575C582.547 141.965 582.677 142.27 582.937 142.49C583.197 142.71 583.577 142.82 584.077 142.82ZM594.257 143.75C593.577 143.75 593.042 143.585 592.652 143.255C592.262 142.925 592.067 142.33 592.067 141.47V137.39H590.177V136.31H591.302C591.812 136.31 592.107 136.06 592.187 135.56L592.397 134.405H593.327V136.31H596.297V137.39H593.327V141.47C593.327 141.89 593.422 142.185 593.612 142.355C593.812 142.525 594.152 142.61 594.632 142.61H596.297V143.75H594.257ZM602.546 143.93C601.846 143.93 601.226 143.77 600.686 143.45C600.156 143.12 599.736 142.665 599.426 142.085C599.116 141.495 598.961 140.81 598.961 140.03C598.961 139.25 599.111 138.57 599.411 137.99C599.721 137.4 600.146 136.945 600.686 136.625C601.226 136.295 601.856 136.13 602.576 136.13C603.296 136.13 603.911 136.295 604.421 136.625C604.931 136.945 605.321 137.37 605.591 137.9C605.861 138.43 605.996 139 605.996 139.61C605.996 139.72 605.991 139.83 605.981 139.94C605.981 140.05 605.981 140.175 605.981 140.315H600.206C600.236 140.865 600.361 141.325 600.581 141.695C600.811 142.055 601.096 142.325 601.436 142.505C601.786 142.685 602.156 142.775 602.546 142.775C603.096 142.775 603.526 142.66 603.836 142.43C604.146 142.2 604.381 141.88 604.541 141.47H605.786C605.616 142.16 605.261 142.745 604.721 143.225C604.181 143.695 603.456 143.93 602.546 143.93ZM602.546 137.255C601.966 137.255 601.456 137.43 601.016 137.78C600.586 138.13 600.321 138.62 600.221 139.25H604.751C604.711 138.63 604.486 138.145 604.076 137.795C603.676 137.435 603.166 137.255 602.546 137.255ZM555.94 152.91C555.74 152.91 555.573 152.843 555.44 152.71C555.307 152.577 555.24 152.417 555.24 152.23C555.24 152.037 555.307 151.877 555.44 151.75C555.573 151.617 555.74 151.55 555.94 151.55C556.133 151.55 556.297 151.617 556.43 151.75C556.57 151.877 556.64 152.037 556.64 152.23C556.64 152.417 556.57 152.577 556.43 152.71C556.297 152.843 556.133 152.91 555.94 152.91ZM554 158.75V158.03H555.58V154.76C555.58 154.593 555.497 154.51 555.33 154.51H554.17V153.79H555.53C556.123 153.79 556.42 154.087 556.42 154.68V158.03H558V158.75H554ZM559.876 158.75V153.79H560.576L560.666 154.54H560.716C560.849 154.3 561.059 154.097 561.346 153.93C561.633 153.757 561.963 153.67 562.336 153.67C562.943 153.67 563.396 153.85 563.696 154.21C564.003 154.57 564.156 155.09 564.156 155.77V158.75H563.316V155.87C563.316 155.43 563.219 155.087 563.026 154.84C562.833 154.587 562.533 154.46 562.126 154.46C561.733 154.46 561.399 154.597 561.126 154.87C560.853 155.137 560.716 155.523 560.716 156.03V158.75H559.876ZM567.502 158.75L565.322 153.79H566.282L567.992 157.83L569.712 153.79H570.662L568.472 158.75H567.502ZM573.988 158.87C573.522 158.87 573.108 158.763 572.748 158.55C572.388 158.337 572.105 158.037 571.898 157.65C571.692 157.257 571.588 156.797 571.588 156.27C571.588 155.743 571.692 155.287 571.898 154.9C572.105 154.507 572.388 154.203 572.748 153.99C573.108 153.777 573.522 153.67 573.988 153.67C574.455 153.67 574.868 153.777 575.228 153.99C575.588 154.203 575.872 154.507 576.078 154.9C576.285 155.287 576.388 155.743 576.388 156.27C576.388 156.797 576.285 157.257 576.078 157.65C575.872 158.037 575.588 158.337 575.228 158.55C574.868 158.763 574.455 158.87 573.988 158.87ZM573.988 158.07C574.275 158.07 574.535 158.007 574.768 157.88C575.002 157.753 575.185 157.557 575.318 157.29C575.458 157.023 575.528 156.683 575.528 156.27C575.528 155.857 575.458 155.517 575.318 155.25C575.185 154.983 575.002 154.787 574.768 154.66C574.535 154.533 574.275 154.47 573.988 154.47C573.708 154.47 573.452 154.533 573.218 154.66C572.985 154.787 572.798 154.983 572.658 155.25C572.518 155.517 572.448 155.857 572.448 156.27C572.448 156.89 572.598 157.347 572.898 157.64C573.198 157.927 573.562 158.07 573.988 158.07ZM579.924 152.91C579.724 152.91 579.558 152.843 579.424 152.71C579.291 152.577 579.224 152.417 579.224 152.23C579.224 152.037 579.291 151.877 579.424 151.75C579.558 151.617 579.724 151.55 579.924 151.55C580.118 151.55 580.281 151.617 580.414 151.75C580.554 151.877 580.624 152.037 580.624 152.23C580.624 152.417 580.554 152.577 580.414 152.71C580.281 152.843 580.118 152.91 579.924 152.91ZM577.984 158.75V158.03H579.564V154.76C579.564 154.593 579.481 154.51 579.314 154.51H578.154V153.79H579.514C580.108 153.79 580.404 154.087 580.404 154.68V158.03H581.984V158.75H577.984ZM586.06 158.87C585.614 158.87 585.214 158.767 584.86 158.56C584.514 158.353 584.237 158.057 584.03 157.67C583.824 157.277 583.72 156.81 583.72 156.27C583.72 155.73 583.824 155.267 584.03 154.88C584.237 154.487 584.517 154.187 584.87 153.98C585.23 153.773 585.627 153.67 586.06 153.67C586.674 153.67 587.164 153.823 587.53 154.13C587.897 154.437 588.13 154.847 588.23 155.36H587.37C587.29 155.087 587.137 154.87 586.91 154.71C586.684 154.543 586.397 154.46 586.05 154.46C585.797 154.46 585.557 154.527 585.33 154.66C585.104 154.793 584.92 154.993 584.78 155.26C584.64 155.527 584.57 155.863 584.57 156.27C584.57 156.677 584.64 157.017 584.78 157.29C584.92 157.557 585.104 157.757 585.33 157.89C585.557 158.023 585.797 158.09 586.05 158.09C586.417 158.09 586.707 158.007 586.92 157.84C587.14 157.673 587.29 157.453 587.37 157.18H588.23C588.104 157.707 587.854 158.12 587.48 158.42C587.114 158.72 586.64 158.87 586.06 158.87ZM592.027 158.87C591.56 158.87 591.147 158.763 590.787 158.55C590.433 158.33 590.153 158.027 589.947 157.64C589.74 157.247 589.637 156.79 589.637 156.27C589.637 155.75 589.737 155.297 589.937 154.91C590.143 154.517 590.427 154.213 590.787 154C591.147 153.78 591.567 153.67 592.047 153.67C592.527 153.67 592.937 153.78 593.277 154C593.617 154.213 593.877 154.497 594.057 154.85C594.237 155.203 594.327 155.583 594.327 155.99C594.327 156.063 594.323 156.137 594.317 156.21C594.317 156.283 594.317 156.367 594.317 156.46H590.467C590.487 156.827 590.57 157.133 590.717 157.38C590.87 157.62 591.06 157.8 591.287 157.92C591.52 158.04 591.767 158.1 592.027 158.1C592.393 158.1 592.68 158.023 592.887 157.87C593.093 157.717 593.25 157.503 593.357 157.23H594.187C594.073 157.69 593.837 158.08 593.477 158.4C593.117 158.713 592.633 158.87 592.027 158.87ZM592.027 154.42C591.64 154.42 591.3 154.537 591.007 154.77C590.72 155.003 590.543 155.33 590.477 155.75H593.497C593.47 155.337 593.32 155.013 593.047 154.78C592.78 154.54 592.44 154.42 592.027 154.42Z" fill="#50FA7B"/>
<path d="M311 60.0001L311 61.0001L311 60.0001ZM321 70L322 70L322 70L321 70ZM320.293 75.7072C320.683 76.0977 321.317 76.0977 321.707 75.7072L328.071 69.3432C328.462 68.9527 328.462 68.3195 328.071 67.929C327.68 67.5385 327.047 67.5385 326.657 67.929L321 73.5858L315.343 67.929C314.953 67.5385 314.319 67.5385 313.929 67.929C313.538 68.3195 313.538 68.9527 313.929 69.3432L320.293 75.7072ZM240 61.0001L311 61.0001L311 59.0001L240 59.0001L240 61.0001ZM320 70L320 75.0001L322 75.0001L322 70L320 70ZM311 61.0001C315.971 61.0001 320 65.0295 320 70L322 70C322 63.9249 317.075 59.0001 311 59.0001L311 61.0001Z" fill="black"/>
<path d="M454.343 50.2569L454.342 51.2569L454.342 51.2569L454.343 50.2569ZM464.333 60.2478L463.333 60.2487L463.333 60.2487L464.333 60.2478ZM463.64 75.9279C464.031 76.3181 464.664 76.3175 465.055 75.9266L471.413 69.5569C471.803 69.166 471.802 68.5328 471.412 68.1427C471.021 67.7525 470.387 67.7531 469.997 68.1439L464.346 73.8059L458.684 68.1542C458.293 67.764 457.66 67.7646 457.269 68.1555C456.879 68.5464 456.88 69.1795 457.271 69.5697L463.64 75.9279ZM239.999 51.0463L454.342 51.2569L454.344 49.2569L240.001 49.0463L239.999 51.0463ZM463.333 60.2487L463.347 75.2211L465.347 75.2192L465.333 60.2469L463.333 60.2487ZM454.342 51.2569C459.306 51.2618 463.329 55.2848 463.333 60.2487L465.333 60.2469C465.328 54.1799 460.411 49.2629 454.344 49.2569L454.342 51.2569Z" fill="black"/>
<path d="M592.778 38.2688L592.774 37.2688L592.778 38.2688ZM602.817 48.2687L601.817 48.2687L601.817 48.2687L602.817 48.2687ZM602.11 75.7071C602.5 76.0976 603.133 76.0976 603.524 75.7071L609.888 69.3431C610.278 68.9526 610.278 68.3195 609.888 67.9289C609.497 67.5384 608.864 67.5384 608.474 67.9289L602.817 73.5858L597.16 67.9289C596.769 67.5384 596.136 67.5384 595.746 67.9289C595.355 68.3195 595.355 68.9526 595.746 69.3431L602.11 75.7071ZM240.004 40.6387L592.782 39.2688L592.774 37.2688L239.996 38.6387L240.004 40.6387ZM601.817 48.2687L601.817 75L603.817 75L603.817 48.2687L601.817 48.2687ZM592.782 39.2688C597.766 39.2494 601.817 43.2845 601.817 48.2687L603.817 48.2687C603.817 42.1769 598.866 37.2451 592.774 37.2688L592.782 39.2688Z" fill="black"/>
</svg>
