<svg width="800" height="140" viewBox="0 0 800 140" fill="none" xmlns="http://www.w3.org/2000/svg">
<g id="send-with-sequin">
<g id="Group 2">
<g id="insert">
<rect x="134" y="20" width="100" height="100" rx="10" fill="#16181F"/>
<rect x="133" y="19" width="102" height="102" rx="11" stroke="#919CF9" stroke-opacity="0.3" stroke-width="2"/>
<path id="Vector" d="M163 41.2308C163 43.5672 159.194 45.4615 154.5 45.4615C149.806 45.4615 146 43.5672 146 41.2308M163 41.2308C163 38.8944 159.194 37 154.5 37C149.806 37 146 38.8944 146 41.2308M163 41.2308V52.7692C163 55.1056 159.194 57 154.5 57C149.806 57 146 55.1056 146 52.7692V41.2308M163 41.2308V45.0769M146 41.2308V45.0769M163 45.0769V48.9231C163 51.2595 159.194 53.1538 154.5 53.1538C149.806 53.1538 146 51.2595 146 48.9231V45.0769M163 45.0769C163 47.4133 159.194 49.3077 154.5 49.3077C149.806 49.3077 146 47.4133 146 45.0769" stroke="#919CF9" stroke-linecap="round" stroke-linejoin="round"/>
<g id="Code snippet">
<text fill="#FF79C6" xml:space="preserve" style="white-space: pre" font-family="DM Mono" font-size="15" letter-spacing="0em"><tspan x="146" y="83.615">INSERT&#10;</tspan></text>
<text fill="#F8F8F2" xml:space="preserve" style="white-space: pre" font-family="DM Mono" font-size="10" letter-spacing="0em"><tspan x="169.984" y="98.615"> users</tspan></text>
<text fill="#FF79C6" xml:space="preserve" style="white-space: pre" font-family="DM Mono" font-size="10" letter-spacing="0em"><tspan x="146" y="98.615">INTO</tspan></text>
</g>
</g>
<g id="wal">
<rect x="231" y="104" width="62" height="25" rx="10" transform="rotate(-90 231 104)" fill="#919CF9" fill-opacity="0.7"/>
<text id="W A L" fill="white" xml:space="preserve" style="white-space: pre" font-family="DM Mono" font-size="10" font-weight="500" letter-spacing="0em"><tspan x="240.502" y="66.41">W&#10;</tspan><tspan x="240.502" y="76.41">A&#10;</tspan><tspan x="240.502" y="86.41">L</tspan></text>
</g>
</g>
<path id="arrow" d="M322.707 70.7071C323.098 70.3166 323.098 69.6834 322.707 69.2929L316.343 62.9289C315.953 62.5384 315.319 62.5384 314.929 62.9289C314.538 63.3195 314.538 63.9526 314.929 64.3431L320.586 70L314.929 75.6569C314.538 76.0474 314.538 76.6805 314.929 77.0711C315.319 77.4616 315.953 77.4616 316.343 77.0711L322.707 70.7071ZM266 71H322V69H266V71Z" fill="black" class="dark:fill-white"/>
<g id="event">
<rect x="332" y="20" width="125" height="100" rx="10" fill="#16181F"/>
<rect x="331" y="19" width="127" height="102" rx="11" stroke="#919CF9" stroke-opacity="0.3" stroke-width="2"/>
<g id="NEW Sequin Logo - WHITE 2" clip-path="url(#clip0_70_2)">
<path id="Vector_2" d="M358.543 46.1318C358.543 38.0429 347.957 40.8867 347.957 36.7158C347.957 35.0095 349.264 34.0616 351.224 34.0616C353.25 34.0616 354.557 35.1359 354.557 37.0002H358.445C358.445 33.1769 355.439 30.5859 351.224 30.5859C347.075 30.5859 344.102 33.0505 344.102 36.7158C344.102 44.6152 354.622 41.2342 354.622 46.1318C354.622 47.9329 353.38 48.9124 351.355 48.9124C349.264 48.9124 347.957 47.8381 347.957 45.9738H344.069C344.069 49.7971 347.107 52.3881 351.355 52.3881C355.537 52.3881 358.543 49.8603 358.543 46.1318ZM376.914 44.1728C376.914 39.37 373.385 35.9574 368.419 35.9574C363.453 35.9574 359.924 39.37 359.924 44.1728C359.924 49.0072 363.453 52.3881 368.419 52.3881C372.078 52.3881 375.28 50.6187 376.195 47.6169H372.013C371.196 48.786 369.889 49.1652 368.419 49.1652C366.001 49.1652 364.302 47.8065 363.779 45.5631H376.783C376.848 45.1207 376.914 44.6467 376.914 44.1728ZM368.419 39.1804C370.673 39.1804 372.34 40.4127 372.895 42.4665H363.878C364.466 40.4127 366.132 39.1804 368.419 39.1804ZM386.638 35.9574C381.671 35.9574 378.143 39.3384 378.143 44.1728C378.143 48.9756 381.671 52.3881 386.638 52.3881C388.5 52.3881 390.101 51.7878 391.342 50.7451V57.4438H395.132V36.2734H391.342V37.6005C390.101 36.5262 388.5 35.9574 386.638 35.9574ZM386.638 39.3068C389.48 39.3068 391.342 41.2342 391.342 44.1728C391.342 47.1114 389.48 49.0388 386.638 49.0388C383.762 49.0388 381.868 47.1114 381.868 44.1728C381.868 41.2342 383.762 39.3068 386.638 39.3068ZM397.199 45.7527C397.199 49.6392 399.911 52.3881 403.767 52.3881C405.368 52.3881 406.74 51.8194 407.753 50.8398V52.0722H411.477V36.2734H407.753V45.7527C407.753 47.7117 406.38 49.0388 404.355 49.0388C402.329 49.0388 400.957 47.7117 400.957 45.7527V36.2734H397.199V45.7527ZM413.6 34.3776H417.39V30.9019H413.6V34.3776ZM413.6 52.0722H417.39V36.2734H413.6V52.0722ZM419.471 52.0722H423.261V42.5929C423.261 40.6339 424.568 39.3068 426.659 39.3068C428.652 39.3068 430.024 40.6339 430.024 42.5929V52.0722H433.782V42.5929C433.782 38.7064 431.07 35.9574 427.214 35.9574C425.646 35.9574 424.274 36.4946 423.261 37.4741V36.2734H419.471V52.0722Z" fill="white"/>
</g>
<text id="Code snippet_2" fill="#BD93F9" xml:space="preserve" style="white-space: pre" font-family="DM Mono" font-size="14" letter-spacing="0em"><tspan x="344" y="82.7276">Capture &#38; </tspan><tspan x="344" y="103.728">Send Webhook</tspan></text>
</g>
<path id="arrow_2" d="M523.707 70.7071C524.098 70.3166 524.098 69.6834 523.707 69.2929L517.343 62.9289C516.953 62.5384 516.319 62.5384 515.929 62.9289C515.538 63.3195 515.538 63.9526 515.929 64.3431L521.586 70L515.929 75.6569C515.538 76.0474 515.538 76.6805 515.929 77.0711C516.319 77.4616 516.953 77.4616 517.343 77.0711L523.707 70.7071ZM467 71H523V69H467V71Z" fill="black" class="dark:fill-white"/>
<g id="event_2">
<rect x="533" y="20" width="133" height="100" rx="10" fill="#16181F"/>
<rect x="532" y="19" width="135" height="102" rx="11" stroke="#919CF9" stroke-opacity="0.3" stroke-width="2"/>
<g id="Logo.svg" clip-path="url(#clip1_70_2)">
<path id="Vector_3" d="M599.623 35.75C595.398 35.75 592.353 38.55 592.353 42.8C592.353 47.05 595.791 49.85 600.016 49.85C602.57 49.85 604.83 48.8 606.205 47.1L603.258 45.35C602.472 46.2 601.293 46.7 599.967 46.7C598.149 46.7 596.577 45.7 595.988 44.15H606.745C606.844 43.7 606.893 43.25 606.893 42.8C606.893 38.55 603.847 35.75 599.623 35.75ZM595.988 41.4C596.479 39.85 597.756 38.85 599.623 38.85C601.44 38.85 602.767 39.85 603.258 41.4H595.988ZM595.104 31.45L584.493 50.2L573.834 31.45H577.813L584.444 43.15L591.125 31.45H595.104ZM559.196 29.5L573.392 54.5H545L559.196 29.5ZM622.317 42.8C622.317 45.15 623.84 46.7 626.148 46.7C627.72 46.7 628.899 45.95 629.538 44.8L632.485 46.55C631.257 48.6 628.997 49.85 626.148 49.85C621.924 49.85 618.878 47.05 618.878 42.8C618.878 38.55 621.924 35.75 626.148 35.75C628.948 35.75 631.257 37 632.485 39.05L629.538 40.8C628.948 39.6 627.72 38.9 626.148 38.9C623.84 38.9 622.317 40.45 622.317 42.8ZM654 31.45V49.4H650.562V31.45H654ZM640.934 35.75C636.709 35.75 633.664 38.55 633.664 42.8C633.664 47.05 637.102 49.85 641.327 49.85C643.881 49.85 646.141 48.8 647.516 47.1L644.569 45.35C643.783 46.2 642.604 46.7 641.278 46.7C639.46 46.7 637.888 45.7 637.299 44.15H648.056C648.155 43.7 648.204 43.25 648.204 42.8C648.253 38.55 645.158 35.75 640.934 35.75ZM637.299 41.4C637.79 39.85 639.067 38.85 640.934 38.85C642.8 38.85 644.078 39.85 644.569 41.4H637.299ZM617.749 36.15V39.95C617.356 39.85 616.963 39.75 616.521 39.75C614.31 39.75 612.689 41.3 612.689 43.65V49.45H609.251V36.15H612.689V39.75C612.689 37.75 614.949 36.15 617.749 36.15Z" fill="white"/>
</g>
<text id="Code snippet_3" fill="#50FA7B" xml:space="preserve" style="white-space: pre" font-family="DM Mono" font-size="15" letter-spacing="0em"><tspan x="545" y="81.115">Process &#10;</tspan><tspan x="545" y="104.115">user</tspan></text>
</g>
</g>
<defs>
<clipPath id="clip0_70_2">
<rect width="90" height="26.9072" fill="white" transform="translate(344 30.5464)"/>
</clipPath>
<clipPath id="clip1_70_2">
<rect width="109" height="25" fill="white" transform="translate(545 29.5)"/>
</clipPath>
</defs>
<style>
@media (prefers-color-scheme: dark) {
  .dark\:fill-white {
    fill: white;
  }
}
</style>
</svg>
