<svg width="800" height="140" viewBox="0 0 800 140" fill="none" xmlns="http://www.w3.org/2000/svg">
<g id="replicate">
<g id="Group 6">
<g id="insert">
<rect x="144.5" y="20" width="100" height="100" rx="10" fill="#16181F"/>
<rect x="143.5" y="19" width="102" height="102" rx="11" stroke="#919CF9" stroke-opacity="0.3" stroke-width="2"/>
<path id="Vector" d="M173.5 33.7308C173.5 36.0672 169.694 37.9615 165 37.9615C160.306 37.9615 156.5 36.0672 156.5 33.7308M173.5 33.7308C173.5 31.3944 169.694 29.5 165 29.5C160.306 29.5 156.5 31.3944 156.5 33.7308M173.5 33.7308V45.2692C173.5 47.6056 169.694 49.5 165 49.5C160.306 49.5 156.5 47.6056 156.5 45.2692V33.7308M173.5 33.7308V37.5769M156.5 33.7308V37.5769M173.5 37.5769V41.4231C173.5 43.7595 169.694 45.6538 165 45.6538C160.306 45.6538 156.5 43.7595 156.5 41.4231V37.5769M173.5 37.5769C173.5 39.9133 169.694 41.8077 165 41.8077C160.306 41.8077 156.5 39.9133 156.5 37.5769" stroke="#919CF9" stroke-linecap="round" stroke-linejoin="round"/>
<g id="Code snippet">
<text fill="#FF79C6" xml:space="preserve" style="white-space: pre" font-family="DM Mono" font-size="15" letter-spacing="0em"><tspan x="156.5" y="76.115">Update&#10;</tspan></text>
<text fill="#F8F8F2" xml:space="preserve" style="white-space: pre" font-family="DM Mono" font-size="10" letter-spacing="0em"><tspan x="156.5" y="91.115">products&#10;</tspan><tspan x="174.488" y="106.115"> </tspan></text>
<text fill="#FF79C6" xml:space="preserve" style="white-space: pre" font-family="DM Mono" font-size="10" letter-spacing="0em"><tspan x="156.5" y="106.115">set</tspan></text>
</g>
</g>
<g id="wal">
<rect x="240.5" y="101" width="62" height="25" rx="10" transform="rotate(-90 240.5 101)" fill="#919CF9" fill-opacity="0.7"/>
<text id="W A L" fill="white" xml:space="preserve" style="white-space: pre" font-family="DM Mono" font-size="10" font-weight="500" letter-spacing="0em"><tspan x="250.002" y="63.41">W&#10;</tspan><tspan x="250.002" y="73.41">A&#10;</tspan><tspan x="250.002" y="83.41">L</tspan></text>
</g>
</g>
<path id="Arrow 9" d="M332.207 70.7071C332.598 70.3166 332.598 69.6834 332.207 69.2929L325.843 62.9289C325.453 62.5384 324.819 62.5384 324.429 62.9289C324.038 63.3195 324.038 63.9526 324.429 64.3431L330.086 70L324.429 75.6569C324.038 76.0474 324.038 76.6805 324.429 77.0711C324.819 77.4616 325.453 77.4616 325.843 77.0711L332.207 70.7071ZM275.5 71H331.5V69H275.5V71Z" fill="black" class="dark:fill-white"/>
<path id="Sequin" d="M359.731 72.7588C359.731 62.2176 346.397 65.9235 346.397 60.4882C346.397 58.2647 348.043 57.0294 350.513 57.0294C353.064 57.0294 354.71 58.4294 354.71 60.8588H359.607C359.607 55.8765 355.821 52.5 350.513 52.5C345.286 52.5 341.541 55.7118 341.541 60.4882C341.541 70.7823 354.793 66.3765 354.793 72.7588C354.793 75.1058 353.229 76.3823 350.677 76.3823C348.043 76.3823 346.397 74.9823 346.397 72.5529H341.5C341.5 77.5352 345.327 80.9117 350.677 80.9117C355.945 80.9117 359.731 77.6176 359.731 72.7588ZM382.871 70.2058C382.871 63.9471 378.426 59.5 372.171 59.5C365.916 59.5 361.471 63.9471 361.471 70.2058C361.471 76.5059 365.916 80.9117 372.171 80.9117C376.78 80.9117 380.813 78.6058 381.965 74.6941H376.698C375.669 76.2176 374.023 76.7117 372.171 76.7117C369.125 76.7117 366.986 74.9411 366.327 72.0176H382.706C382.788 71.4411 382.871 70.8235 382.871 70.2058ZM372.171 63.7C375.01 63.7 377.109 65.3059 377.809 67.9823H366.451C367.191 65.3059 369.29 63.7 372.171 63.7ZM395.119 59.5C388.863 59.5 384.419 63.9059 384.419 70.2058C384.419 76.4647 388.863 80.9117 395.119 80.9117C397.464 80.9117 399.481 80.1294 401.045 78.7706V87.5H405.818V59.9118H401.045V61.6412C399.481 60.2412 397.464 59.5 395.119 59.5ZM395.119 63.8647C398.699 63.8647 401.045 66.3765 401.045 70.2058C401.045 74.0353 398.699 76.547 395.119 76.547C391.497 76.547 389.11 74.0353 389.11 70.2058C389.11 66.3765 391.497 63.8647 395.119 63.8647ZM408.422 72.2647C408.422 77.3294 411.838 80.9117 416.694 80.9117C418.711 80.9117 420.439 80.1705 421.715 78.8941V80.5H426.406V59.9118H421.715V72.2647C421.715 74.8176 419.986 76.547 417.435 76.547C414.883 76.547 413.155 74.8176 413.155 72.2647V59.9118H408.422V72.2647ZM429.08 57.4412H433.854V52.9118H429.08V57.4412ZM429.08 80.5H433.854V59.9118H429.08V80.5ZM436.475 80.5H441.249V68.147C441.249 65.5941 442.895 63.8647 445.529 63.8647C448.039 63.8647 449.767 65.5941 449.767 68.147V80.5H454.5V68.147C454.5 63.0823 451.084 59.5 446.228 59.5C444.253 59.5 442.524 60.2 441.249 61.4765V59.9118H436.475V80.5Z" fill="black" class="dark:fill-white"/>
<path id="Arrow 10" d="M521.207 70.7071C521.598 70.3166 521.598 69.6834 521.207 69.2929L514.843 62.9289C514.453 62.5384 513.819 62.5384 513.429 62.9289C513.038 63.3195 513.038 63.9526 513.429 64.3431L519.086 70L513.429 75.6569C513.038 76.0474 513.038 76.6805 513.429 77.0711C513.819 77.4616 514.453 77.4616 514.843 77.0711L521.207 70.7071ZM464.5 71H520.5V69H464.5V71Z" fill="black" class="dark:fill-white"/>
<g id="event">
<g id="insert_2">
<rect x="530.5" y="20" width="125" height="100" rx="10" fill="#16181F"/>
<rect x="529.5" y="19" width="127" height="102" rx="11" stroke="#919CF9" stroke-opacity="0.3" stroke-width="2"/>
<path id="Vector_2" d="M557.5 49.625V47C557.5 46.1049 557.144 45.2465 556.511 44.6135C555.879 43.9806 555.02 43.625 554.125 43.625H552.625C552.327 43.625 552.04 43.5065 551.83 43.2955C551.619 43.0845 551.5 42.7984 551.5 42.5V41C551.5 40.1049 551.144 39.2464 550.511 38.6135C549.879 37.9806 549.02 37.625 548.125 37.625H546.25M551.481 51.106L553 52.625M551.481 51.106C551.725 50.8622 551.918 50.573 552.05 50.2545C552.182 49.9361 552.25 49.5947 552.25 49.25C552.25 48.5538 551.973 47.8861 551.481 47.3938C550.989 46.9016 550.321 46.625 549.625 46.625C548.929 46.625 548.261 46.9016 547.769 47.3938C547.277 47.8861 547 48.5538 547 49.25C547 49.5947 547.068 49.9361 547.2 50.2545C547.332 50.573 547.525 50.8624 547.769 51.1062C548.013 51.3499 548.302 51.5433 548.62 51.6752C548.939 51.8071 549.28 51.875 549.625 51.875C549.97 51.875 550.311 51.8071 550.63 51.6752C550.948 51.5433 551.237 51.3498 551.481 51.106ZM548.5 37.625H543.625C543.004 37.625 542.5 38.129 542.5 38.75V55.25C542.5 55.871 543.004 56.375 543.625 56.375H556.375C556.996 56.375 557.5 55.871 557.5 55.25V46.625C557.5 44.2381 556.552 41.9489 554.864 40.261C553.176 38.5732 550.887 37.625 548.5 37.625Z" stroke="#BD93F9" stroke-width="1.5" stroke-linecap="round" stroke-linejoin="round"/>
<g id="Code snippet_2">
<text fill="#BD93F9" xml:space="preserve" style="white-space: pre" font-family="DM Mono" font-size="10" letter-spacing="0em"><tspan x="542.5" y="97.99">search cache</tspan></text>
<text fill="#BD93F9" xml:space="preserve" style="white-space: pre" font-family="DM Mono" font-size="15" letter-spacing="0em"><tspan x="542.5" y="82.99">Invalidate&#10;</tspan></text>
</g>
</g>
</g>
</g>
<style>
@media (prefers-color-scheme: dark) {
  .dark\:fill-white {
    fill: white;
  }
}
</style>
</svg>
