<svg width="800" height="140" viewBox="0 0 800 140" fill="none" xmlns="http://www.w3.org/2000/svg">
<g id="send-with-sequin">
<g id="Group 2">
<g id="insert">
<rect x="144" y="20" width="100" height="100" rx="10" fill="#16181F"/>
<rect x="143" y="19" width="102" height="102" rx="11" stroke="#919CF9" stroke-opacity="0.3" stroke-width="2"/>
<path id="Sequin" d="M173 41.2308C173 43.5672 169.194 45.4615 164.5 45.4615C159.806 45.4615 156 43.5672 156 41.2308M173 41.2308C173 38.8944 169.194 37 164.5 37C159.806 37 156 38.8944 156 41.2308M173 41.2308V52.7692C173 55.1056 169.194 57 164.5 57C159.806 57 156 55.1056 156 52.7692V41.2308M173 41.2308V45.0769M156 41.2308V45.0769M173 45.0769V48.9231C173 51.2595 169.194 53.1538 164.5 53.1538C159.806 53.1538 156 51.2595 156 48.9231V45.0769M173 45.0769C173 47.4133 169.194 49.3077 164.5 49.3077C159.806 49.3077 156 47.4133 156 45.0769" stroke="#919CF9" stroke-linecap="round" stroke-linejoin="round"/>
<g id="Code snippet">
<text fill="#FF79C6" xml:space="preserve" style="white-space: pre" font-family="DM Mono" font-size="15" letter-spacing="0em"><tspan x="156" y="83.615">INSERT&#10;</tspan></text>
<text fill="#F8F8F2" xml:space="preserve" style="white-space: pre" font-family="DM Mono" font-size="10" letter-spacing="0em"><tspan x="179.984" y="98.615"> users</tspan></text>
<text fill="#FF79C6" xml:space="preserve" style="white-space: pre" font-family="DM Mono" font-size="10" letter-spacing="0em"><tspan x="156" y="98.615">INTO</tspan></text>
</g>
</g>
<g id="wal">
<rect x="241" y="104" width="62" height="25" rx="10" transform="rotate(-90 241 104)" fill="#919CF9" fill-opacity="0.7"/>
<text id="W A L" fill="white" xml:space="preserve" style="white-space: pre" font-family="DM Mono" font-size="10" font-weight="500" letter-spacing="0em"><tspan x="250.502" y="66.41">W&#10;</tspan><tspan x="250.502" y="76.41">A&#10;</tspan><tspan x="250.502" y="86.41">L</tspan></text>
</g>
</g>
<path id="arrow" d="M332.707 70.7071C333.098 70.3166 333.098 69.6834 332.707 69.2929L326.343 62.9289C325.953 62.5384 325.319 62.5384 324.929 62.9289C324.538 63.3195 324.538 63.9526 324.929 64.3431L330.586 70L324.929 75.6569C324.538 76.0474 324.538 76.6805 324.929 77.0711C325.319 77.4616 325.953 77.4616 326.343 77.0711L332.707 70.7071ZM276 71H332V69H276V71Z" fill="black" class="dark:fill-white"/>
<path id="Vector_2" d="M360.231 72.7588C360.231 62.2176 346.897 65.9235 346.897 60.4882C346.897 58.2647 348.543 57.0294 351.013 57.0294C353.564 57.0294 355.21 58.4294 355.21 60.8588H360.107C360.107 55.8765 356.321 52.5 351.013 52.5C345.786 52.5 342.041 55.7118 342.041 60.4882C342.041 70.7823 355.293 66.3765 355.293 72.7588C355.293 75.1058 353.729 76.3823 351.177 76.3823C348.543 76.3823 346.897 74.9823 346.897 72.5529H342C342 77.5352 345.827 80.9117 351.177 80.9117C356.445 80.9117 360.231 77.6176 360.231 72.7588ZM383.371 70.2058C383.371 63.9471 378.926 59.5 372.671 59.5C366.416 59.5 361.971 63.9471 361.971 70.2058C361.971 76.5059 366.416 80.9117 372.671 80.9117C377.28 80.9117 381.313 78.6058 382.465 74.6941H377.198C376.169 76.2176 374.523 76.7117 372.671 76.7117C369.625 76.7117 367.486 74.9411 366.827 72.0176H383.206C383.288 71.4411 383.371 70.8235 383.371 70.2058ZM372.671 63.7C375.51 63.7 377.609 65.3059 378.309 67.9823H366.951C367.691 65.3059 369.79 63.7 372.671 63.7ZM395.619 59.5C389.363 59.5 384.919 63.9059 384.919 70.2058C384.919 76.4647 389.363 80.9117 395.619 80.9117C397.964 80.9117 399.981 80.1294 401.545 78.7706V87.5H406.318V59.9118H401.545V61.6412C399.981 60.2412 397.964 59.5 395.619 59.5ZM395.619 63.8647C399.199 63.8647 401.545 66.3765 401.545 70.2058C401.545 74.0353 399.199 76.547 395.619 76.547C391.997 76.547 389.61 74.0353 389.61 70.2058C389.61 66.3765 391.997 63.8647 395.619 63.8647ZM408.922 72.2647C408.922 77.3294 412.338 80.9117 417.194 80.9117C419.211 80.9117 420.939 80.1705 422.215 78.8941V80.5H426.906V59.9118H422.215V72.2647C422.215 74.8176 420.486 76.547 417.935 76.547C415.383 76.547 413.655 74.8176 413.655 72.2647V59.9118H408.922V72.2647ZM429.58 57.4412H434.354V52.9118H429.58V57.4412ZM429.58 80.5H434.354V59.9118H429.58V80.5ZM436.975 80.5H441.749V68.147C441.749 65.5941 443.395 63.8647 446.029 63.8647C448.539 63.8647 450.267 65.5941 450.267 68.147V80.5H455V68.147C455 63.0823 451.584 59.5 446.728 59.5C444.753 59.5 443.024 60.2 441.749 61.4765V59.9118H436.975V80.5Z" fill="black" class="dark:fill-white"/>
<path id="arrow_2" d="M521.707 70.7071C522.098 70.3166 522.098 69.6834 521.707 69.2929L515.343 62.9289C514.953 62.5384 514.319 62.5384 513.929 62.9289C513.538 63.3195 513.538 63.9526 513.929 64.3431L519.586 70L513.929 75.6569C513.538 76.0474 513.538 76.6805 513.929 77.0711C514.319 77.4616 514.953 77.4616 515.343 77.0711L521.707 70.7071ZM465 71H521V69H465V71Z" fill="black" class="dark:fill-white"/>
<g id="event">
<rect x="531" y="20" width="125" height="100" rx="10" fill="#16181F"/>
<rect x="530" y="19" width="127" height="102" rx="11" stroke="#919CF9" stroke-opacity="0.3" stroke-width="2"/>
<path id="Vector_3" d="M562.5 41.75V52.25C562.5 52.8467 562.263 53.419 561.841 53.841C561.419 54.2629 560.847 54.5 560.25 54.5H545.25C544.653 54.5 544.081 54.2629 543.659 53.841C543.237 53.419 543 52.8467 543 52.25V41.75M562.5 41.75C562.5 41.1533 562.263 40.581 561.841 40.159C561.419 39.7371 560.847 39.5 560.25 39.5H545.25C544.653 39.5 544.081 39.7371 543.659 40.159C543.237 40.581 543 41.1533 543 41.75M562.5 41.75V41.993C562.5 42.3771 562.402 42.7549 562.214 43.0903C562.027 43.4257 561.757 43.7075 561.43 43.909L553.93 48.524C553.575 48.7425 553.167 48.8582 552.75 48.8582C552.333 48.8582 551.925 48.7425 551.57 48.524L544.07 43.91C543.743 43.7085 543.473 43.4267 543.286 43.0913C543.098 42.7559 543 42.3781 543 41.994V41.75" stroke="#8BE9FD" stroke-width="2" stroke-linecap="round" stroke-linejoin="round"/>
<g id="Code snippet_2">
<text fill="#8BE9FD" xml:space="preserve" style="white-space: pre" font-family="DM Mono" font-size="10" letter-spacing="0em"><tspan x="543" y="96.115">welcome email</tspan></text>
<text fill="#8BE9FD" xml:space="preserve" style="white-space: pre" font-family="DM Mono" font-size="15" letter-spacing="0em"><tspan x="543" y="81.115">SEND&#10;</tspan></text>
</g>
</g>
</g>
<style>
@media (prefers-color-scheme: dark) {
  .dark\:fill-white {
    fill: white;
  }
}
</style>
</svg>
