<svg width="800" height="140" viewBox="0 0 800 140" fill="none" xmlns="http://www.w3.org/2000/svg">
<g id="send-with-sequin">
<g id="Group 2">
<g id="insert">
<rect x="136.5" y="20" width="100" height="100" rx="10" fill="#16181F"/>
<rect x="135.5" y="19" width="102" height="102" rx="11" stroke="#919CF9" stroke-opacity="0.3" stroke-width="2"/>
<path id="Vector" d="M165.5 41.2308C165.5 43.5672 161.694 45.4615 157 45.4615C152.306 45.4615 148.5 43.5672 148.5 41.2308M165.5 41.2308C165.5 38.8944 161.694 37 157 37C152.306 37 148.5 38.8944 148.5 41.2308M165.5 41.2308V52.7692C165.5 55.1056 161.694 57 157 57C152.306 57 148.5 55.1056 148.5 52.7692V41.2308M165.5 41.2308V45.0769M148.5 41.2308V45.0769M165.5 45.0769V48.9231C165.5 51.2595 161.694 53.1538 157 53.1538C152.306 53.1538 148.5 51.2595 148.5 48.9231V45.0769M165.5 45.0769C165.5 47.4133 161.694 49.3077 157 49.3077C152.306 49.3077 148.5 47.4133 148.5 45.0769" stroke="#919CF9" stroke-linecap="round" stroke-linejoin="round"/>
<g id="Code snippet">
<text fill="#FF79C6" xml:space="preserve" style="white-space: pre" font-family="DM Mono" font-size="15" letter-spacing="0em"><tspan x="148.5" y="83.615">INSERT&#10;</tspan></text>
<text fill="#F8F8F2" xml:space="preserve" style="white-space: pre" font-family="DM Mono" font-size="10" letter-spacing="0em"><tspan x="172.484" y="98.615"> users</tspan></text>
<text fill="#FF79C6" xml:space="preserve" style="white-space: pre" font-family="DM Mono" font-size="10" letter-spacing="0em"><tspan x="148.5" y="98.615">INTO</tspan></text>
</g>
</g>
<g id="wal">
<rect x="233.5" y="104" width="62" height="25" rx="10" transform="rotate(-90 233.5 104)" fill="#919CF9" fill-opacity="0.7"/>
<text id="W A L" fill="white" xml:space="preserve" style="white-space: pre" font-family="DM Mono" font-size="10" font-weight="500" letter-spacing="0em"><tspan x="243.002" y="66.41">W&#10;</tspan><tspan x="243.002" y="76.41">A&#10;</tspan><tspan x="243.002" y="86.41">L</tspan></text>
</g>
</g>
<path id="arrow" d="M325.207 70.7071C325.598 70.3166 325.598 69.6834 325.207 69.2929L318.843 62.9289C318.453 62.5384 317.819 62.5384 317.429 62.9289C317.038 63.3195 317.038 63.9526 317.429 64.3431L323.086 70L317.429 75.6569C317.038 76.0474 317.038 76.6805 317.429 77.0711C317.819 77.4616 318.453 77.4616 318.843 77.0711L325.207 70.7071ZM268.5 71H324.5V69H268.5V71Z" fill="black" class="dark:fill-white"/>
<g id="event">
<rect x="334.5" y="20" width="125" height="100" rx="10" fill="#16181F"/>
<rect x="333.5" y="19" width="127" height="102" rx="11" stroke="#919CF9" stroke-opacity="0.3" stroke-width="2"/>
<g id="NEW Sequin Logo - WHITE 2" clip-path="url(#clip0_77_2)">
<path id="Vector_2" d="M361.043 46.1318C361.043 38.0429 350.457 40.8867 350.457 36.7158C350.457 35.0095 351.764 34.0616 353.724 34.0616C355.75 34.0616 357.057 35.1359 357.057 37.0002H360.945C360.945 33.1769 357.939 30.5859 353.724 30.5859C349.575 30.5859 346.602 33.0505 346.602 36.7158C346.602 44.6152 357.122 41.2342 357.122 46.1318C357.122 47.9329 355.88 48.9124 353.855 48.9124C351.764 48.9124 350.457 47.8381 350.457 45.9738H346.569C346.569 49.7971 349.607 52.3881 353.855 52.3881C358.037 52.3881 361.043 49.8603 361.043 46.1318ZM379.414 44.1728C379.414 39.37 375.885 35.9574 370.919 35.9574C365.953 35.9574 362.424 39.37 362.424 44.1728C362.424 49.0072 365.953 52.3881 370.919 52.3881C374.578 52.3881 377.78 50.6187 378.695 47.6169H374.513C373.696 48.786 372.389 49.1652 370.919 49.1652C368.501 49.1652 366.802 47.8065 366.279 45.5631H379.283C379.348 45.1207 379.414 44.6467 379.414 44.1728ZM370.919 39.1804C373.173 39.1804 374.84 40.4127 375.395 42.4665H366.378C366.966 40.4127 368.632 39.1804 370.919 39.1804ZM389.138 35.9574C384.171 35.9574 380.643 39.3384 380.643 44.1728C380.643 48.9756 384.171 52.3881 389.138 52.3881C391 52.3881 392.601 51.7878 393.842 50.7451V57.4438H397.632V36.2734H393.842V37.6005C392.601 36.5262 391 35.9574 389.138 35.9574ZM389.138 39.3068C391.98 39.3068 393.842 41.2342 393.842 44.1728C393.842 47.1114 391.98 49.0388 389.138 49.0388C386.262 49.0388 384.368 47.1114 384.368 44.1728C384.368 41.2342 386.262 39.3068 389.138 39.3068ZM399.699 45.7527C399.699 49.6392 402.411 52.3881 406.267 52.3881C407.868 52.3881 409.24 51.8194 410.253 50.8398V52.0722H413.977V36.2734H410.253V45.7527C410.253 47.7117 408.88 49.0388 406.855 49.0388C404.829 49.0388 403.457 47.7117 403.457 45.7527V36.2734H399.699V45.7527ZM416.1 34.3776H419.89V30.9019H416.1V34.3776ZM416.1 52.0722H419.89V36.2734H416.1V52.0722ZM421.971 52.0722H425.761V42.5929C425.761 40.6339 427.068 39.3068 429.159 39.3068C431.152 39.3068 432.524 40.6339 432.524 42.5929V52.0722H436.282V42.5929C436.282 38.7064 433.57 35.9574 429.714 35.9574C428.146 35.9574 426.774 36.4946 425.761 37.4741V36.2734H421.971V52.0722Z" fill="white"/>
</g>
<text id="Code snippet_2" fill="#BD93F9" xml:space="preserve" style="white-space: pre" font-family="DM Mono" font-size="14" letter-spacing="0em"><tspan x="346.5" y="82.7276">Capture &#38; </tspan><tspan x="346.5" y="103.728">Send Webhook</tspan></text>
</g>
<path id="arrow_2" d="M526.207 70.7071C526.598 70.3166 526.598 69.6834 526.207 69.2929L519.843 62.9289C519.453 62.5384 518.819 62.5384 518.429 62.9289C518.038 63.3195 518.038 63.9526 518.429 64.3431L524.086 70L518.429 75.6569C518.038 76.0474 518.038 76.6805 518.429 77.0711C518.819 77.4616 519.453 77.4616 519.843 77.0711L526.207 70.7071ZM469.5 71H525.5V69H469.5V71Z" fill="black" class="dark:fill-white"/>
<g id="event_2">
<rect x="535.5" y="22.1887" width="128" height="95.6226" rx="10" fill="#16181F"/>
<rect x="534.5" y="21.1887" width="130" height="97.6226" rx="11" stroke="#919CF9" stroke-opacity="0.3" stroke-width="2"/>
<g id="Group">
<g id="Group_2">
<path id="Vector_3" d="M571.105 49.59L571.282 48.9791C571.493 48.2521 571.415 47.58 571.061 47.0863C570.736 46.6314 570.194 46.3637 569.535 46.3326L557.067 46.1737C556.983 46.1693 556.914 46.1316 556.871 46.0694C556.828 46.0055 556.818 45.9233 556.844 45.8444C556.885 45.7217 557.007 45.6289 557.134 45.6234L569.718 45.464C571.211 45.3957 572.827 44.1854 573.393 42.7097L574.11 40.8364C574.13 40.7854 574.139 40.7313 574.139 40.6771C574.138 40.6474 574.136 40.6178 574.13 40.5886C573.314 36.9269 570.044 34.1887 566.133 34.1887C562.529 34.1887 559.47 36.5125 558.372 39.7422C557.664 39.2112 556.758 38.929 555.784 39.0262C554.055 39.1979 552.666 40.5886 552.494 42.3159C552.449 42.7641 552.486 43.1968 552.589 43.6034C549.765 43.6856 547.5 45.9972 547.5 48.8386C547.5 49.0958 547.519 49.3484 547.556 49.5956C547.573 49.7155 547.675 49.8055 547.796 49.8055L570.814 49.8083C570.817 49.8083 570.819 49.8073 570.821 49.8072C570.952 49.8043 571.068 49.7172 571.105 49.59Z" fill="white"/>
<path id="Vector_4" d="M575.259 40.9735C575.144 40.9735 575.029 40.9768 574.914 40.9824C574.895 40.9834 574.877 40.988 574.86 40.994C574.8 41.015 574.753 41.0633 574.734 41.1263L574.244 42.8181C574.033 43.5451 574.112 44.2166 574.465 44.7104C574.791 45.1658 575.333 45.433 575.991 45.4641L578.649 45.6234C578.727 45.6273 578.796 45.6651 578.838 45.7262C578.883 45.7906 578.893 45.8734 578.866 45.9522C578.824 46.075 578.703 46.1678 578.577 46.1733L575.815 46.3327C574.316 46.4016 572.7 47.6113 572.134 49.087L571.934 49.6079C571.898 49.7022 571.966 49.8026 572.065 49.8075C572.068 49.8076 572.07 49.8084 572.073 49.8084H581.576C581.689 49.8084 581.79 49.7345 581.821 49.6256C581.986 49.0391 582.074 48.421 582.074 47.7817C582.074 44.0216 579.023 40.9735 575.259 40.9735Z" fill="white"/>
</g>
<g id="Group_3">
<path id="Vector_5" d="M656.886 45.3134C656.546 45.3134 656.271 45.0391 656.271 44.6998C656.271 44.3621 656.546 44.0877 656.886 44.0877C657.225 44.0877 657.5 44.3621 657.5 44.6998C657.5 45.0391 657.225 45.3134 656.886 45.3134ZM656.886 44.2009C656.614 44.2009 656.393 44.4248 656.393 44.6997C656.393 44.9763 656.614 45.2001 656.886 45.2001C657.157 45.2001 657.378 44.9763 657.378 44.6997C657.378 44.4248 657.157 44.2009 656.886 44.2009ZM657.196 45.0235H657.05L656.928 44.788H656.763V45.0219H656.636V44.3471H656.96C657.103 44.3471 657.193 44.4338 657.193 44.5676C657.193 44.6643 657.136 44.7419 657.052 44.7725L657.196 45.0235ZM656.962 44.6708C657.015 44.6708 657.067 44.6436 657.067 44.5676C657.067 44.4909 657.027 44.4643 656.962 44.4643H656.764V44.6709L656.962 44.6708Z" fill="white"/>
<path id="Vector_6" d="M592.555 44.0248H594.129V48.3202H596.879V49.6976H592.555V44.0248Z" fill="white"/>
<path id="Vector_7" d="M598.509 46.8775V46.8614C598.509 45.2324 599.823 43.9111 601.575 43.9111C603.328 43.9111 604.625 45.2163 604.625 46.8453V46.8613C604.625 48.4903 603.311 49.8111 601.559 49.8111C599.807 49.8112 598.509 48.5065 598.509 46.8775ZM603.019 46.8775V46.8614C603.019 46.0427 602.427 45.3296 601.559 45.3296C600.699 45.3296 600.123 46.0267 600.123 46.8454V46.8614C600.123 47.6801 600.715 48.3933 601.575 48.3933C602.443 48.3933 603.019 47.6962 603.019 46.8775Z" fill="white"/>
<path id="Vector_8" d="M606.551 47.2098V44.0246H608.15V47.1776C608.15 47.9963 608.563 48.3851 609.196 48.3851C609.828 48.3851 610.242 48.0124 610.242 47.2182V44.0246H611.84V47.1693C611.84 49.001 610.794 49.803 609.18 49.803C607.565 49.803 606.551 48.9848 606.551 47.2098Z" fill="white"/>
<path id="Vector_9" d="M614.249 44.0251H616.439C618.467 44.0251 619.644 45.192 619.644 46.8288V46.8455C619.644 48.4823 618.451 49.698 616.407 49.698H614.249L614.249 44.0251ZM616.464 48.3039C617.405 48.3039 618.029 47.7851 618.029 46.8692V46.8532C618.029 45.9457 617.405 45.4185 616.464 45.4185H615.823V48.3039H616.464Z" fill="white"/>
<path id="Vector_10" d="M621.931 44.0248H626.473V45.4028H623.505V46.3669H626.19V47.6715H623.505V49.6976H621.931V44.0248Z" fill="white"/>
<path id="Vector_11" d="M628.663 44.0248H630.237V48.3202H632.987V49.6976H628.663V44.0248Z" fill="white"/>
<path id="Vector_12" d="M637.1 43.9842H638.616L641.034 49.6976H639.347L638.933 48.6845H636.742L636.337 49.6976H634.682L637.1 43.9842ZM638.479 47.4611L637.846 45.8482L637.205 47.4611H638.479Z" fill="white"/>
<path id="Vector_13" d="M643.061 44.0247H645.746C646.615 44.0247 647.214 44.2518 647.596 44.6406C647.929 44.965 648.099 45.4027 648.099 45.962V45.978C648.099 46.845 647.636 47.4204 646.931 47.7203L648.286 49.6981H646.468L645.325 47.9797H644.635V49.6981H643.061L643.061 44.0247ZM645.673 46.7478C646.209 46.7478 646.517 46.4884 646.517 46.0752V46.0591C646.517 45.6131 646.193 45.3866 645.665 45.3866H644.635V46.7479L645.673 46.7478Z" fill="white"/>
<path id="Vector_14" d="M650.37 44.0248H654.937V45.3622H651.927V46.2209H654.653V47.4611H651.927V48.3608H654.977V49.6976H650.37V44.0248Z" fill="white"/>
<path id="Vector_15" d="M589.109 47.5426C588.889 48.0392 588.425 48.393 587.809 48.393C586.949 48.393 586.357 47.6799 586.357 46.8612V46.8451C586.357 46.0264 586.933 45.3293 587.793 45.3293C588.441 45.3293 588.935 45.7275 589.143 46.2696H590.802C590.536 44.9194 589.349 43.9113 587.809 43.9113C586.057 43.9113 584.743 45.2321 584.743 46.8611V46.8771C584.743 48.5061 586.041 49.8113 587.793 49.8113C589.292 49.8113 590.463 48.8416 590.772 47.5425L589.109 47.5426Z" fill="white"/>
</g>
</g>
<text id="Code snippet_3" fill="#50FA7B" xml:space="preserve" style="white-space: pre" font-family="DM Mono" font-size="15" letter-spacing="0em"><tspan x="547.5" y="76.4263">Process &#10;</tspan><tspan x="547.5" y="99.4263">user</tspan></text>
</g>
</g>
<defs>
<clipPath id="clip0_77_2">
<rect width="90" height="26.9072" fill="white" transform="translate(346.5 30.5464)"/>
</clipPath>
</defs>
<style>
@media (prefers-color-scheme: dark) {
  .dark\:fill-white {
    fill: white;
  }
}
</style>
</svg>
