<svg width="800" height="140" viewBox="0 0 800 140" fill="none" xmlns="http://www.w3.org/2000/svg">
<g id="send-with-sequin">
<g id="Group 2">
<g id="insert">
<rect x="134.01" y="20" width="100" height="100" rx="10" fill="#16181F"/>
<rect x="133.01" y="19" width="102" height="102" rx="11" stroke="#919CF9" stroke-opacity="0.3" stroke-width="2"/>
<path id="Vector" d="M163.01 41.2308C163.01 43.5672 159.204 45.4615 154.51 45.4615C149.816 45.4615 146.01 43.5672 146.01 41.2308M163.01 41.2308C163.01 38.8944 159.204 37 154.51 37C149.816 37 146.01 38.8944 146.01 41.2308M163.01 41.2308V52.7692C163.01 55.1056 159.204 57 154.51 57C149.816 57 146.01 55.1056 146.01 52.7692V41.2308M163.01 41.2308V45.0769M146.01 41.2308V45.0769M163.01 45.0769V48.9231C163.01 51.2595 159.204 53.1538 154.51 53.1538C149.816 53.1538 146.01 51.2595 146.01 48.9231V45.0769M163.01 45.0769C163.01 47.4133 159.204 49.3077 154.51 49.3077C149.816 49.3077 146.01 47.4133 146.01 45.0769" stroke="#919CF9" stroke-linecap="round" stroke-linejoin="round"/>
<g id="Code snippet">
<text fill="#FF79C6" xml:space="preserve" style="white-space: pre" font-family="DM Mono" font-size="15" letter-spacing="0em"><tspan x="146.01" y="83.615">INSERT&#10;</tspan></text>
<text fill="#F8F8F2" xml:space="preserve" style="white-space: pre" font-family="DM Mono" font-size="10" letter-spacing="0em"><tspan x="169.994" y="98.615"> orders</tspan></text>
<text fill="#FF79C6" xml:space="preserve" style="white-space: pre" font-family="DM Mono" font-size="10" letter-spacing="0em"><tspan x="146.01" y="98.615">INTO</tspan></text>
</g>
</g>
<g id="wal">
<rect x="231.01" y="104" width="62" height="25" rx="10" transform="rotate(-90 231.01 104)" fill="#919CF9" fill-opacity="0.7"/>
<text id="W A L" fill="white" xml:space="preserve" style="white-space: pre" font-family="DM Mono" font-size="10" font-weight="500" letter-spacing="0em"><tspan x="240.512" y="66.41">W&#10;</tspan><tspan x="240.512" y="76.41">A&#10;</tspan><tspan x="240.512" y="86.41">L</tspan></text>
</g>
</g>
<path id="arrow" d="M322.717 70.7071C323.107 70.3166 323.107 69.6834 322.717 69.2929L316.353 62.9289C315.962 62.5384 315.329 62.5384 314.939 62.9289C314.548 63.3195 314.548 63.9526 314.939 64.3431L320.596 70L314.939 75.6569C314.548 76.0474 314.548 76.6805 314.939 77.0711C315.329 77.4616 315.962 77.4616 316.353 77.0711L322.717 70.7071ZM266.01 71H322.01V69H266.01V71Z" fill="black" class="dark:fill-white"/>
<g id="event">
<rect x="332.01" y="20" width="125" height="100" rx="10" fill="#16181F"/>
<rect x="331.01" y="19" width="127" height="102" rx="11" stroke="#919CF9" stroke-opacity="0.3" stroke-width="2"/>
<g id="NEW Sequin Logo - WHITE 2" clip-path="url(#clip0_86_2)">
<path id="Vector_2" d="M358.552 46.1318C358.552 38.0429 347.967 40.8867 347.967 36.7158C347.967 35.0095 349.274 34.0616 351.234 34.0616C353.26 34.0616 354.566 35.1359 354.566 37.0002H358.454C358.454 33.1769 355.449 30.5859 351.234 30.5859C347.084 30.5859 344.111 33.0505 344.111 36.7158C344.111 44.6152 354.632 41.2342 354.632 46.1318C354.632 47.9329 353.39 48.9124 351.365 48.9124C349.274 48.9124 347.967 47.8381 347.967 45.9738H344.079C344.079 49.7971 347.117 52.3881 351.365 52.3881C355.547 52.3881 358.552 49.8603 358.552 46.1318ZM376.923 44.1728C376.923 39.37 373.395 35.9574 368.429 35.9574C363.463 35.9574 359.934 39.37 359.934 44.1728C359.934 49.0072 363.463 52.3881 368.429 52.3881C372.088 52.3881 375.29 50.6187 376.205 47.6169H372.023C371.206 48.786 369.899 49.1652 368.429 49.1652C366.011 49.1652 364.312 47.8065 363.789 45.5631H376.793C376.858 45.1207 376.923 44.6467 376.923 44.1728ZM368.429 39.1804C370.683 39.1804 372.349 40.4127 372.905 42.4665H363.887C364.475 40.4127 366.142 39.1804 368.429 39.1804ZM386.647 35.9574C381.681 35.9574 378.153 39.3384 378.153 44.1728C378.153 48.9756 381.681 52.3881 386.647 52.3881C388.51 52.3881 390.111 51.7878 391.352 50.7451V57.4438H395.142V36.2734H391.352V37.6005C390.111 36.5262 388.51 35.9574 386.647 35.9574ZM386.647 39.3068C389.49 39.3068 391.352 41.2342 391.352 44.1728C391.352 47.1114 389.49 49.0388 386.647 49.0388C383.772 49.0388 381.877 47.1114 381.877 44.1728C381.877 41.2342 383.772 39.3068 386.647 39.3068ZM397.209 45.7527C397.209 49.6392 399.921 52.3881 403.776 52.3881C405.377 52.3881 406.75 51.8194 407.762 50.8398V52.0722H411.487V36.2734H407.762V45.7527C407.762 47.7117 406.39 49.0388 404.364 49.0388C402.339 49.0388 400.967 47.7117 400.967 45.7527V36.2734H397.209V45.7527ZM413.61 34.3776H417.4V30.9019H413.61V34.3776ZM413.61 52.0722H417.4V36.2734H413.61V52.0722ZM419.481 52.0722H423.271V42.5929C423.271 40.6339 424.578 39.3068 426.669 39.3068C428.662 39.3068 430.034 40.6339 430.034 42.5929V52.0722H433.791V42.5929C433.791 38.7064 431.079 35.9574 427.224 35.9574C425.656 35.9574 424.284 36.4946 423.271 37.4741V36.2734H419.481V52.0722Z" fill="white"/>
</g>
<text id="Code snippet_2" fill="#BD93F9" xml:space="preserve" style="white-space: pre" font-family="DM Mono" font-size="14" letter-spacing="0em"><tspan x="344.01" y="82.7276">Capture &#38; </tspan><tspan x="344.01" y="103.728">Send Webhook</tspan></text>
</g>
<path id="arrow_2" d="M523.717 70.7071C524.107 70.3166 524.107 69.6834 523.717 69.2929L517.353 62.9289C516.962 62.5384 516.329 62.5384 515.939 62.9289C515.548 63.3195 515.548 63.9526 515.939 64.3431L521.596 70L515.939 75.6569C515.548 76.0474 515.548 76.6805 515.939 77.0711C516.329 77.4616 516.962 77.4616 517.353 77.0711L523.717 70.7071ZM467.01 71H523.01V69H467.01V71Z" fill="black" class="dark:fill-white"/>
<g id="event_2">
<rect x="533.01" y="20" width="132.98" height="100" rx="10" fill="#16181F"/>
<rect x="532.01" y="19" width="134.98" height="102" rx="11" stroke="#919CF9" stroke-opacity="0.3" stroke-width="2"/>
<g id="Group">
<g id="Clip path group">
<mask id="mask0_86_2" style="mask-type:luminance" maskUnits="userSpaceOnUse" x="545" y="29" width="109" height="26">
<g id="a">
<path id="Vector_3" d="M545.01 29.5H653.99V54.5H545.01V29.5Z" fill="white"/>
</g>
</mask>
<g mask="url(#mask0_86_2)">
<g id="Group_2">
<path id="Vector_4" d="M585.394 37.93H583.154V35.21H580.474V37.93H578.859V40H580.474V46.32C580.459 48.46 582.014 49.51 584.024 49.45C584.784 49.43 585.309 49.28 585.599 49.185L585.149 47.09C584.999 47.125 584.699 47.195 584.364 47.195C583.689 47.195 583.149 46.96 583.149 45.88V40H585.389V37.93H585.394ZM587.629 49.29H590.309V37.93H587.629V49.29ZM588.979 36.315C589.829 36.315 590.524 35.665 590.524 34.865C590.524 34.06 589.829 33.41 588.979 33.41C588.119 33.41 587.424 34.06 587.424 34.865C587.424 35.665 588.119 36.315 588.979 36.315ZM595.739 42.635C595.739 40.995 596.729 40.045 598.144 40.045C599.529 40.045 600.354 40.955 600.354 42.47V49.29H603.034V42.055C603.039 39.33 601.489 37.78 599.144 37.78C597.444 37.78 596.274 38.595 595.754 39.86H595.619V37.93H593.059V49.295H595.739V42.635ZM607.014 53.55C609.099 53.55 610.304 52.475 610.949 50.665L615.514 37.94L612.649 37.925L610.024 46.505H609.904L607.284 37.925H604.444L608.564 49.525L608.334 50.14C607.839 51.435 607.054 51.525 605.884 51.185L605.264 53.27C605.634 53.42 606.284 53.55 607.014 53.55ZM617.494 49.29H620.129V47.5H620.284C620.704 48.33 621.584 49.49 623.539 49.49C626.219 49.49 628.224 47.365 628.224 43.625C628.224 39.835 626.159 37.78 623.534 37.78C621.529 37.78 620.694 38.985 620.284 39.805H620.174V34.14H617.494V49.29ZM620.119 43.61C620.119 41.405 621.064 39.975 622.789 39.975C624.574 39.975 625.489 41.49 625.489 43.61C625.489 45.74 624.559 47.295 622.789 47.295C621.084 47.295 620.119 45.815 620.119 43.61ZM630.499 49.29H633.179V37.93H630.499V49.29ZM631.844 36.315C632.694 36.315 633.389 35.665 633.389 34.865C633.389 34.06 632.694 33.41 631.844 33.41C630.984 33.41 630.289 34.06 630.289 34.865C630.289 35.665 630.984 36.315 631.844 36.315ZM635.929 49.29H638.609V42.61C638.609 41.165 639.694 40.145 641.169 40.145C641.619 40.145 642.184 40.225 642.414 40.3V37.835C642.097 37.7857 641.776 37.7606 641.454 37.76C640.154 37.76 639.064 38.5 638.649 39.815H638.529V37.92H635.934L635.929 49.29ZM647.939 49.49C649.894 49.49 650.774 48.33 651.194 47.5H651.354V49.29H653.989V34.14H651.304V39.805H651.194C650.789 38.985 649.949 37.78 647.944 37.78C645.319 37.78 643.254 39.835 643.254 43.625C643.254 47.37 645.259 49.49 647.939 49.49ZM648.684 47.295C646.914 47.295 645.984 45.74 645.984 43.61C645.984 41.495 646.899 39.975 648.684 39.975C650.409 39.975 651.354 41.405 651.354 43.61C651.354 45.815 650.394 47.295 648.684 47.295Z" fill="white"/>
<path id="Vector_5" opacity="0.6" d="M570.01 31.64L562.205 29.5L559.46 35.635L570.01 31.64ZM562.545 46.77L555.4 44.215L551.205 54.5L562.545 46.77Z" fill="white"/>
<path id="Vector_6" d="M545.01 40.495L562.545 46.77L565.42 33.36L545.01 40.497V40.495Z" fill="white"/>
</g>
</g>
</g>
</g>
<text id="Code snippet_3" fill="#50FA7B" xml:space="preserve" style="white-space: pre" font-family="DM Mono" font-size="15" letter-spacing="0em"><tspan x="545.01" y="81.115">Replicate to </tspan><tspan x="545.01" y="104.115">ClickHouse</tspan></text>
</g>
</g>
<defs>
<clipPath id="clip0_86_2">
<rect width="90" height="26.9072" fill="white" transform="translate(344.01 30.5464)"/>
</clipPath>
</defs>
<style>
@media (prefers-color-scheme: dark) {
  .dark\:fill-white {
    fill: white;
  }
}
</style>
</svg>
