<svg width="305" height="111" viewBox="0 0 305 111" fill="none" xmlns="http://www.w3.org/2000/svg">
<rect width="305" height="111" fill="black"/>
<rect x="21.5" y="24.5" width="59" height="42" stroke="white" stroke-dasharray="1 1"/>
<rect x="123.5" y="24.5" width="59" height="42" stroke="white" stroke-dasharray="1 1"/>
<rect x="225.5" y="24.5" width="59" height="42" stroke="white" stroke-dasharray="1 1"/>
<path d="M122 46L117.897 42M122 46L117.897 50M122 46H82" stroke="white" stroke-dasharray="1 1"/>
<path d="M224 46L219.897 42M224 46L219.897 50M224 46H184" stroke="white" stroke-dasharray="1 1"/>
<path d="M203.5 49V69.5" stroke="white" stroke-dasharray="1 1"/>
<path d="M33.5586 42.8164V45.0078H34.4727C34.8372 45.0078 35.1211 44.9115 35.3242 44.7188C35.5299 44.526 35.6328 44.2565 35.6328 43.9102C35.6328 43.5638 35.5312 43.2956 35.3281 43.1055C35.125 42.9128 34.8398 42.8164 34.4727 42.8164H33.5586ZM32.7695 42.168H34.4727C35.1237 42.168 35.6172 42.3164 35.9531 42.6133C36.2891 42.9076 36.457 43.3398 36.457 43.9102C36.457 44.4857 36.2891 44.9206 35.9531 45.2148C35.6198 45.5091 35.1263 45.6562 34.4727 45.6562H33.5586V48H32.7695V42.168ZM39.2266 44.1289C38.862 44.1289 38.5859 44.2708 38.3984 44.5547C38.2109 44.8385 38.1172 45.2591 38.1172 45.8164C38.1172 46.3711 38.2109 46.7917 38.3984 47.0781C38.5859 47.362 38.862 47.5039 39.2266 47.5039C39.5938 47.5039 39.8711 47.362 40.0586 47.0781C40.2461 46.7917 40.3398 46.3711 40.3398 45.8164C40.3398 45.2591 40.2461 44.8385 40.0586 44.5547C39.8711 44.2708 39.5938 44.1289 39.2266 44.1289ZM39.2266 43.5195C39.8333 43.5195 40.2969 43.7161 40.6172 44.1094C40.9401 44.5026 41.1016 45.0716 41.1016 45.8164C41.1016 46.5638 40.9414 47.1341 40.6211 47.5273C40.3008 47.918 39.8359 48.1133 39.2266 48.1133C38.6198 48.1133 38.1562 47.918 37.8359 47.5273C37.5156 47.1341 37.3555 46.5638 37.3555 45.8164C37.3555 45.0716 37.5156 44.5026 37.8359 44.1094C38.1562 43.7161 38.6198 43.5195 39.2266 43.5195ZM45.4414 43.7773V44.4805C45.2357 44.3607 45.0286 44.2708 44.8203 44.2109C44.612 44.151 44.3997 44.1211 44.1836 44.1211C43.8581 44.1211 43.6146 44.1745 43.4531 44.2812C43.2943 44.3854 43.2148 44.5456 43.2148 44.7617C43.2148 44.957 43.2747 45.1029 43.3945 45.1992C43.5143 45.2956 43.8125 45.3893 44.2891 45.4805L44.5781 45.5352C44.9349 45.6029 45.2044 45.7383 45.3867 45.9414C45.5716 46.1445 45.6641 46.4089 45.6641 46.7344C45.6641 47.1667 45.5104 47.5052 45.2031 47.75C44.8958 47.9922 44.4688 48.1133 43.9219 48.1133C43.7057 48.1133 43.4792 48.0898 43.2422 48.043C43.0052 47.9987 42.7487 47.931 42.4727 47.8398V47.0977C42.7409 47.2357 42.9974 47.3398 43.2422 47.4102C43.487 47.4779 43.7188 47.5117 43.9375 47.5117C44.2552 47.5117 44.5013 47.4479 44.6758 47.3203C44.8503 47.1901 44.9375 47.0091 44.9375 46.7773C44.9375 46.444 44.6185 46.2135 43.9805 46.0859L43.9492 46.0781L43.6797 46.0234C43.2656 45.9427 42.9635 45.8073 42.7734 45.6172C42.5833 45.4245 42.4883 45.1628 42.4883 44.832C42.4883 44.4128 42.6302 44.0898 42.9141 43.8633C43.1979 43.6341 43.6029 43.5195 44.1289 43.5195C44.3633 43.5195 44.5885 43.5417 44.8047 43.5859C45.0208 43.6276 45.2331 43.6914 45.4414 43.7773ZM48.8594 42.3828V43.625H50.4922V44.1836H48.8594V46.5586C48.8594 46.8815 48.9206 47.1068 49.043 47.2344C49.1654 47.362 49.3789 47.4258 49.6836 47.4258H50.4922V48H49.6133C49.0742 48 48.694 47.8919 48.4727 47.6758C48.2513 47.4596 48.1406 47.0872 48.1406 46.5586V44.1836H46.9727V43.625H48.1406V42.3828H48.8594ZM54.6328 45.7773C54.6328 45.2383 54.5443 44.8294 54.3672 44.5508C54.1927 44.2695 53.9375 44.1289 53.6016 44.1289C53.25 44.1289 52.9818 44.2695 52.7969 44.5508C52.612 44.8294 52.5195 45.2383 52.5195 45.7773C52.5195 46.3164 52.612 46.7279 52.7969 47.0117C52.9844 47.293 53.2552 47.4336 53.6094 47.4336C53.9401 47.4336 54.1927 47.2917 54.3672 47.0078C54.5443 46.724 54.6328 46.3138 54.6328 45.7773ZM55.3516 47.7188C55.3516 48.375 55.1966 48.8724 54.8867 49.2109C54.5768 49.5495 54.1211 49.7188 53.5195 49.7188C53.3216 49.7188 53.1146 49.7005 52.8984 49.6641C52.6823 49.6276 52.4661 49.5742 52.25 49.5039V48.793C52.5052 48.9128 52.737 49.0013 52.9453 49.0586C53.1536 49.1159 53.3451 49.1445 53.5195 49.1445C53.9076 49.1445 54.1901 49.0391 54.3672 48.8281C54.5443 48.6172 54.6328 48.2826 54.6328 47.8242V47.793V47.3047C54.5182 47.5495 54.362 47.7318 54.1641 47.8516C53.9661 47.9714 53.7253 48.0312 53.4414 48.0312C52.931 48.0312 52.5234 47.8268 52.2188 47.418C51.9141 47.0091 51.7617 46.4622 51.7617 45.7773C51.7617 45.0898 51.9141 44.5417 52.2188 44.1328C52.5234 43.724 52.931 43.5195 53.4414 43.5195C53.7227 43.5195 53.9609 43.5755 54.1562 43.6875C54.3516 43.7995 54.5104 43.9727 54.6328 44.207V43.6406H55.3516V47.7188ZM60.6133 44.5273C60.4596 44.4076 60.3034 44.3203 60.1445 44.2656C59.9857 44.2109 59.8112 44.1836 59.6211 44.1836C59.1732 44.1836 58.8307 44.3242 58.5938 44.6055C58.3568 44.8867 58.2383 45.293 58.2383 45.8242V48H57.5156V43.625H58.2383V44.4805C58.3581 44.1706 58.5417 43.9336 58.7891 43.7695C59.0391 43.6029 59.3346 43.5195 59.6758 43.5195C59.8529 43.5195 60.0182 43.5417 60.1719 43.5859C60.3255 43.6302 60.4727 43.6992 60.6133 43.793V44.5273ZM65.2969 45.4531V45.8047H62.1836V45.8281C62.1628 46.4245 62.276 46.8529 62.5234 47.1133C62.7734 47.3737 63.125 47.5039 63.5781 47.5039C63.8073 47.5039 64.0469 47.4674 64.2969 47.3945C64.5469 47.3216 64.8138 47.2109 65.0977 47.0625V47.7773C64.8242 47.8893 64.5599 47.9727 64.3047 48.0273C64.0521 48.0846 63.8073 48.1133 63.5703 48.1133C62.8906 48.1133 62.3594 47.9102 61.9766 47.5039C61.5938 47.0951 61.4023 46.5326 61.4023 45.8164C61.4023 45.1185 61.5898 44.5612 61.9648 44.1445C62.3398 43.7279 62.8398 43.5195 63.4648 43.5195C64.0221 43.5195 64.4609 43.7083 64.7812 44.0859C65.1042 44.4635 65.276 44.9193 65.2969 45.4531ZM64.5781 45.2422C64.5469 44.9401 64.4362 44.6797 64.2461 44.4609C64.0586 44.2396 63.7878 44.1289 63.4336 44.1289C63.0872 44.1289 62.8021 44.2435 62.5781 44.4727C62.3542 44.7018 62.2318 44.9596 62.2109 45.2461L64.5781 45.2422ZM69.543 43.7773V44.4805C69.3372 44.3607 69.1302 44.2708 68.9219 44.2109C68.7135 44.151 68.5013 44.1211 68.2852 44.1211C67.9596 44.1211 67.7161 44.1745 67.5547 44.2812C67.3958 44.3854 67.3164 44.5456 67.3164 44.7617C67.3164 44.957 67.3763 45.1029 67.4961 45.1992C67.6159 45.2956 67.9141 45.3893 68.3906 45.4805L68.6797 45.5352C69.0365 45.6029 69.306 45.7383 69.4883 45.9414C69.6732 46.1445 69.7656 46.4089 69.7656 46.7344C69.7656 47.1667 69.612 47.5052 69.3047 47.75C68.9974 47.9922 68.5703 48.1133 68.0234 48.1133C67.8073 48.1133 67.5807 48.0898 67.3438 48.043C67.1068 47.9987 66.8503 47.931 66.5742 47.8398V47.0977C66.8424 47.2357 67.099 47.3398 67.3438 47.4102C67.5885 47.4779 67.8203 47.5117 68.0391 47.5117C68.3568 47.5117 68.6029 47.4479 68.7773 47.3203C68.9518 47.1901 69.0391 47.0091 69.0391 46.7773C69.0391 46.444 68.7201 46.2135 68.082 46.0859L68.0508 46.0781L67.7812 46.0234C67.3672 45.9427 67.0651 45.8073 66.875 45.6172C66.6849 45.4245 66.5898 45.1628 66.5898 44.832C66.5898 44.4128 66.7318 44.0898 67.0156 43.8633C67.2995 43.6341 67.7044 43.5195 68.2305 43.5195C68.4648 43.5195 68.6901 43.5417 68.9062 43.5859C69.1224 43.6276 69.3346 43.6914 69.543 43.7773Z" fill="white"/>
<path d="M95 51.168H95.7695L96.3281 55.9023L96.9922 52.7695H97.8164L98.4883 55.9102L99.0469 51.168H99.8164L98.9453 57H98.1992L97.4062 53.5352L96.6172 57H95.8711L95 51.168ZM102.227 51.8633L101.395 54.8477H103.059L102.227 51.8633ZM101.75 51.168H102.707L104.492 57H103.676L103.246 55.4805H101.203L100.781 57H99.9648L101.75 51.168ZM105.48 51.168H106.273V56.3359H109.09V57H105.48V51.168Z" fill="white"/>
<path d="M188.77 72.168H192.23V72.832H189.559V74.4023H192.113V75.0664H189.559V77.3359H192.305V78H188.77V72.168ZM197.188 73.625L195.621 75.7188L197.34 78H196.508L195.227 76.2461L193.949 78H193.117L194.836 75.7188L193.27 73.625H194.066L195.227 75.207L196.379 73.625H197.188ZM200.383 75.8008H200.145C199.725 75.8008 199.409 75.875 199.195 76.0234C198.984 76.1693 198.879 76.388 198.879 76.6797C198.879 76.9427 198.958 77.1471 199.117 77.293C199.276 77.4388 199.496 77.5117 199.777 77.5117C200.173 77.5117 200.484 77.375 200.711 77.1016C200.938 76.8255 201.052 76.4453 201.055 75.9609V75.8008H200.383ZM201.777 75.5039V78H201.055V77.3516C200.901 77.612 200.707 77.8047 200.473 77.9297C200.241 78.0521 199.958 78.1133 199.625 78.1133C199.18 78.1133 198.824 77.9883 198.559 77.7383C198.293 77.4857 198.16 77.1484 198.16 76.7266C198.16 76.2396 198.323 75.8698 198.648 75.6172C198.977 75.3646 199.457 75.2383 200.09 75.2383H201.055V75.125C201.052 74.776 200.964 74.5234 200.789 74.3672C200.615 74.2083 200.336 74.1289 199.953 74.1289C199.708 74.1289 199.461 74.1641 199.211 74.2344C198.961 74.3047 198.717 74.4076 198.48 74.543V73.8242C198.746 73.7227 199 73.6471 199.242 73.5977C199.487 73.5456 199.724 73.5195 199.953 73.5195C200.315 73.5195 200.624 73.5729 200.879 73.6797C201.137 73.7865 201.345 73.9466 201.504 74.1602C201.603 74.2904 201.673 74.4518 201.715 74.6445C201.757 74.8346 201.777 75.1211 201.777 75.5039ZM206.605 77.7773C206.413 77.8893 206.214 77.9727 206.008 78.0273C205.805 78.0846 205.596 78.1133 205.383 78.1133C204.706 78.1133 204.176 77.9102 203.793 77.5039C203.413 77.0977 203.223 76.5352 203.223 75.8164C203.223 75.0977 203.413 74.5352 203.793 74.1289C204.176 73.7227 204.706 73.5195 205.383 73.5195C205.594 73.5195 205.799 73.5469 206 73.6016C206.201 73.6562 206.402 73.7409 206.605 73.8555V74.6094C206.415 74.4401 206.224 74.3177 206.031 74.2422C205.841 74.1667 205.625 74.1289 205.383 74.1289C204.932 74.1289 204.586 74.2747 204.344 74.5664C204.102 74.8581 203.98 75.2747 203.98 75.8164C203.98 76.3555 204.102 76.7721 204.344 77.0664C204.589 77.3581 204.935 77.5039 205.383 77.5039C205.633 77.5039 205.857 77.4661 206.055 77.3906C206.253 77.3125 206.436 77.1927 206.605 77.0312V77.7773ZM209.68 72.3828V73.625H211.312V74.1836H209.68V76.5586C209.68 76.8815 209.741 77.1068 209.863 77.2344C209.986 77.362 210.199 77.4258 210.504 77.4258H211.312V78H210.434C209.895 78 209.514 77.8919 209.293 77.6758C209.072 77.4596 208.961 77.0872 208.961 76.5586V74.1836H207.793V73.625H208.961V72.3828H209.68ZM214.91 76.418C214.91 76.7409 214.969 76.9844 215.086 77.1484C215.206 77.3125 215.382 77.3945 215.613 77.3945H216.453V78H215.543C215.113 78 214.78 77.8633 214.543 77.5898C214.309 77.3138 214.191 76.9232 214.191 76.418V72.4609H213.039V71.8984H214.91V76.418ZM220.273 76.5938C220.154 76.8984 220.001 77.2995 219.816 77.7969C219.559 78.4844 219.385 78.9036 219.297 79.0547C219.177 79.2578 219.027 79.4102 218.848 79.5117C218.668 79.6133 218.458 79.6641 218.219 79.6641H217.641V79.0625H218.066C218.277 79.0625 218.443 79.0013 218.562 78.8789C218.682 78.7565 218.835 78.4401 219.02 77.9297L217.328 73.625H218.09L219.387 77.0469L220.664 73.625H221.426L220.273 76.5938ZM222.141 75.1719H226.281V75.832H222.141V75.1719ZM190.406 83.1289C190.042 83.1289 189.766 83.2708 189.578 83.5547C189.391 83.8385 189.297 84.2591 189.297 84.8164C189.297 85.3711 189.391 85.7917 189.578 86.0781C189.766 86.362 190.042 86.5039 190.406 86.5039C190.773 86.5039 191.051 86.362 191.238 86.0781C191.426 85.7917 191.52 85.3711 191.52 84.8164C191.52 84.2591 191.426 83.8385 191.238 83.5547C191.051 83.2708 190.773 83.1289 190.406 83.1289ZM190.406 82.5195C191.013 82.5195 191.477 82.7161 191.797 83.1094C192.12 83.5026 192.281 84.0716 192.281 84.8164C192.281 85.5638 192.121 86.1341 191.801 86.5273C191.48 86.918 191.016 87.1133 190.406 87.1133C189.799 87.1133 189.336 86.918 189.016 86.5273C188.695 86.1341 188.535 85.5638 188.535 84.8164C188.535 84.0716 188.695 83.5026 189.016 83.1094C189.336 82.7161 189.799 82.5195 190.406 82.5195ZM196.926 84.2891V87H196.203V84.2891C196.203 83.8958 196.134 83.6068 195.996 83.4219C195.858 83.237 195.642 83.1445 195.348 83.1445C195.012 83.1445 194.753 83.2643 194.57 83.5039C194.391 83.7409 194.301 84.082 194.301 84.5273V87H193.582V82.625H194.301V83.2812C194.428 83.0312 194.602 82.8424 194.82 82.7148C195.039 82.5846 195.298 82.5195 195.598 82.5195C196.043 82.5195 196.375 82.6667 196.594 82.9609C196.815 83.2526 196.926 83.6953 196.926 84.2891ZM201.785 86.7773C201.592 86.8893 201.393 86.9727 201.188 87.0273C200.984 87.0846 200.776 87.1133 200.562 87.1133C199.885 87.1133 199.355 86.9102 198.973 86.5039C198.592 86.0977 198.402 85.5352 198.402 84.8164C198.402 84.0977 198.592 83.5352 198.973 83.1289C199.355 82.7227 199.885 82.5195 200.562 82.5195C200.773 82.5195 200.979 82.5469 201.18 82.6016C201.38 82.6562 201.582 82.7409 201.785 82.8555V83.6094C201.595 83.4401 201.404 83.3177 201.211 83.2422C201.021 83.1667 200.805 83.1289 200.562 83.1289C200.112 83.1289 199.766 83.2747 199.523 83.5664C199.281 83.8581 199.16 84.2747 199.16 84.8164C199.16 85.3555 199.281 85.7721 199.523 86.0664C199.768 86.3581 200.115 86.5039 200.562 86.5039C200.812 86.5039 201.036 86.4661 201.234 86.3906C201.432 86.3125 201.616 86.1927 201.785 86.0312V86.7773ZM206.836 84.4531V84.8047H203.723V84.8281C203.702 85.4245 203.815 85.8529 204.062 86.1133C204.312 86.3737 204.664 86.5039 205.117 86.5039C205.346 86.5039 205.586 86.4674 205.836 86.3945C206.086 86.3216 206.353 86.2109 206.637 86.0625V86.7773C206.363 86.8893 206.099 86.9727 205.844 87.0273C205.591 87.0846 205.346 87.1133 205.109 87.1133C204.43 87.1133 203.898 86.9102 203.516 86.5039C203.133 86.0951 202.941 85.5326 202.941 84.8164C202.941 84.1185 203.129 83.5612 203.504 83.1445C203.879 82.7279 204.379 82.5195 205.004 82.5195C205.561 82.5195 206 82.7083 206.32 83.0859C206.643 83.4635 206.815 83.9193 206.836 84.4531ZM206.117 84.2422C206.086 83.9401 205.975 83.6797 205.785 83.4609C205.598 83.2396 205.327 83.1289 204.973 83.1289C204.626 83.1289 204.341 83.2435 204.117 83.4727C203.893 83.7018 203.771 83.9596 203.75 84.2461L206.117 84.2422ZM189.465 95.4492V97.6641H188.742V91.625H189.465V92.1836C189.585 91.9674 189.743 91.8034 189.941 91.6914C190.142 91.5768 190.372 91.5195 190.633 91.5195C191.161 91.5195 191.576 91.724 191.875 92.1328C192.177 92.5417 192.328 93.1081 192.328 93.832C192.328 94.543 192.177 95.1016 191.875 95.5078C191.573 95.9115 191.159 96.1133 190.633 96.1133C190.367 96.1133 190.134 96.0573 189.934 95.9453C189.736 95.8307 189.579 95.6654 189.465 95.4492ZM191.574 93.8164C191.574 93.2591 191.486 92.8385 191.309 92.5547C191.134 92.2708 190.874 92.1289 190.527 92.1289C190.178 92.1289 189.914 92.2721 189.734 92.5586C189.555 92.8424 189.465 93.2617 189.465 93.8164C189.465 94.3685 189.555 94.7878 189.734 95.0742C189.914 95.3607 190.178 95.5039 190.527 95.5039C190.874 95.5039 191.134 95.362 191.309 95.0781C191.486 94.7943 191.574 94.3737 191.574 93.8164ZM197.332 92.5273C197.178 92.4076 197.022 92.3203 196.863 92.2656C196.704 92.2109 196.53 92.1836 196.34 92.1836C195.892 92.1836 195.549 92.3242 195.312 92.6055C195.076 92.8867 194.957 93.293 194.957 93.8242V96H194.234V91.625H194.957V92.4805C195.077 92.1706 195.26 91.9336 195.508 91.7695C195.758 91.6029 196.053 91.5195 196.395 91.5195C196.572 91.5195 196.737 91.5417 196.891 91.5859C197.044 91.6302 197.191 91.6992 197.332 91.793V92.5273ZM200.047 92.1289C199.682 92.1289 199.406 92.2708 199.219 92.5547C199.031 92.8385 198.938 93.2591 198.938 93.8164C198.938 94.3711 199.031 94.7917 199.219 95.0781C199.406 95.362 199.682 95.5039 200.047 95.5039C200.414 95.5039 200.691 95.362 200.879 95.0781C201.066 94.7917 201.16 94.3711 201.16 93.8164C201.16 93.2591 201.066 92.8385 200.879 92.5547C200.691 92.2708 200.414 92.1289 200.047 92.1289ZM200.047 91.5195C200.654 91.5195 201.117 91.7161 201.438 92.1094C201.76 92.5026 201.922 93.0716 201.922 93.8164C201.922 94.5638 201.762 95.1341 201.441 95.5273C201.121 95.918 200.656 96.1133 200.047 96.1133C199.44 96.1133 198.977 95.918 198.656 95.5273C198.336 95.1341 198.176 94.5638 198.176 93.8164C198.176 93.0716 198.336 92.5026 198.656 92.1094C198.977 91.7161 199.44 91.5195 200.047 91.5195ZM206.605 95.7773C206.413 95.8893 206.214 95.9727 206.008 96.0273C205.805 96.0846 205.596 96.1133 205.383 96.1133C204.706 96.1133 204.176 95.9102 203.793 95.5039C203.413 95.0977 203.223 94.5352 203.223 93.8164C203.223 93.0977 203.413 92.5352 203.793 92.1289C204.176 91.7227 204.706 91.5195 205.383 91.5195C205.594 91.5195 205.799 91.5469 206 91.6016C206.201 91.6562 206.402 91.7409 206.605 91.8555V92.6094C206.415 92.4401 206.224 92.3177 206.031 92.2422C205.841 92.1667 205.625 92.1289 205.383 92.1289C204.932 92.1289 204.586 92.2747 204.344 92.5664C204.102 92.8581 203.98 93.2747 203.98 93.8164C203.98 94.3555 204.102 94.7721 204.344 95.0664C204.589 95.3581 204.935 95.5039 205.383 95.5039C205.633 95.5039 205.857 95.4661 206.055 95.3906C206.253 95.3125 206.436 95.1927 206.605 95.0312V95.7773ZM211.656 93.4531V93.8047H208.543V93.8281C208.522 94.4245 208.635 94.8529 208.883 95.1133C209.133 95.3737 209.484 95.5039 209.938 95.5039C210.167 95.5039 210.406 95.4674 210.656 95.3945C210.906 95.3216 211.173 95.2109 211.457 95.0625V95.7773C211.184 95.8893 210.919 95.9727 210.664 96.0273C210.411 96.0846 210.167 96.1133 209.93 96.1133C209.25 96.1133 208.719 95.9102 208.336 95.5039C207.953 95.0951 207.762 94.5326 207.762 93.8164C207.762 93.1185 207.949 92.5612 208.324 92.1445C208.699 91.7279 209.199 91.5195 209.824 91.5195C210.382 91.5195 210.82 91.7083 211.141 92.0859C211.464 92.4635 211.635 92.9193 211.656 93.4531ZM210.938 93.2422C210.906 92.9401 210.796 92.6797 210.605 92.4609C210.418 92.2396 210.147 92.1289 209.793 92.1289C209.447 92.1289 209.161 92.2435 208.938 92.4727C208.714 92.7018 208.591 92.9596 208.57 93.2461L210.938 93.2422ZM215.902 91.7773V92.4805C215.697 92.3607 215.49 92.2708 215.281 92.2109C215.073 92.151 214.861 92.1211 214.645 92.1211C214.319 92.1211 214.076 92.1745 213.914 92.2812C213.755 92.3854 213.676 92.5456 213.676 92.7617C213.676 92.957 213.736 93.1029 213.855 93.1992C213.975 93.2956 214.273 93.3893 214.75 93.4805L215.039 93.5352C215.396 93.6029 215.665 93.7383 215.848 93.9414C216.033 94.1445 216.125 94.4089 216.125 94.7344C216.125 95.1667 215.971 95.5052 215.664 95.75C215.357 95.9922 214.93 96.1133 214.383 96.1133C214.167 96.1133 213.94 96.0898 213.703 96.043C213.466 95.9987 213.21 95.931 212.934 95.8398V95.0977C213.202 95.2357 213.458 95.3398 213.703 95.4102C213.948 95.4779 214.18 95.5117 214.398 95.5117C214.716 95.5117 214.962 95.4479 215.137 95.3203C215.311 95.1901 215.398 95.0091 215.398 94.7773C215.398 94.444 215.079 94.2135 214.441 94.0859L214.41 94.0781L214.141 94.0234C213.727 93.9427 213.424 93.8073 213.234 93.6172C213.044 93.4245 212.949 93.1628 212.949 92.832C212.949 92.4128 213.091 92.0898 213.375 91.8633C213.659 91.6341 214.064 91.5195 214.59 91.5195C214.824 91.5195 215.049 91.5417 215.266 91.5859C215.482 91.6276 215.694 91.6914 215.902 91.7773ZM220.723 91.7773V92.4805C220.517 92.3607 220.31 92.2708 220.102 92.2109C219.893 92.151 219.681 92.1211 219.465 92.1211C219.139 92.1211 218.896 92.1745 218.734 92.2812C218.576 92.3854 218.496 92.5456 218.496 92.7617C218.496 92.957 218.556 93.1029 218.676 93.1992C218.796 93.2956 219.094 93.3893 219.57 93.4805L219.859 93.5352C220.216 93.6029 220.486 93.7383 220.668 93.9414C220.853 94.1445 220.945 94.4089 220.945 94.7344C220.945 95.1667 220.792 95.5052 220.484 95.75C220.177 95.9922 219.75 96.1133 219.203 96.1133C218.987 96.1133 218.76 96.0898 218.523 96.043C218.286 95.9987 218.03 95.931 217.754 95.8398V95.0977C218.022 95.2357 218.279 95.3398 218.523 95.4102C218.768 95.4779 219 95.5117 219.219 95.5117C219.536 95.5117 219.783 95.4479 219.957 95.3203C220.132 95.1901 220.219 95.0091 220.219 94.7773C220.219 94.444 219.9 94.2135 219.262 94.0859L219.23 94.0781L218.961 94.0234C218.547 93.9427 218.245 93.8073 218.055 93.6172C217.865 93.4245 217.77 93.1628 217.77 92.832C217.77 92.4128 217.911 92.0898 218.195 91.8633C218.479 91.6341 218.884 91.5195 219.41 91.5195C219.645 91.5195 219.87 91.5417 220.086 91.5859C220.302 91.6276 220.514 91.6914 220.723 91.7773ZM222.977 91.6406H224.816V95.4414H226.242V96H222.672V95.4414H224.098V92.1992H222.977V91.6406ZM224.098 89.9414H224.816V90.8477H224.098V89.9414ZM230.668 93.2891V96H229.945V93.2891C229.945 92.8958 229.876 92.6068 229.738 92.4219C229.6 92.237 229.384 92.1445 229.09 92.1445C228.754 92.1445 228.495 92.2643 228.312 92.5039C228.133 92.7409 228.043 93.082 228.043 93.5273V96H227.324V91.625H228.043V92.2812C228.171 92.0312 228.344 91.8424 228.562 91.7148C228.781 91.5846 229.04 91.5195 229.34 91.5195C229.785 91.5195 230.117 91.6667 230.336 91.9609C230.557 92.2526 230.668 92.6953 230.668 93.2891ZM234.734 93.7773C234.734 93.2383 234.646 92.8294 234.469 92.5508C234.294 92.2695 234.039 92.1289 233.703 92.1289C233.352 92.1289 233.083 92.2695 232.898 92.5508C232.714 92.8294 232.621 93.2383 232.621 93.7773C232.621 94.3164 232.714 94.7279 232.898 95.0117C233.086 95.293 233.357 95.4336 233.711 95.4336C234.042 95.4336 234.294 95.2917 234.469 95.0078C234.646 94.724 234.734 94.3138 234.734 93.7773ZM235.453 95.7188C235.453 96.375 235.298 96.8724 234.988 97.2109C234.678 97.5495 234.223 97.7188 233.621 97.7188C233.423 97.7188 233.216 97.7005 233 97.6641C232.784 97.6276 232.568 97.5742 232.352 97.5039V96.793C232.607 96.9128 232.839 97.0013 233.047 97.0586C233.255 97.1159 233.447 97.1445 233.621 97.1445C234.009 97.1445 234.292 97.0391 234.469 96.8281C234.646 96.6172 234.734 96.2826 234.734 95.8242V95.793V95.3047C234.62 95.5495 234.464 95.7318 234.266 95.8516C234.068 95.9714 233.827 96.0312 233.543 96.0312C233.033 96.0312 232.625 95.8268 232.32 95.418C232.016 95.0091 231.863 94.4622 231.863 93.7773C231.863 93.0898 232.016 92.5417 232.32 92.1328C232.625 91.724 233.033 91.5195 233.543 91.5195C233.824 91.5195 234.062 91.5755 234.258 91.6875C234.453 91.7995 234.612 91.9727 234.734 92.207V91.6406H235.453V95.7188Z" fill="white"/>
<path d="M143.953 42.3672V43.168C143.714 43.0143 143.473 42.8984 143.23 42.8203C142.991 42.7422 142.749 42.7031 142.504 42.7031C142.132 42.7031 141.837 42.7904 141.621 42.9648C141.405 43.1367 141.297 43.3698 141.297 43.6641C141.297 43.9219 141.367 44.1185 141.508 44.2539C141.651 44.3893 141.917 44.5026 142.305 44.5938L142.719 44.6875C143.266 44.8151 143.664 45.0156 143.914 45.2891C144.164 45.5625 144.289 45.9349 144.289 46.4062C144.289 46.9609 144.117 47.3841 143.773 47.6758C143.43 47.9674 142.93 48.1133 142.273 48.1133C142 48.1133 141.725 48.0833 141.449 48.0234C141.173 47.9661 140.896 47.8789 140.617 47.7617V46.9219C140.917 47.112 141.199 47.2513 141.465 47.3398C141.733 47.4284 142.003 47.4727 142.273 47.4727C142.672 47.4727 142.982 47.3841 143.203 47.207C143.424 47.0273 143.535 46.7773 143.535 46.457C143.535 46.1654 143.458 45.9427 143.305 45.7891C143.154 45.6354 142.889 45.5169 142.512 45.4336L142.09 45.3359C141.548 45.2135 141.155 45.0286 140.91 44.7812C140.665 44.5339 140.543 44.2018 140.543 43.7852C140.543 43.2643 140.717 42.8477 141.066 42.5352C141.418 42.2201 141.884 42.0625 142.465 42.0625C142.689 42.0625 142.924 42.0885 143.172 42.1406C143.419 42.1901 143.68 42.2656 143.953 42.3672ZM149.195 45.4531V45.8047H146.082V45.8281C146.061 46.4245 146.174 46.8529 146.422 47.1133C146.672 47.3737 147.023 47.5039 147.477 47.5039C147.706 47.5039 147.945 47.4674 148.195 47.3945C148.445 47.3216 148.712 47.2109 148.996 47.0625V47.7773C148.723 47.8893 148.458 47.9727 148.203 48.0273C147.951 48.0846 147.706 48.1133 147.469 48.1133C146.789 48.1133 146.258 47.9102 145.875 47.5039C145.492 47.0951 145.301 46.5326 145.301 45.8164C145.301 45.1185 145.488 44.5612 145.863 44.1445C146.238 43.7279 146.738 43.5195 147.363 43.5195C147.921 43.5195 148.359 43.7083 148.68 44.0859C149.003 44.4635 149.174 44.9193 149.195 45.4531ZM148.477 45.2422C148.445 44.9401 148.335 44.6797 148.145 44.4609C147.957 44.2396 147.686 44.1289 147.332 44.1289C146.986 44.1289 146.701 44.2435 146.477 44.4727C146.253 44.7018 146.13 44.9596 146.109 45.2461L148.477 45.2422ZM150.938 45.832C150.938 46.3893 151.025 46.8099 151.199 47.0938C151.376 47.3776 151.638 47.5195 151.984 47.5195C152.331 47.5195 152.592 47.3776 152.77 47.0938C152.949 46.8073 153.039 46.3867 153.039 45.832C153.039 45.2773 152.949 44.8581 152.77 44.5742C152.592 44.2878 152.331 44.1445 151.984 44.1445C151.638 44.1445 151.376 44.2865 151.199 44.5703C151.025 44.8542 150.938 45.2747 150.938 45.832ZM153.039 47.457C152.922 47.6732 152.763 47.8398 152.562 47.957C152.365 48.0716 152.134 48.1289 151.871 48.1289C151.348 48.1289 150.934 47.9271 150.629 47.5234C150.327 47.1172 150.176 46.5586 150.176 45.8477C150.176 45.1237 150.327 44.5573 150.629 44.1484C150.931 43.7396 151.345 43.5352 151.871 43.5352C152.132 43.5352 152.361 43.5924 152.559 43.707C152.759 43.819 152.919 43.9831 153.039 44.1992V43.6406H153.762V49.6797H153.039V47.457ZM155.223 46.3438V43.6328H155.941V46.3438C155.941 46.737 156.01 47.026 156.148 47.2109C156.289 47.3958 156.505 47.4883 156.797 47.4883C157.135 47.4883 157.395 47.3698 157.574 47.1328C157.754 46.8932 157.844 46.5508 157.844 46.1055V43.6328H158.566V48H157.844V47.3438C157.716 47.5964 157.542 47.7878 157.32 47.918C157.102 48.0482 156.845 48.1133 156.551 48.1133C156.103 48.1133 155.77 47.9674 155.551 47.6758C155.332 47.3815 155.223 46.9375 155.223 46.3438ZM160.516 43.6406H162.355V47.4414H163.781V48H160.211V47.4414H161.637V44.1992H160.516V43.6406ZM161.637 41.9414H162.355V42.8477H161.637V41.9414ZM168.207 45.2891V48H167.484V45.2891C167.484 44.8958 167.415 44.6068 167.277 44.4219C167.139 44.237 166.923 44.1445 166.629 44.1445C166.293 44.1445 166.034 44.2643 165.852 44.5039C165.672 44.7409 165.582 45.082 165.582 45.5273V48H164.863V43.625H165.582V44.2812C165.71 44.0312 165.883 43.8424 166.102 43.7148C166.32 43.5846 166.579 43.5195 166.879 43.5195C167.324 43.5195 167.656 43.6667 167.875 43.9609C168.096 44.2526 168.207 44.6953 168.207 45.2891Z" fill="white"/>
<path d="M249.953 42.3672V43.168C249.714 43.0143 249.473 42.8984 249.23 42.8203C248.991 42.7422 248.749 42.7031 248.504 42.7031C248.132 42.7031 247.837 42.7904 247.621 42.9648C247.405 43.1367 247.297 43.3698 247.297 43.6641C247.297 43.9219 247.367 44.1185 247.508 44.2539C247.651 44.3893 247.917 44.5026 248.305 44.5938L248.719 44.6875C249.266 44.8151 249.664 45.0156 249.914 45.2891C250.164 45.5625 250.289 45.9349 250.289 46.4062C250.289 46.9609 250.117 47.3841 249.773 47.6758C249.43 47.9674 248.93 48.1133 248.273 48.1133C248 48.1133 247.725 48.0833 247.449 48.0234C247.173 47.9661 246.896 47.8789 246.617 47.7617V46.9219C246.917 47.112 247.199 47.2513 247.465 47.3398C247.733 47.4284 248.003 47.4727 248.273 47.4727C248.672 47.4727 248.982 47.3841 249.203 47.207C249.424 47.0273 249.535 46.7773 249.535 46.457C249.535 46.1654 249.458 45.9427 249.305 45.7891C249.154 45.6354 248.889 45.5169 248.512 45.4336L248.09 45.3359C247.548 45.2135 247.155 45.0286 246.91 44.7812C246.665 44.5339 246.543 44.2018 246.543 43.7852C246.543 43.2643 246.717 42.8477 247.066 42.5352C247.418 42.2201 247.884 42.0625 248.465 42.0625C248.689 42.0625 248.924 42.0885 249.172 42.1406C249.419 42.1901 249.68 42.2656 249.953 42.3672ZM252.055 43.6406H253.895V47.4414H255.32V48H251.75V47.4414H253.176V44.1992H252.055V43.6406ZM253.176 41.9414H253.895V42.8477H253.176V41.9414ZM259.746 45.2891V48H259.023V45.2891C259.023 44.8958 258.954 44.6068 258.816 44.4219C258.678 44.237 258.462 44.1445 258.168 44.1445C257.832 44.1445 257.573 44.2643 257.391 44.5039C257.211 44.7409 257.121 45.082 257.121 45.5273V48H256.402V43.625H257.121V44.2812C257.249 44.0312 257.422 43.8424 257.641 43.7148C257.859 43.5846 258.118 43.5195 258.418 43.5195C258.863 43.5195 259.195 43.6667 259.414 43.9609C259.635 44.2526 259.746 44.6953 259.746 45.2891ZM261.383 41.9219H262.125V45.4414L264.012 43.625H264.887L263.164 45.2734L265.156 48H264.277L262.66 45.7422L262.125 46.2461V48H261.383V41.9219Z" fill="white"/>
</svg>
