<svg width="563" height="119" viewBox="0 0 563 119" fill="none" xmlns="http://www.w3.org/2000/svg">
<rect width="563" height="119" fill="black"/>
<rect x="123.5" y="16.5" width="316" height="89" stroke="white" stroke-dasharray="1 1"/>
<path d="M120 60L115.897 56M120 60L115.897 64M120 60H80" stroke="white" stroke-dasharray="1 1"/>
<rect x="19.5" y="38.5" width="59" height="42" stroke="white" stroke-dasharray="1 1"/>
<path d="M31.5586 56.8164V59.0078H32.4727C32.8372 59.0078 33.1211 58.9115 33.3242 58.7188C33.5299 58.526 33.6328 58.2565 33.6328 57.9102C33.6328 57.5638 33.5312 57.2956 33.3281 57.1055C33.125 56.9128 32.8398 56.8164 32.4727 56.8164H31.5586ZM30.7695 56.168H32.4727C33.1237 56.168 33.6172 56.3164 33.9531 56.6133C34.2891 56.9076 34.457 57.3398 34.457 57.9102C34.457 58.4857 34.2891 58.9206 33.9531 59.2148C33.6198 59.5091 33.1263 59.6562 32.4727 59.6562H31.5586V62H30.7695V56.168ZM37.2266 58.1289C36.862 58.1289 36.5859 58.2708 36.3984 58.5547C36.2109 58.8385 36.1172 59.2591 36.1172 59.8164C36.1172 60.3711 36.2109 60.7917 36.3984 61.0781C36.5859 61.362 36.862 61.5039 37.2266 61.5039C37.5938 61.5039 37.8711 61.362 38.0586 61.0781C38.2461 60.7917 38.3398 60.3711 38.3398 59.8164C38.3398 59.2591 38.2461 58.8385 38.0586 58.5547C37.8711 58.2708 37.5938 58.1289 37.2266 58.1289ZM37.2266 57.5195C37.8333 57.5195 38.2969 57.7161 38.6172 58.1094C38.9401 58.5026 39.1016 59.0716 39.1016 59.8164C39.1016 60.5638 38.9414 61.1341 38.6211 61.5273C38.3008 61.918 37.8359 62.1133 37.2266 62.1133C36.6198 62.1133 36.1562 61.918 35.8359 61.5273C35.5156 61.1341 35.3555 60.5638 35.3555 59.8164C35.3555 59.0716 35.5156 58.5026 35.8359 58.1094C36.1562 57.7161 36.6198 57.5195 37.2266 57.5195ZM43.4414 57.7773V58.4805C43.2357 58.3607 43.0286 58.2708 42.8203 58.2109C42.612 58.151 42.3997 58.1211 42.1836 58.1211C41.8581 58.1211 41.6146 58.1745 41.4531 58.2812C41.2943 58.3854 41.2148 58.5456 41.2148 58.7617C41.2148 58.957 41.2747 59.1029 41.3945 59.1992C41.5143 59.2956 41.8125 59.3893 42.2891 59.4805L42.5781 59.5352C42.9349 59.6029 43.2044 59.7383 43.3867 59.9414C43.5716 60.1445 43.6641 60.4089 43.6641 60.7344C43.6641 61.1667 43.5104 61.5052 43.2031 61.75C42.8958 61.9922 42.4688 62.1133 41.9219 62.1133C41.7057 62.1133 41.4792 62.0898 41.2422 62.043C41.0052 61.9987 40.7487 61.931 40.4727 61.8398V61.0977C40.7409 61.2357 40.9974 61.3398 41.2422 61.4102C41.487 61.4779 41.7188 61.5117 41.9375 61.5117C42.2552 61.5117 42.5013 61.4479 42.6758 61.3203C42.8503 61.1901 42.9375 61.0091 42.9375 60.7773C42.9375 60.444 42.6185 60.2135 41.9805 60.0859L41.9492 60.0781L41.6797 60.0234C41.2656 59.9427 40.9635 59.8073 40.7734 59.6172C40.5833 59.4245 40.4883 59.1628 40.4883 58.832C40.4883 58.4128 40.6302 58.0898 40.9141 57.8633C41.1979 57.6341 41.6029 57.5195 42.1289 57.5195C42.3633 57.5195 42.5885 57.5417 42.8047 57.5859C43.0208 57.6276 43.2331 57.6914 43.4414 57.7773ZM46.8594 56.3828V57.625H48.4922V58.1836H46.8594V60.5586C46.8594 60.8815 46.9206 61.1068 47.043 61.2344C47.1654 61.362 47.3789 61.4258 47.6836 61.4258H48.4922V62H47.6133C47.0742 62 46.694 61.8919 46.4727 61.6758C46.2513 61.4596 46.1406 61.0872 46.1406 60.5586V58.1836H44.9727V57.625H46.1406V56.3828H46.8594ZM52.6328 59.7773C52.6328 59.2383 52.5443 58.8294 52.3672 58.5508C52.1927 58.2695 51.9375 58.1289 51.6016 58.1289C51.25 58.1289 50.9818 58.2695 50.7969 58.5508C50.612 58.8294 50.5195 59.2383 50.5195 59.7773C50.5195 60.3164 50.612 60.7279 50.7969 61.0117C50.9844 61.293 51.2552 61.4336 51.6094 61.4336C51.9401 61.4336 52.1927 61.2917 52.3672 61.0078C52.5443 60.724 52.6328 60.3138 52.6328 59.7773ZM53.3516 61.7188C53.3516 62.375 53.1966 62.8724 52.8867 63.2109C52.5768 63.5495 52.1211 63.7188 51.5195 63.7188C51.3216 63.7188 51.1146 63.7005 50.8984 63.6641C50.6823 63.6276 50.4661 63.5742 50.25 63.5039V62.793C50.5052 62.9128 50.737 63.0013 50.9453 63.0586C51.1536 63.1159 51.3451 63.1445 51.5195 63.1445C51.9076 63.1445 52.1901 63.0391 52.3672 62.8281C52.5443 62.6172 52.6328 62.2826 52.6328 61.8242V61.793V61.3047C52.5182 61.5495 52.362 61.7318 52.1641 61.8516C51.9661 61.9714 51.7253 62.0312 51.4414 62.0312C50.931 62.0312 50.5234 61.8268 50.2188 61.418C49.9141 61.0091 49.7617 60.4622 49.7617 59.7773C49.7617 59.0898 49.9141 58.5417 50.2188 58.1328C50.5234 57.724 50.931 57.5195 51.4414 57.5195C51.7227 57.5195 51.9609 57.5755 52.1562 57.6875C52.3516 57.7995 52.5104 57.9727 52.6328 58.207V57.6406H53.3516V61.7188ZM58.6133 58.5273C58.4596 58.4076 58.3034 58.3203 58.1445 58.2656C57.9857 58.2109 57.8112 58.1836 57.6211 58.1836C57.1732 58.1836 56.8307 58.3242 56.5938 58.6055C56.3568 58.8867 56.2383 59.293 56.2383 59.8242V62H55.5156V57.625H56.2383V58.4805C56.3581 58.1706 56.5417 57.9336 56.7891 57.7695C57.0391 57.6029 57.3346 57.5195 57.6758 57.5195C57.8529 57.5195 58.0182 57.5417 58.1719 57.5859C58.3255 57.6302 58.4727 57.6992 58.6133 57.793V58.5273ZM63.2969 59.4531V59.8047H60.1836V59.8281C60.1628 60.4245 60.276 60.8529 60.5234 61.1133C60.7734 61.3737 61.125 61.5039 61.5781 61.5039C61.8073 61.5039 62.0469 61.4674 62.2969 61.3945C62.5469 61.3216 62.8138 61.2109 63.0977 61.0625V61.7773C62.8242 61.8893 62.5599 61.9727 62.3047 62.0273C62.0521 62.0846 61.8073 62.1133 61.5703 62.1133C60.8906 62.1133 60.3594 61.9102 59.9766 61.5039C59.5938 61.0951 59.4023 60.5326 59.4023 59.8164C59.4023 59.1185 59.5898 58.5612 59.9648 58.1445C60.3398 57.7279 60.8398 57.5195 61.4648 57.5195C62.0221 57.5195 62.4609 57.7083 62.7812 58.0859C63.1042 58.4635 63.276 58.9193 63.2969 59.4531ZM62.5781 59.2422C62.5469 58.9401 62.4362 58.6797 62.2461 58.4609C62.0586 58.2396 61.7878 58.1289 61.4336 58.1289C61.0872 58.1289 60.8021 58.2435 60.5781 58.4727C60.3542 58.7018 60.2318 58.9596 60.2109 59.2461L62.5781 59.2422ZM67.543 57.7773V58.4805C67.3372 58.3607 67.1302 58.2708 66.9219 58.2109C66.7135 58.151 66.5013 58.1211 66.2852 58.1211C65.9596 58.1211 65.7161 58.1745 65.5547 58.2812C65.3958 58.3854 65.3164 58.5456 65.3164 58.7617C65.3164 58.957 65.3763 59.1029 65.4961 59.1992C65.6159 59.2956 65.9141 59.3893 66.3906 59.4805L66.6797 59.5352C67.0365 59.6029 67.306 59.7383 67.4883 59.9414C67.6732 60.1445 67.7656 60.4089 67.7656 60.7344C67.7656 61.1667 67.612 61.5052 67.3047 61.75C66.9974 61.9922 66.5703 62.1133 66.0234 62.1133C65.8073 62.1133 65.5807 62.0898 65.3438 62.043C65.1068 61.9987 64.8503 61.931 64.5742 61.8398V61.0977C64.8424 61.2357 65.099 61.3398 65.3438 61.4102C65.5885 61.4779 65.8203 61.5117 66.0391 61.5117C66.3568 61.5117 66.6029 61.4479 66.7773 61.3203C66.9518 61.1901 67.0391 61.0091 67.0391 60.7773C67.0391 60.444 66.7201 60.2135 66.082 60.0859L66.0508 60.0781L65.7812 60.0234C65.3672 59.9427 65.0651 59.8073 64.875 59.6172C64.6849 59.4245 64.5898 59.1628 64.5898 58.832C64.5898 58.4128 64.7318 58.0898 65.0156 57.8633C65.2995 57.6341 65.7044 57.5195 66.2305 57.5195C66.4648 57.5195 66.6901 57.5417 66.9062 57.5859C67.1224 57.6276 67.3346 57.6914 67.543 57.7773Z" fill="white"/>
<rect x="136.5" y="38.5" width="59" height="42" stroke="white" stroke-dasharray="1 1"/>
<path d="M151.91 56.168H155.344V56.832H152.703V58.3945H155.098V59.0586H152.703V62H151.91V56.168ZM157.055 57.6406H158.895V61.4414H160.32V62H156.75V61.4414H158.176V58.1992H157.055V57.6406ZM158.176 55.9414H158.895V56.8477H158.176V55.9414ZM163.449 60.418C163.449 60.7409 163.508 60.9844 163.625 61.1484C163.745 61.3125 163.921 61.3945 164.152 61.3945H164.992V62H164.082C163.652 62 163.319 61.8633 163.082 61.5898C162.848 61.3138 162.73 60.9232 162.73 60.418V56.4609H161.578V55.8984H163.449V60.418ZM167.859 56.3828V57.625H169.492V58.1836H167.859V60.5586C167.859 60.8815 167.921 61.1068 168.043 61.2344C168.165 61.362 168.379 61.4258 168.684 61.4258H169.492V62H168.613C168.074 62 167.694 61.8919 167.473 61.6758C167.251 61.4596 167.141 61.0872 167.141 60.5586V58.1836H165.973V57.625H167.141V56.3828H167.859ZM174.656 59.4531V59.8047H171.543V59.8281C171.522 60.4245 171.635 60.8529 171.883 61.1133C172.133 61.3737 172.484 61.5039 172.938 61.5039C173.167 61.5039 173.406 61.4674 173.656 61.3945C173.906 61.3216 174.173 61.2109 174.457 61.0625V61.7773C174.184 61.8893 173.919 61.9727 173.664 62.0273C173.411 62.0846 173.167 62.1133 172.93 62.1133C172.25 62.1133 171.719 61.9102 171.336 61.5039C170.953 61.0951 170.762 60.5326 170.762 59.8164C170.762 59.1185 170.949 58.5612 171.324 58.1445C171.699 57.7279 172.199 57.5195 172.824 57.5195C173.382 57.5195 173.82 57.7083 174.141 58.0859C174.464 58.4635 174.635 58.9193 174.656 59.4531ZM173.938 59.2422C173.906 58.9401 173.796 58.6797 173.605 58.4609C173.418 58.2396 173.147 58.1289 172.793 58.1289C172.447 58.1289 172.161 58.2435 171.938 58.4727C171.714 58.7018 171.591 58.9596 171.57 59.2461L173.938 59.2422ZM179.613 58.5273C179.46 58.4076 179.303 58.3203 179.145 58.2656C178.986 58.2109 178.811 58.1836 178.621 58.1836C178.173 58.1836 177.831 58.3242 177.594 58.6055C177.357 58.8867 177.238 59.293 177.238 59.8242V62H176.516V57.625H177.238V58.4805C177.358 58.1706 177.542 57.9336 177.789 57.7695C178.039 57.6029 178.335 57.5195 178.676 57.5195C178.853 57.5195 179.018 57.5417 179.172 57.5859C179.326 57.6302 179.473 57.6992 179.613 57.793V58.5273Z" fill="white"/>
<rect x="212.5" y="38.5" width="59" height="42" stroke="white" stroke-dasharray="1 1"/>
<path d="M227.77 56.168H231.23V56.832H228.559V58.4023H231.113V59.0664H228.559V61.3359H231.305V62H227.77V56.168ZM235.926 59.2891V62H235.203V59.2891C235.203 58.8958 235.134 58.6068 234.996 58.4219C234.858 58.237 234.642 58.1445 234.348 58.1445C234.012 58.1445 233.753 58.2643 233.57 58.5039C233.391 58.7409 233.301 59.082 233.301 59.5273V62H232.582V57.625H233.301V58.2812C233.428 58.0312 233.602 57.8424 233.82 57.7148C234.039 57.5846 234.298 57.5195 234.598 57.5195C235.043 57.5195 235.375 57.6667 235.594 57.9609C235.815 58.2526 235.926 58.6953 235.926 59.2891ZM241.152 58.5273C240.999 58.4076 240.842 58.3203 240.684 58.2656C240.525 58.2109 240.35 58.1836 240.16 58.1836C239.712 58.1836 239.37 58.3242 239.133 58.6055C238.896 58.8867 238.777 59.293 238.777 59.8242V62H238.055V57.625H238.777V58.4805C238.897 58.1706 239.081 57.9336 239.328 57.7695C239.578 57.6029 239.874 57.5195 240.215 57.5195C240.392 57.5195 240.557 57.5417 240.711 57.5859C240.865 57.6302 241.012 57.6992 241.152 57.793V58.5273ZM242.695 57.6406H244.535V61.4414H245.961V62H242.391V61.4414H243.816V58.1992H242.695V57.6406ZM243.816 55.9414H244.535V56.8477H243.816V55.9414ZM250.426 61.7773C250.233 61.8893 250.034 61.9727 249.828 62.0273C249.625 62.0846 249.417 62.1133 249.203 62.1133C248.526 62.1133 247.996 61.9102 247.613 61.5039C247.233 61.0977 247.043 60.5352 247.043 59.8164C247.043 59.0977 247.233 58.5352 247.613 58.1289C247.996 57.7227 248.526 57.5195 249.203 57.5195C249.414 57.5195 249.62 57.5469 249.82 57.6016C250.021 57.6562 250.223 57.7409 250.426 57.8555V58.6094C250.236 58.4401 250.044 58.3177 249.852 58.2422C249.661 58.1667 249.445 58.1289 249.203 58.1289C248.753 58.1289 248.406 58.2747 248.164 58.5664C247.922 58.8581 247.801 59.2747 247.801 59.8164C247.801 60.3555 247.922 60.7721 248.164 61.0664C248.409 61.3581 248.755 61.5039 249.203 61.5039C249.453 61.5039 249.677 61.4661 249.875 61.3906C250.073 61.3125 250.257 61.1927 250.426 61.0312V61.7773ZM255.207 59.2891V62H254.484V59.2891C254.484 58.8958 254.415 58.6068 254.277 58.4219C254.139 58.237 253.923 58.1445 253.629 58.1445C253.293 58.1445 253.034 58.2643 252.852 58.5039C252.672 58.7409 252.582 59.082 252.582 59.5273V62H251.863V55.9219H252.582V58.2812C252.71 58.0312 252.883 57.8424 253.102 57.7148C253.32 57.5846 253.579 57.5195 253.879 57.5195C254.324 57.5195 254.656 57.6667 254.875 57.9609C255.096 58.2526 255.207 58.6953 255.207 59.2891Z" fill="white"/>
<path d="M93 65.168H93.7695L94.3281 69.9023L94.9922 66.7695H95.8164L96.4883 69.9102L97.0469 65.168H97.8164L96.9453 71H96.1992L95.4062 67.5352L94.6172 71H93.8711L93 65.168ZM100.227 65.8633L99.3945 68.8477H101.059L100.227 65.8633ZM99.75 65.168H100.707L102.492 71H101.676L101.246 69.4805H99.2031L98.7812 71H97.9648L99.75 65.168ZM103.48 65.168H104.273V70.3359H107.09V71H103.48V65.168Z" fill="white"/>
<path d="M405.953 92.3672V93.168C405.714 93.0143 405.473 92.8984 405.23 92.8203C404.991 92.7422 404.749 92.7031 404.504 92.7031C404.132 92.7031 403.837 92.7904 403.621 92.9648C403.405 93.1367 403.297 93.3698 403.297 93.6641C403.297 93.9219 403.367 94.1185 403.508 94.2539C403.651 94.3893 403.917 94.5026 404.305 94.5938L404.719 94.6875C405.266 94.8151 405.664 95.0156 405.914 95.2891C406.164 95.5625 406.289 95.9349 406.289 96.4062C406.289 96.9609 406.117 97.3841 405.773 97.6758C405.43 97.9674 404.93 98.1133 404.273 98.1133C404 98.1133 403.725 98.0833 403.449 98.0234C403.173 97.9661 402.896 97.8789 402.617 97.7617V96.9219C402.917 97.112 403.199 97.2513 403.465 97.3398C403.733 97.4284 404.003 97.4727 404.273 97.4727C404.672 97.4727 404.982 97.3841 405.203 97.207C405.424 97.0273 405.535 96.7773 405.535 96.457C405.535 96.1654 405.458 95.9427 405.305 95.7891C405.154 95.6354 404.889 95.5169 404.512 95.4336L404.09 95.3359C403.548 95.2135 403.155 95.0286 402.91 94.7812C402.665 94.5339 402.543 94.2018 402.543 93.7852C402.543 93.2643 402.717 92.8477 403.066 92.5352C403.418 92.2201 403.884 92.0625 404.465 92.0625C404.689 92.0625 404.924 92.0885 405.172 92.1406C405.419 92.1901 405.68 92.2656 405.953 92.3672ZM411.195 95.4531V95.8047H408.082V95.8281C408.061 96.4245 408.174 96.8529 408.422 97.1133C408.672 97.3737 409.023 97.5039 409.477 97.5039C409.706 97.5039 409.945 97.4674 410.195 97.3945C410.445 97.3216 410.712 97.2109 410.996 97.0625V97.7773C410.723 97.8893 410.458 97.9727 410.203 98.0273C409.951 98.0846 409.706 98.1133 409.469 98.1133C408.789 98.1133 408.258 97.9102 407.875 97.5039C407.492 97.0951 407.301 96.5326 407.301 95.8164C407.301 95.1185 407.488 94.5612 407.863 94.1445C408.238 93.7279 408.738 93.5195 409.363 93.5195C409.921 93.5195 410.359 93.7083 410.68 94.0859C411.003 94.4635 411.174 94.9193 411.195 95.4531ZM410.477 95.2422C410.445 94.9401 410.335 94.6797 410.145 94.4609C409.957 94.2396 409.686 94.1289 409.332 94.1289C408.986 94.1289 408.701 94.2435 408.477 94.4727C408.253 94.7018 408.13 94.9596 408.109 95.2461L410.477 95.2422ZM412.938 95.832C412.938 96.3893 413.025 96.8099 413.199 97.0938C413.376 97.3776 413.638 97.5195 413.984 97.5195C414.331 97.5195 414.592 97.3776 414.77 97.0938C414.949 96.8073 415.039 96.3867 415.039 95.832C415.039 95.2773 414.949 94.8581 414.77 94.5742C414.592 94.2878 414.331 94.1445 413.984 94.1445C413.638 94.1445 413.376 94.2865 413.199 94.5703C413.025 94.8542 412.938 95.2747 412.938 95.832ZM415.039 97.457C414.922 97.6732 414.763 97.8398 414.562 97.957C414.365 98.0716 414.134 98.1289 413.871 98.1289C413.348 98.1289 412.934 97.9271 412.629 97.5234C412.327 97.1172 412.176 96.5586 412.176 95.8477C412.176 95.1237 412.327 94.5573 412.629 94.1484C412.931 93.7396 413.345 93.5352 413.871 93.5352C414.132 93.5352 414.361 93.5924 414.559 93.707C414.759 93.819 414.919 93.9831 415.039 94.1992V93.6406H415.762V99.6797H415.039V97.457ZM417.223 96.3438V93.6328H417.941V96.3438C417.941 96.737 418.01 97.026 418.148 97.2109C418.289 97.3958 418.505 97.4883 418.797 97.4883C419.135 97.4883 419.395 97.3698 419.574 97.1328C419.754 96.8932 419.844 96.5508 419.844 96.1055V93.6328H420.566V98H419.844V97.3438C419.716 97.5964 419.542 97.7878 419.32 97.918C419.102 98.0482 418.845 98.1133 418.551 98.1133C418.103 98.1133 417.77 97.9674 417.551 97.6758C417.332 97.3815 417.223 96.9375 417.223 96.3438ZM422.516 93.6406H424.355V97.4414H425.781V98H422.211V97.4414H423.637V94.1992H422.516V93.6406ZM423.637 91.9414H424.355V92.8477H423.637V91.9414ZM430.207 95.2891V98H429.484V95.2891C429.484 94.8958 429.415 94.6068 429.277 94.4219C429.139 94.237 428.923 94.1445 428.629 94.1445C428.293 94.1445 428.034 94.2643 427.852 94.5039C427.672 94.7409 427.582 95.082 427.582 95.5273V98H426.863V93.625H427.582V94.2812C427.71 94.0312 427.883 93.8424 428.102 93.7148C428.32 93.5846 428.579 93.5195 428.879 93.5195C429.324 93.5195 429.656 93.6667 429.875 93.9609C430.096 94.2526 430.207 94.6953 430.207 95.2891Z" fill="white"/>
<rect x="289.5" y="38.5" width="59" height="42" stroke="white" stroke-dasharray="1 1"/>
<path d="M297.184 56.168H301.633V56.832H299.809V62H299.016V56.832H297.184V56.168ZM306.332 58.5273C306.178 58.4076 306.022 58.3203 305.863 58.2656C305.704 58.2109 305.53 58.1836 305.34 58.1836C304.892 58.1836 304.549 58.3242 304.312 58.6055C304.076 58.8867 303.957 59.293 303.957 59.8242V62H303.234V57.625H303.957V58.4805C304.077 58.1706 304.26 57.9336 304.508 57.7695C304.758 57.6029 305.053 57.5195 305.395 57.5195C305.572 57.5195 305.737 57.5417 305.891 57.5859C306.044 57.6302 306.191 57.6992 306.332 57.793V58.5273ZM309.383 59.8008H309.145C308.725 59.8008 308.409 59.875 308.195 60.0234C307.984 60.1693 307.879 60.388 307.879 60.6797C307.879 60.9427 307.958 61.1471 308.117 61.293C308.276 61.4388 308.496 61.5117 308.777 61.5117C309.173 61.5117 309.484 61.375 309.711 61.1016C309.938 60.8255 310.052 60.4453 310.055 59.9609V59.8008H309.383ZM310.777 59.5039V62H310.055V61.3516C309.901 61.612 309.707 61.8047 309.473 61.9297C309.241 62.0521 308.958 62.1133 308.625 62.1133C308.18 62.1133 307.824 61.9883 307.559 61.7383C307.293 61.4857 307.16 61.1484 307.16 60.7266C307.16 60.2396 307.323 59.8698 307.648 59.6172C307.977 59.3646 308.457 59.2383 309.09 59.2383H310.055V59.125C310.052 58.776 309.964 58.5234 309.789 58.3672C309.615 58.2083 309.336 58.1289 308.953 58.1289C308.708 58.1289 308.461 58.1641 308.211 58.2344C307.961 58.3047 307.717 58.4076 307.48 58.543V57.8242C307.746 57.7227 308 57.6471 308.242 57.5977C308.487 57.5456 308.724 57.5195 308.953 57.5195C309.315 57.5195 309.624 57.5729 309.879 57.6797C310.137 57.7865 310.345 57.9466 310.504 58.1602C310.603 58.2904 310.673 58.4518 310.715 58.6445C310.757 58.8346 310.777 59.1211 310.777 59.5039ZM315.566 59.2891V62H314.844V59.2891C314.844 58.8958 314.775 58.6068 314.637 58.4219C314.499 58.237 314.283 58.1445 313.988 58.1445C313.652 58.1445 313.393 58.2643 313.211 58.5039C313.031 58.7409 312.941 59.082 312.941 59.5273V62H312.223V57.625H312.941V58.2812C313.069 58.0312 313.242 57.8424 313.461 57.7148C313.68 57.5846 313.939 57.5195 314.238 57.5195C314.684 57.5195 315.016 57.6667 315.234 57.9609C315.456 58.2526 315.566 58.6953 315.566 59.2891ZM320.082 57.7773V58.4805C319.876 58.3607 319.669 58.2708 319.461 58.2109C319.253 58.151 319.04 58.1211 318.824 58.1211C318.499 58.1211 318.255 58.1745 318.094 58.2812C317.935 58.3854 317.855 58.5456 317.855 58.7617C317.855 58.957 317.915 59.1029 318.035 59.1992C318.155 59.2956 318.453 59.3893 318.93 59.4805L319.219 59.5352C319.576 59.6029 319.845 59.7383 320.027 59.9414C320.212 60.1445 320.305 60.4089 320.305 60.7344C320.305 61.1667 320.151 61.5052 319.844 61.75C319.536 61.9922 319.109 62.1133 318.562 62.1133C318.346 62.1133 318.12 62.0898 317.883 62.043C317.646 61.9987 317.389 61.931 317.113 61.8398V61.0977C317.382 61.2357 317.638 61.3398 317.883 61.4102C318.128 61.4779 318.359 61.5117 318.578 61.5117C318.896 61.5117 319.142 61.4479 319.316 61.3203C319.491 61.1901 319.578 61.0091 319.578 60.7773C319.578 60.444 319.259 60.2135 318.621 60.0859L318.59 60.0781L318.32 60.0234C317.906 59.9427 317.604 59.8073 317.414 59.6172C317.224 59.4245 317.129 59.1628 317.129 58.832C317.129 58.4128 317.271 58.0898 317.555 57.8633C317.839 57.6341 318.243 57.5195 318.77 57.5195C319.004 57.5195 319.229 57.5417 319.445 57.5859C319.661 57.6276 319.874 57.6914 320.082 57.7773ZM325.254 55.9219V56.5195H324.438C324.18 56.5195 324 56.5729 323.898 56.6797C323.799 56.7839 323.75 56.9701 323.75 57.2383V57.625H325.254V58.1836H323.75V62H323.031V58.1836H321.863V57.625H323.031V57.3203C323.031 56.8411 323.141 56.4883 323.359 56.2617C323.581 56.0352 323.924 55.9219 324.391 55.9219H325.254ZM328.328 58.1289C327.964 58.1289 327.688 58.2708 327.5 58.5547C327.312 58.8385 327.219 59.2591 327.219 59.8164C327.219 60.3711 327.312 60.7917 327.5 61.0781C327.688 61.362 327.964 61.5039 328.328 61.5039C328.695 61.5039 328.973 61.362 329.16 61.0781C329.348 60.7917 329.441 60.3711 329.441 59.8164C329.441 59.2591 329.348 58.8385 329.16 58.5547C328.973 58.2708 328.695 58.1289 328.328 58.1289ZM328.328 57.5195C328.935 57.5195 329.398 57.7161 329.719 58.1094C330.042 58.5026 330.203 59.0716 330.203 59.8164C330.203 60.5638 330.043 61.1341 329.723 61.5273C329.402 61.918 328.938 62.1133 328.328 62.1133C327.721 62.1133 327.258 61.918 326.938 61.5273C326.617 61.1341 326.457 60.5638 326.457 59.8164C326.457 59.0716 326.617 58.5026 326.938 58.1094C327.258 57.7161 327.721 57.5195 328.328 57.5195ZM335.254 58.5273C335.1 58.4076 334.944 58.3203 334.785 58.2656C334.626 58.2109 334.452 58.1836 334.262 58.1836C333.814 58.1836 333.471 58.3242 333.234 58.6055C332.997 58.8867 332.879 59.293 332.879 59.8242V62H332.156V57.625H332.879V58.4805C332.999 58.1706 333.182 57.9336 333.43 57.7695C333.68 57.6029 333.975 57.5195 334.316 57.5195C334.493 57.5195 334.659 57.5417 334.812 57.5859C334.966 57.6302 335.113 57.6992 335.254 57.793V58.5273ZM338.203 58.0703C338.292 57.8828 338.404 57.7448 338.539 57.6562C338.677 57.5651 338.842 57.5195 339.035 57.5195C339.387 57.5195 339.634 57.6562 339.777 57.9297C339.923 58.2005 339.996 58.7122 339.996 59.4648V62H339.34V59.4961C339.34 58.8789 339.305 58.4961 339.234 58.3477C339.167 58.1966 339.042 58.1211 338.859 58.1211C338.651 58.1211 338.508 58.2018 338.43 58.3633C338.354 58.5221 338.316 58.8997 338.316 59.4961V62H337.66V59.4961C337.66 58.8711 337.622 58.4857 337.547 58.3398C337.474 58.194 337.341 58.1211 337.148 58.1211C336.958 58.1211 336.826 58.2018 336.75 58.3633C336.677 58.5221 336.641 58.8997 336.641 59.4961V62H335.988V57.625H336.641V58C336.727 57.8438 336.833 57.7253 336.961 57.6445C337.091 57.5612 337.238 57.5195 337.402 57.5195C337.6 57.5195 337.764 57.5651 337.895 57.6562C338.027 57.7474 338.13 57.8854 338.203 58.0703Z" fill="white"/>
<rect x="289.5" y="38.5" width="59" height="42" stroke="white" stroke-dasharray="1 1"/>
<path d="M297.184 56.168H301.633V56.832H299.809V62H299.016V56.832H297.184V56.168ZM306.332 58.5273C306.178 58.4076 306.022 58.3203 305.863 58.2656C305.704 58.2109 305.53 58.1836 305.34 58.1836C304.892 58.1836 304.549 58.3242 304.312 58.6055C304.076 58.8867 303.957 59.293 303.957 59.8242V62H303.234V57.625H303.957V58.4805C304.077 58.1706 304.26 57.9336 304.508 57.7695C304.758 57.6029 305.053 57.5195 305.395 57.5195C305.572 57.5195 305.737 57.5417 305.891 57.5859C306.044 57.6302 306.191 57.6992 306.332 57.793V58.5273ZM309.383 59.8008H309.145C308.725 59.8008 308.409 59.875 308.195 60.0234C307.984 60.1693 307.879 60.388 307.879 60.6797C307.879 60.9427 307.958 61.1471 308.117 61.293C308.276 61.4388 308.496 61.5117 308.777 61.5117C309.173 61.5117 309.484 61.375 309.711 61.1016C309.938 60.8255 310.052 60.4453 310.055 59.9609V59.8008H309.383ZM310.777 59.5039V62H310.055V61.3516C309.901 61.612 309.707 61.8047 309.473 61.9297C309.241 62.0521 308.958 62.1133 308.625 62.1133C308.18 62.1133 307.824 61.9883 307.559 61.7383C307.293 61.4857 307.16 61.1484 307.16 60.7266C307.16 60.2396 307.323 59.8698 307.648 59.6172C307.977 59.3646 308.457 59.2383 309.09 59.2383H310.055V59.125C310.052 58.776 309.964 58.5234 309.789 58.3672C309.615 58.2083 309.336 58.1289 308.953 58.1289C308.708 58.1289 308.461 58.1641 308.211 58.2344C307.961 58.3047 307.717 58.4076 307.48 58.543V57.8242C307.746 57.7227 308 57.6471 308.242 57.5977C308.487 57.5456 308.724 57.5195 308.953 57.5195C309.315 57.5195 309.624 57.5729 309.879 57.6797C310.137 57.7865 310.345 57.9466 310.504 58.1602C310.603 58.2904 310.673 58.4518 310.715 58.6445C310.757 58.8346 310.777 59.1211 310.777 59.5039ZM315.566 59.2891V62H314.844V59.2891C314.844 58.8958 314.775 58.6068 314.637 58.4219C314.499 58.237 314.283 58.1445 313.988 58.1445C313.652 58.1445 313.393 58.2643 313.211 58.5039C313.031 58.7409 312.941 59.082 312.941 59.5273V62H312.223V57.625H312.941V58.2812C313.069 58.0312 313.242 57.8424 313.461 57.7148C313.68 57.5846 313.939 57.5195 314.238 57.5195C314.684 57.5195 315.016 57.6667 315.234 57.9609C315.456 58.2526 315.566 58.6953 315.566 59.2891ZM320.082 57.7773V58.4805C319.876 58.3607 319.669 58.2708 319.461 58.2109C319.253 58.151 319.04 58.1211 318.824 58.1211C318.499 58.1211 318.255 58.1745 318.094 58.2812C317.935 58.3854 317.855 58.5456 317.855 58.7617C317.855 58.957 317.915 59.1029 318.035 59.1992C318.155 59.2956 318.453 59.3893 318.93 59.4805L319.219 59.5352C319.576 59.6029 319.845 59.7383 320.027 59.9414C320.212 60.1445 320.305 60.4089 320.305 60.7344C320.305 61.1667 320.151 61.5052 319.844 61.75C319.536 61.9922 319.109 62.1133 318.562 62.1133C318.346 62.1133 318.12 62.0898 317.883 62.043C317.646 61.9987 317.389 61.931 317.113 61.8398V61.0977C317.382 61.2357 317.638 61.3398 317.883 61.4102C318.128 61.4779 318.359 61.5117 318.578 61.5117C318.896 61.5117 319.142 61.4479 319.316 61.3203C319.491 61.1901 319.578 61.0091 319.578 60.7773C319.578 60.444 319.259 60.2135 318.621 60.0859L318.59 60.0781L318.32 60.0234C317.906 59.9427 317.604 59.8073 317.414 59.6172C317.224 59.4245 317.129 59.1628 317.129 58.832C317.129 58.4128 317.271 58.0898 317.555 57.8633C317.839 57.6341 318.243 57.5195 318.77 57.5195C319.004 57.5195 319.229 57.5417 319.445 57.5859C319.661 57.6276 319.874 57.6914 320.082 57.7773ZM325.254 55.9219V56.5195H324.438C324.18 56.5195 324 56.5729 323.898 56.6797C323.799 56.7839 323.75 56.9701 323.75 57.2383V57.625H325.254V58.1836H323.75V62H323.031V58.1836H321.863V57.625H323.031V57.3203C323.031 56.8411 323.141 56.4883 323.359 56.2617C323.581 56.0352 323.924 55.9219 324.391 55.9219H325.254ZM328.328 58.1289C327.964 58.1289 327.688 58.2708 327.5 58.5547C327.312 58.8385 327.219 59.2591 327.219 59.8164C327.219 60.3711 327.312 60.7917 327.5 61.0781C327.688 61.362 327.964 61.5039 328.328 61.5039C328.695 61.5039 328.973 61.362 329.16 61.0781C329.348 60.7917 329.441 60.3711 329.441 59.8164C329.441 59.2591 329.348 58.8385 329.16 58.5547C328.973 58.2708 328.695 58.1289 328.328 58.1289ZM328.328 57.5195C328.935 57.5195 329.398 57.7161 329.719 58.1094C330.042 58.5026 330.203 59.0716 330.203 59.8164C330.203 60.5638 330.043 61.1341 329.723 61.5273C329.402 61.918 328.938 62.1133 328.328 62.1133C327.721 62.1133 327.258 61.918 326.938 61.5273C326.617 61.1341 326.457 60.5638 326.457 59.8164C326.457 59.0716 326.617 58.5026 326.938 58.1094C327.258 57.7161 327.721 57.5195 328.328 57.5195ZM335.254 58.5273C335.1 58.4076 334.944 58.3203 334.785 58.2656C334.626 58.2109 334.452 58.1836 334.262 58.1836C333.814 58.1836 333.471 58.3242 333.234 58.6055C332.997 58.8867 332.879 59.293 332.879 59.8242V62H332.156V57.625H332.879V58.4805C332.999 58.1706 333.182 57.9336 333.43 57.7695C333.68 57.6029 333.975 57.5195 334.316 57.5195C334.493 57.5195 334.659 57.5417 334.812 57.5859C334.966 57.6302 335.113 57.6992 335.254 57.793V58.5273ZM338.203 58.0703C338.292 57.8828 338.404 57.7448 338.539 57.6562C338.677 57.5651 338.842 57.5195 339.035 57.5195C339.387 57.5195 339.634 57.6562 339.777 57.9297C339.923 58.2005 339.996 58.7122 339.996 59.4648V62H339.34V59.4961C339.34 58.8789 339.305 58.4961 339.234 58.3477C339.167 58.1966 339.042 58.1211 338.859 58.1211C338.651 58.1211 338.508 58.2018 338.43 58.3633C338.354 58.5221 338.316 58.8997 338.316 59.4961V62H337.66V59.4961C337.66 58.8711 337.622 58.4857 337.547 58.3398C337.474 58.194 337.341 58.1211 337.148 58.1211C336.958 58.1211 336.826 58.2018 336.75 58.3633C336.677 58.5221 336.641 58.8997 336.641 59.4961V62H335.988V57.625H336.641V58C336.727 57.8438 336.833 57.7253 336.961 57.6445C337.091 57.5612 337.238 57.5195 337.402 57.5195C337.6 57.5195 337.764 57.5651 337.895 57.6562C338.027 57.7474 338.13 57.8854 338.203 58.0703Z" fill="white"/>
<rect x="366.5" y="38.5" width="59" height="42" stroke="white" stroke-dasharray="1 1"/>
<path d="M385.969 59.2461C386.172 59.2982 386.345 59.3971 386.488 59.543C386.632 59.6862 386.81 59.974 387.023 60.4062L387.816 62H386.969L386.273 60.5273C386.073 60.1081 385.892 59.8385 385.73 59.7188C385.572 59.5964 385.363 59.5352 385.105 59.5352H384.352V62H383.559V56.168H385.184C385.824 56.168 386.315 56.3125 386.656 56.6016C386.997 56.8906 387.168 57.3086 387.168 57.8555C387.168 58.2409 387.062 58.556 386.852 58.8008C386.643 59.043 386.349 59.1914 385.969 59.2461ZM384.352 56.8164V58.8867H385.215C385.592 58.8867 385.874 58.8021 386.059 58.6328C386.243 58.4635 386.336 58.2044 386.336 57.8555C386.336 57.5195 386.237 57.263 386.039 57.0859C385.844 56.9062 385.559 56.8164 385.184 56.8164H384.352ZM390.227 58.1289C389.862 58.1289 389.586 58.2708 389.398 58.5547C389.211 58.8385 389.117 59.2591 389.117 59.8164C389.117 60.3711 389.211 60.7917 389.398 61.0781C389.586 61.362 389.862 61.5039 390.227 61.5039C390.594 61.5039 390.871 61.362 391.059 61.0781C391.246 60.7917 391.34 60.3711 391.34 59.8164C391.34 59.2591 391.246 58.8385 391.059 58.5547C390.871 58.2708 390.594 58.1289 390.227 58.1289ZM390.227 57.5195C390.833 57.5195 391.297 57.7161 391.617 58.1094C391.94 58.5026 392.102 59.0716 392.102 59.8164C392.102 60.5638 391.941 61.1341 391.621 61.5273C391.301 61.918 390.836 62.1133 390.227 62.1133C389.62 62.1133 389.156 61.918 388.836 61.5273C388.516 61.1341 388.355 60.5638 388.355 59.8164C388.355 59.0716 388.516 58.5026 388.836 58.1094C389.156 57.7161 389.62 57.5195 390.227 57.5195ZM393.402 60.3438V57.6328H394.121V60.3438C394.121 60.737 394.19 61.026 394.328 61.2109C394.469 61.3958 394.685 61.4883 394.977 61.4883C395.315 61.4883 395.574 61.3698 395.754 61.1328C395.934 60.8932 396.023 60.5508 396.023 60.1055V57.6328H396.746V62H396.023V61.3438C395.896 61.5964 395.721 61.7878 395.5 61.918C395.281 62.0482 395.025 62.1133 394.73 62.1133C394.283 62.1133 393.949 61.9674 393.73 61.6758C393.512 61.3815 393.402 60.9375 393.402 60.3438ZM399.859 56.3828V57.625H401.492V58.1836H399.859V60.5586C399.859 60.8815 399.921 61.1068 400.043 61.2344C400.165 61.362 400.379 61.4258 400.684 61.4258H401.492V62H400.613C400.074 62 399.694 61.8919 399.473 61.6758C399.251 61.4596 399.141 61.0872 399.141 60.5586V58.1836H397.973V57.625H399.141V56.3828H399.859ZM406.656 59.4531V59.8047H403.543V59.8281C403.522 60.4245 403.635 60.8529 403.883 61.1133C404.133 61.3737 404.484 61.5039 404.938 61.5039C405.167 61.5039 405.406 61.4674 405.656 61.3945C405.906 61.3216 406.173 61.2109 406.457 61.0625V61.7773C406.184 61.8893 405.919 61.9727 405.664 62.0273C405.411 62.0846 405.167 62.1133 404.93 62.1133C404.25 62.1133 403.719 61.9102 403.336 61.5039C402.953 61.0951 402.762 60.5326 402.762 59.8164C402.762 59.1185 402.949 58.5612 403.324 58.1445C403.699 57.7279 404.199 57.5195 404.824 57.5195C405.382 57.5195 405.82 57.7083 406.141 58.0859C406.464 58.4635 406.635 58.9193 406.656 59.4531ZM405.938 59.2422C405.906 58.9401 405.796 58.6797 405.605 58.4609C405.418 58.2396 405.147 58.1289 404.793 58.1289C404.447 58.1289 404.161 58.2435 403.938 58.4727C403.714 58.7018 403.591 58.9596 403.57 59.2461L405.938 59.2422Z" fill="white"/>
<rect x="484.5" y="37.5" width="59" height="42" stroke="white" stroke-dasharray="1 1"/>
<path d="M507.953 55.3672V56.168C507.714 56.0143 507.473 55.8984 507.23 55.8203C506.991 55.7422 506.749 55.7031 506.504 55.7031C506.132 55.7031 505.837 55.7904 505.621 55.9648C505.405 56.1367 505.297 56.3698 505.297 56.6641C505.297 56.9219 505.367 57.1185 505.508 57.2539C505.651 57.3893 505.917 57.5026 506.305 57.5938L506.719 57.6875C507.266 57.8151 507.664 58.0156 507.914 58.2891C508.164 58.5625 508.289 58.9349 508.289 59.4062C508.289 59.9609 508.117 60.3841 507.773 60.6758C507.43 60.9674 506.93 61.1133 506.273 61.1133C506 61.1133 505.725 61.0833 505.449 61.0234C505.173 60.9661 504.896 60.8789 504.617 60.7617V59.9219C504.917 60.112 505.199 60.2513 505.465 60.3398C505.733 60.4284 506.003 60.4727 506.273 60.4727C506.672 60.4727 506.982 60.3841 507.203 60.207C507.424 60.0273 507.535 59.7773 507.535 59.457C507.535 59.1654 507.458 58.9427 507.305 58.7891C507.154 58.6354 506.889 58.5169 506.512 58.4336L506.09 58.3359C505.548 58.2135 505.155 58.0286 504.91 57.7812C504.665 57.5339 504.543 57.2018 504.543 56.7852C504.543 56.2643 504.717 55.8477 505.066 55.5352C505.418 55.2201 505.884 55.0625 506.465 55.0625C506.689 55.0625 506.924 55.0885 507.172 55.1406C507.419 55.1901 507.68 55.2656 507.953 55.3672ZM510.055 56.6406H511.895V60.4414H513.32V61H509.75V60.4414H511.176V57.1992H510.055V56.6406ZM511.176 54.9414H511.895V55.8477H511.176V54.9414ZM517.746 58.2891V61H517.023V58.2891C517.023 57.8958 516.954 57.6068 516.816 57.4219C516.678 57.237 516.462 57.1445 516.168 57.1445C515.832 57.1445 515.573 57.2643 515.391 57.5039C515.211 57.7409 515.121 58.082 515.121 58.5273V61H514.402V56.625H515.121V57.2812C515.249 57.0312 515.422 56.8424 515.641 56.7148C515.859 56.5846 516.118 56.5195 516.418 56.5195C516.863 56.5195 517.195 56.6667 517.414 56.9609C517.635 57.2526 517.746 57.6953 517.746 58.2891ZM519.383 54.9219H520.125V58.4414L522.012 56.625H522.887L521.164 58.2734L523.156 61H522.277L520.66 58.7422L520.125 59.2461V61H519.383V54.9219Z" fill="white"/>
<path d="M482 59L477.897 55M482 59L477.897 63M482 59H442" stroke="white" stroke-dasharray="1 1"/>
</svg>
