<svg width="250" height="250" viewBox="0 0 250 250" fill="none" xmlns="http://www.w3.org/2000/svg">
<style>
  @media (prefers-color-scheme: dark) {
    path[fill="black"] {
      fill: white;
    }
    path[stroke="black"] {
      stroke: white;
    }
  }
  @media (prefers-color-scheme: light) {
    path[fill="black"] {
      fill: black;
    }
    path[stroke="black"] {
      stroke: black;
    }
  }
</style>
<path fill-rule="evenodd" clip-rule="evenodd" d="M128.187 37.5633C129.206 37.8848 129.9 38.8307 129.9 39.9V52.15L139.7 52.15C140.614 52.15 141.451 52.6583 141.873 53.4686C142.295 54.2789 142.231 55.2566 141.707 56.005L124.557 80.505C123.944 81.381 122.833 81.7582 121.813 81.4367C120.794 81.1152 120.1 80.1694 120.1 79.1L120.1 66.85H110.3C109.386 66.85 108.549 66.3417 108.127 65.5314C107.705 64.7211 107.769 63.7434 108.293 62.995L125.443 38.495C126.056 37.619 127.167 37.2419 128.187 37.5633Z" fill="black" stroke="black" stroke-linecap="round" stroke-linejoin="round"/>
<path d="M57.4 126.6C55.0333 126.6 52.8333 126.167 50.8 125.3C48.8 124.433 47.0667 123.233 45.6 121.7C44.1667 120.133 43.1167 118.317 42.45 116.25L48.1 113.8C49 115.933 50.3 117.617 52 118.85C53.7 120.05 55.6167 120.65 57.75 120.65C59.5167 120.65 60.9333 120.233 62 119.4C63.1 118.567 63.65 117.467 63.65 116.1C63.65 115 63.3167 114.1 62.65 113.4C62.0167 112.7 61.05 112.133 59.75 111.7L52.6 109.4C49.7 108.467 47.5167 107.117 46.05 105.35C44.5833 103.55 43.85 101.433 43.85 99C43.85 96.8667 44.3667 94.9833 45.4 93.35C46.4667 91.7167 47.9333 90.45 49.8 89.55C51.7 88.6167 53.8667 88.15 56.3 88.15C59.6667 88.15 62.5833 89 65.05 90.7C67.55 92.4 69.3 94.65 70.3 97.45L64.7 99.95C63.9667 98.0833 62.8667 96.65 61.4 95.65C59.9333 94.6167 58.2333 94.1 56.3 94.1C54.5667 94.1 53.1667 94.5333 52.1 95.4C51.0667 96.2333 50.55 97.3333 50.55 98.7C50.55 99.7333 50.8833 100.65 51.55 101.45C52.25 102.217 53.2667 102.817 54.6 103.25L61.45 105.4C67.3833 107.3 70.35 110.733 70.35 115.7C70.35 117.833 69.8 119.717 68.7 121.35C67.6 122.983 66.0833 124.267 64.15 125.2C62.2167 126.133 59.9667 126.6 57.4 126.6ZM88.823 126.6C86.023 126.6 83.573 125.967 81.473 124.7C79.373 123.433 77.7397 121.717 76.573 119.55C75.4064 117.383 74.823 114.983 74.823 112.35C74.823 109.617 75.4064 107.2 76.573 105.1C77.773 102.967 79.3897 101.283 81.423 100.05C83.4897 98.8167 85.7897 98.2 88.323 98.2C91.1564 98.2 93.5564 98.8167 95.523 100.05C97.4897 101.25 98.9897 102.85 100.023 104.85C101.056 106.85 101.573 109.067 101.573 111.5C101.573 112 101.54 112.5 101.473 113C101.44 113.467 101.356 113.883 101.223 114.25H81.623C81.823 116.25 82.5897 117.85 83.923 119.05C85.2564 120.25 86.9064 120.85 88.873 120.85C90.373 120.85 91.6397 120.533 92.673 119.9C93.7397 119.233 94.573 118.383 95.173 117.35L100.473 119.95C99.6397 121.883 98.173 123.483 96.073 124.75C94.0064 125.983 91.5897 126.6 88.823 126.6ZM88.323 103.6C86.6897 103.6 85.273 104.1 84.073 105.1C82.9064 106.067 82.1397 107.45 81.773 109.25H94.573C94.4397 107.583 93.7897 106.233 92.623 105.2C91.4897 104.133 90.0564 103.6 88.323 103.6ZM127.488 136V123.4C126.488 124.433 125.272 125.233 123.838 125.8C122.405 126.333 120.855 126.6 119.188 126.6C116.555 126.6 114.205 125.983 112.138 124.75C110.072 123.483 108.438 121.783 107.238 119.65C106.038 117.483 105.438 115.067 105.438 112.4C105.438 109.733 106.038 107.333 107.238 105.2C108.438 103.033 110.072 101.333 112.138 100.1C114.205 98.8333 116.538 98.2 119.138 98.2C121.005 98.2 122.672 98.5333 124.138 99.2C125.638 99.8333 126.872 100.75 127.838 101.95V98.8H134.038V136H127.488ZM119.888 120.6C121.355 120.6 122.655 120.25 123.788 119.55C124.955 118.85 125.855 117.883 126.488 116.65C127.155 115.417 127.488 114 127.488 112.4C127.488 110.8 127.155 109.383 126.488 108.15C125.855 106.917 124.955 105.95 123.788 105.25C122.655 104.55 121.355 104.2 119.888 104.2C118.422 104.2 117.105 104.567 115.938 105.3C114.772 106 113.855 106.967 113.188 108.2C112.555 109.433 112.238 110.833 112.238 112.4C112.238 113.967 112.555 115.383 113.188 116.65C113.855 117.883 114.772 118.85 115.938 119.55C117.105 120.25 118.422 120.6 119.888 120.6ZM149.832 126.6C146.632 126.6 144.115 125.583 142.282 123.55C140.482 121.483 139.582 118.783 139.582 115.45V98.8H146.132V114.9C146.132 116.633 146.632 118.017 147.632 119.05C148.665 120.083 149.999 120.6 151.632 120.6C153.232 120.6 154.549 120.083 155.582 119.05C156.615 117.983 157.132 116.55 157.132 114.75V98.8H163.682V126H157.482V122.75C156.715 124.017 155.665 124.983 154.332 125.65C153.032 126.283 151.532 126.6 149.832 126.6ZM169.771 95.75V88.75H176.321V95.75H169.771ZM169.771 126V98.8H176.321V126H169.771ZM182.368 126V98.8H188.518V102.15C189.252 100.85 190.285 99.8667 191.618 99.2C192.985 98.5333 194.518 98.2 196.218 98.2C198.218 98.2 199.985 98.6333 201.518 99.5C203.085 100.367 204.302 101.583 205.168 103.15C206.035 104.683 206.468 106.467 206.468 108.5V126H199.918V110.05C199.918 108.25 199.402 106.833 198.368 105.8C197.368 104.733 196.052 104.2 194.418 104.2C192.785 104.2 191.452 104.733 190.418 105.8C189.418 106.867 188.918 108.283 188.918 110.05V126H182.368ZM57.4 170.6C55.0333 170.6 52.8333 170.167 50.8 169.3C48.8 168.433 47.0667 167.233 45.6 165.7C44.1667 164.133 43.1167 162.317 42.45 160.25L48.1 157.8C49 159.933 50.3 161.617 52 162.85C53.7 164.05 55.6167 164.65 57.75 164.65C59.5167 164.65 60.9333 164.233 62 163.4C63.1 162.567 63.65 161.467 63.65 160.1C63.65 159 63.3167 158.1 62.65 157.4C62.0167 156.7 61.05 156.133 59.75 155.7L52.6 153.4C49.7 152.467 47.5167 151.117 46.05 149.35C44.5833 147.55 43.85 145.433 43.85 143C43.85 140.867 44.3667 138.983 45.4 137.35C46.4667 135.717 47.9333 134.45 49.8 133.55C51.7 132.617 53.8667 132.15 56.3 132.15C59.6667 132.15 62.5833 133 65.05 134.7C67.55 136.4 69.3 138.65 70.3 141.45L64.7 143.95C63.9667 142.083 62.8667 140.65 61.4 139.65C59.9333 138.617 58.2333 138.1 56.3 138.1C54.5667 138.1 53.1667 138.533 52.1 139.4C51.0667 140.233 50.55 141.333 50.55 142.7C50.55 143.733 50.8833 144.65 51.55 145.45C52.25 146.217 53.2667 146.817 54.6 147.25L61.45 149.4C67.3833 151.3 70.35 154.733 70.35 159.7C70.35 161.833 69.8 163.717 68.7 165.35C67.6 166.983 66.0833 168.267 64.15 169.2C62.2167 170.133 59.9667 170.6 57.4 170.6ZM87.396 170.282C84.5134 170.282 82.273 169.483 80.675 167.885C79.1084 166.287 78.325 164.062 78.325 161.211V149.931H73.907V144.432H74.377C75.6304 144.432 76.6017 144.103 77.291 143.445C77.9804 142.787 78.325 141.831 78.325 140.578V138.604H84.482V144.432H90.357V149.931H84.482V160.882C84.482 162.167 84.8267 163.154 85.516 163.843C86.2054 164.532 87.302 164.877 88.806 164.877C89.3074 164.877 89.8557 164.83 90.451 164.736V170.047C89.4484 170.204 88.43 170.282 87.396 170.282ZM95.1551 170V144.432H100.936V148.051C101.594 146.578 102.518 145.56 103.709 144.996C104.9 144.432 106.278 144.15 107.845 144.15H109.349V149.602H107.14C105.417 149.602 104.007 150.15 102.91 151.247C101.845 152.312 101.312 153.816 101.312 155.759V170H95.1551ZM124.86 170.564C122.228 170.564 119.925 169.969 117.951 168.778C115.977 167.587 114.442 165.974 113.345 163.937C112.249 161.9 111.7 159.644 111.7 157.169C111.7 154.6 112.249 152.328 113.345 150.354C114.473 148.349 115.993 146.766 117.904 145.607C119.847 144.448 122.009 143.868 124.39 143.868C127.054 143.868 129.31 144.448 131.158 145.607C133.007 146.735 134.417 148.239 135.388 150.119C136.36 151.999 136.845 154.083 136.845 156.37C136.845 156.84 136.814 157.31 136.751 157.78C136.72 158.219 136.642 158.61 136.516 158.955H118.092C118.28 160.835 119.001 162.339 120.254 163.467C121.508 164.595 123.059 165.159 124.907 165.159C126.317 165.159 127.508 164.861 128.479 164.266C129.482 163.639 130.265 162.84 130.829 161.869L135.811 164.313C135.028 166.13 133.649 167.634 131.675 168.825C129.733 169.984 127.461 170.564 124.86 170.564ZM124.39 148.944C122.855 148.944 121.523 149.414 120.395 150.354C119.299 151.263 118.578 152.563 118.233 154.255H130.265C130.14 152.688 129.529 151.419 128.432 150.448C127.367 149.445 126.02 148.944 124.39 148.944ZM149.13 170.564C146.466 170.564 144.336 169.906 142.738 168.59C141.14 167.274 140.341 165.488 140.341 163.232C140.341 161.101 141.061 159.331 142.503 157.921C143.944 156.511 146.169 155.555 149.177 155.054L156.791 153.832V152.986C156.791 151.889 156.352 150.981 155.475 150.26C154.629 149.508 153.501 149.132 152.091 149.132C150.743 149.132 149.568 149.492 148.566 150.213C147.563 150.902 146.827 151.827 146.357 152.986L141.328 150.542C142.08 148.537 143.458 146.923 145.464 145.701C147.469 144.479 149.756 143.868 152.326 143.868C154.425 143.868 156.258 144.26 157.825 145.043C159.423 145.795 160.676 146.86 161.585 148.239C162.493 149.618 162.948 151.2 162.948 152.986V170H157.12V167.274C155.114 169.467 152.451 170.564 149.13 170.564ZM146.733 162.997C146.733 163.874 147.062 164.579 147.72 165.112C148.378 165.613 149.224 165.864 150.258 165.864C152.2 165.864 153.767 165.253 154.958 164.031C156.18 162.809 156.791 161.321 156.791 159.566V158.532L150.352 159.613C147.939 160.083 146.733 161.211 146.733 162.997ZM168.638 170V144.432H174.419V147.628C175.077 146.375 176.033 145.435 177.286 144.808C178.54 144.181 179.965 143.868 181.563 143.868C183.287 143.868 184.838 144.244 186.216 144.996C187.626 145.748 188.707 146.751 189.459 148.004C190.337 146.625 191.449 145.591 192.796 144.902C194.175 144.213 195.71 143.868 197.402 143.868C199.22 143.868 200.833 144.275 202.243 145.09C203.653 145.905 204.766 147.048 205.58 148.521C206.426 149.962 206.849 151.639 206.849 153.55V170H200.692V155.007C200.692 153.315 200.238 151.983 199.329 151.012C198.452 150.009 197.261 149.508 195.757 149.508C194.285 149.508 193.094 150.009 192.185 151.012C191.277 152.015 190.822 153.346 190.822 155.007V170H184.665V155.007C184.665 153.315 184.211 151.983 183.302 151.012C182.425 150.009 181.234 149.508 179.73 149.508C178.258 149.508 177.067 150.009 176.158 151.012C175.25 152.015 174.795 153.346 174.795 155.007V170H168.638Z" fill="black"/>
<path d="M49.2642 210V195.455H52.3395V201.456H58.5824V195.455H61.6506V210H58.5824V203.991H52.3395V210H49.2642ZM63.6321 197.99V195.455H75.5781V197.99H71.125V210H68.0852V197.99H63.6321ZM76.9915 197.99V195.455H88.9375V197.99H84.4844V210H81.4446V197.99H76.9915ZM90.9048 210V195.455H96.6435C97.7467 195.455 98.6866 195.665 99.4631 196.087C100.24 196.503 100.831 197.083 101.239 197.827C101.651 198.565 101.857 199.418 101.857 200.384C101.857 201.349 101.648 202.202 101.232 202.94C100.815 203.679 100.211 204.254 99.4205 204.666C98.6345 205.078 97.6828 205.284 96.5653 205.284H92.9077V202.82H96.0682C96.66 202.82 97.1477 202.718 97.5312 202.514C97.9195 202.306 98.2083 202.019 98.3977 201.655C98.5919 201.286 98.6889 200.862 98.6889 200.384C98.6889 199.901 98.5919 199.479 98.3977 199.119C98.2083 198.755 97.9195 198.473 97.5312 198.274C97.143 198.071 96.6506 197.969 96.054 197.969H93.9801V210H90.9048ZM108.483 210V195.455H114.222C115.325 195.455 116.265 195.665 117.041 196.087C117.818 196.503 118.41 197.083 118.817 197.827C119.229 198.565 119.435 199.418 119.435 200.384C119.435 201.349 119.226 202.202 118.81 202.94C118.393 203.679 117.789 204.254 116.999 204.666C116.213 205.078 115.261 205.284 114.143 205.284H110.486V202.82H113.646C114.238 202.82 114.726 202.718 115.109 202.514C115.498 202.306 115.786 202.019 115.976 201.655C116.17 201.286 116.267 200.862 116.267 200.384C116.267 199.901 116.17 199.479 115.976 199.119C115.786 198.755 115.498 198.473 115.109 198.274C114.721 198.071 114.229 197.969 113.632 197.969H111.558V210H108.483ZM128.371 205.355V199.091H131.397V210H128.492V208.018H128.378C128.132 208.658 127.722 209.171 127.15 209.56C126.581 209.948 125.888 210.142 125.069 210.142C124.339 210.142 123.698 209.976 123.144 209.645C122.59 209.313 122.157 208.842 121.844 208.232C121.536 207.621 121.38 206.889 121.375 206.037V199.091H124.401V205.497C124.406 206.141 124.578 206.65 124.919 207.024C125.26 207.398 125.717 207.585 126.29 207.585C126.655 207.585 126.996 207.502 127.313 207.337C127.63 207.166 127.886 206.915 128.08 206.584C128.279 206.252 128.376 205.843 128.371 205.355ZM136.842 195.455V210H133.817V195.455H136.842ZM142.292 195.455V210H139.266V195.455H142.292ZM155.679 194.773L150.992 212.188H148.385L153.073 194.773H155.679ZM171.468 200.156C171.368 199.811 171.229 199.505 171.049 199.24C170.869 198.97 170.649 198.743 170.388 198.558C170.132 198.369 169.839 198.224 169.507 198.125C169.181 198.026 168.819 197.976 168.421 197.976C167.677 197.976 167.024 198.161 166.461 198.53C165.902 198.899 165.466 199.437 165.154 200.142C164.841 200.843 164.685 201.7 164.685 202.713C164.685 203.726 164.839 204.588 165.147 205.298C165.454 206.009 165.89 206.551 166.453 206.925C167.017 207.294 167.682 207.479 168.449 207.479C169.145 207.479 169.739 207.356 170.232 207.109C170.729 206.858 171.108 206.506 171.368 206.051C171.633 205.597 171.766 205.059 171.766 204.439L172.391 204.531H168.641V202.216H174.728V204.048C174.728 205.327 174.458 206.425 173.918 207.344C173.378 208.258 172.635 208.963 171.688 209.46C170.741 209.953 169.657 210.199 168.435 210.199C167.071 210.199 165.873 209.898 164.841 209.297C163.809 208.691 163.004 207.831 162.426 206.719C161.854 205.601 161.567 204.276 161.567 202.741C161.567 201.562 161.738 200.511 162.078 199.588C162.424 198.66 162.907 197.874 163.527 197.23C164.148 196.586 164.87 196.096 165.694 195.76C166.517 195.424 167.41 195.256 168.371 195.256C169.195 195.256 169.962 195.376 170.672 195.618C171.382 195.855 172.012 196.191 172.561 196.626C173.115 197.062 173.568 197.58 173.918 198.182C174.268 198.778 174.493 199.437 174.593 200.156H171.468ZM177.038 210V195.455H186.839V197.99H180.113V201.456H186.335V203.991H180.113V207.464H186.867V210H177.038ZM188.73 197.99V195.455H200.676V197.99H196.223V210H193.183V197.99H188.73Z" fill="black"/>
</svg>
