<svg width="800" height="201" viewBox="0 0 800 201" fill="none" xmlns="http://www.w3.org/2000/svg">
<g id="fan-out-with-sequin" clip-path="url(#clip0_51_2)">
<g id="Group 5">
<path id="Sequin" d="M241.731 52.7588C241.731 42.2176 228.397 45.9235 228.397 40.4882C228.397 38.2647 230.043 37.0294 232.513 37.0294C235.064 37.0294 236.71 38.4294 236.71 40.8588H241.607C241.607 35.8765 237.821 32.5 232.513 32.5C227.286 32.5 223.541 35.7118 223.541 40.4882C223.541 50.7823 236.793 46.3765 236.793 52.7588C236.793 55.1058 235.229 56.3823 232.677 56.3823C230.043 56.3823 228.397 54.9823 228.397 52.5529H223.5C223.5 57.5352 227.327 60.9117 232.677 60.9117C237.945 60.9117 241.731 57.6176 241.731 52.7588ZM264.871 50.2058C264.871 43.9471 260.426 39.5 254.171 39.5C247.916 39.5 243.471 43.9471 243.471 50.2058C243.471 56.5059 247.916 60.9117 254.171 60.9117C258.78 60.9117 262.813 58.6058 263.965 54.6941H258.698C257.669 56.2176 256.023 56.7117 254.171 56.7117C251.125 56.7117 248.986 54.9411 248.327 52.0176H264.706C264.788 51.4411 264.871 50.8235 264.871 50.2058ZM254.171 43.7C257.01 43.7 259.109 45.3059 259.809 47.9823H248.451C249.191 45.3059 251.29 43.7 254.171 43.7ZM277.119 39.5C270.863 39.5 266.419 43.9059 266.419 50.2058C266.419 56.4647 270.863 60.9117 277.119 60.9117C279.464 60.9117 281.481 60.1294 283.045 58.7706V67.5H287.818V39.9118H283.045V41.6412C281.481 40.2412 279.464 39.5 277.119 39.5ZM277.119 43.8647C280.699 43.8647 283.045 46.3765 283.045 50.2058C283.045 54.0353 280.699 56.547 277.119 56.547C273.497 56.547 271.11 54.0353 271.11 50.2058C271.11 46.3765 273.497 43.8647 277.119 43.8647ZM290.422 52.2647C290.422 57.3294 293.838 60.9117 298.694 60.9117C300.711 60.9117 302.439 60.1705 303.715 58.8941V60.5H308.406V39.9118H303.715V52.2647C303.715 54.8176 301.986 56.547 299.435 56.547C296.883 56.547 295.155 54.8176 295.155 52.2647V39.9118H290.422V52.2647ZM311.08 37.4412H315.854V32.9118H311.08V37.4412ZM311.08 60.5H315.854V39.9118H311.08V60.5ZM318.475 60.5H323.249V48.147C323.249 45.5941 324.895 43.8647 327.529 43.8647C330.039 43.8647 331.767 45.5941 331.767 48.147V60.5H336.5V48.147C336.5 43.0823 333.084 39.5 328.228 39.5C326.253 39.5 324.524 40.2 323.249 41.4765V39.9118H318.475V60.5Z" fill="black" class="dark:fill-white"/>
<path id="arrow" d="M214.207 50.7071C214.598 50.3166 214.598 49.6834 214.207 49.2929L207.843 42.9289C207.453 42.5384 206.819 42.5384 206.429 42.9289C206.038 43.3195 206.038 43.9526 206.429 44.3431L212.086 50L206.429 55.6569C206.038 56.0474 206.038 56.6805 206.429 57.0711C206.819 57.4616 207.453 57.4616 207.843 57.0711L214.207 50.7071ZM157.5 51H213.5V49H157.5V51Z" fill="black" class="dark:fill-white"/>
<g id="Insert">
<g id="insert">
<rect x="27.5" width="100" height="100" rx="10" fill="#16181F"/>
<rect x="26.5" y="-1" width="102" height="102" rx="11" stroke="#919CF9" stroke-opacity="0.3" stroke-width="2"/>
<path id="Vector" d="M56.5 21.2308C56.5 23.5672 52.6941 25.4615 48 25.4615C43.3059 25.4615 39.5 23.5672 39.5 21.2308M56.5 21.2308C56.5 18.8944 52.6941 17 48 17C43.3059 17 39.5 18.8944 39.5 21.2308M56.5 21.2308V32.7692C56.5 35.1056 52.6941 37 48 37C43.3059 37 39.5 35.1056 39.5 32.7692V21.2308M56.5 21.2308V25.0769M39.5 21.2308V25.0769M56.5 25.0769V28.9231C56.5 31.2595 52.6941 33.1538 48 33.1538C43.3059 33.1538 39.5 31.2595 39.5 28.9231V25.0769M56.5 25.0769C56.5 27.4133 52.6941 29.3077 48 29.3077C43.3059 29.3077 39.5 27.4133 39.5 25.0769" stroke="#919CF9" stroke-linecap="round" stroke-linejoin="round"/>
<g id="Code snippet">
<text fill="#FF79C6" xml:space="preserve" style="white-space: pre" font-family="DM Mono" font-size="15" letter-spacing="0em"><tspan x="39.5" y="63.615">INSERT&#10;</tspan></text>
<text fill="#F8F8F2" xml:space="preserve" style="white-space: pre" font-family="DM Mono" font-size="10" letter-spacing="0em"><tspan x="63.4844" y="78.615"> orders</tspan></text>
<text fill="#FF79C6" xml:space="preserve" style="white-space: pre" font-family="DM Mono" font-size="10" letter-spacing="0em"><tspan x="39.5" y="78.615">INTO</tspan></text>
</g>
</g>
<g id="wal">
<rect x="122.5" y="81" width="62" height="25" rx="10" transform="rotate(-90 122.5 81)" fill="#919CF9" fill-opacity="0.7"/>
<text id="W A L" fill="white" xml:space="preserve" style="white-space: pre" font-family="DM Mono" font-size="10" font-weight="500" letter-spacing="0em"><tspan x="132.002" y="43.41">W&#10;</tspan><tspan x="132.002" y="53.41">A&#10;</tspan><tspan x="132.002" y="63.41">L</tspan></text>
</g>
</g>
</g>
<g id="Frame 11">
<g id="Group 4">
<g id="events">
<g id="event_1">
<rect x="377.5" y="81" width="125" height="100" rx="10" fill="#16181F"/>
<rect x="376.5" y="80" width="127" height="102" rx="11" stroke="#919CF9" stroke-opacity="0.3" stroke-width="2"/>
<path id="Vector_2" d="M400.75 111.75V114M393.25 107.25H393.258V107.258H393.25V107.25ZM393.25 109.5H393.258V109.508H393.25V109.5ZM393.25 111.75H393.258V111.758H393.25V111.75ZM393.25 114H393.258V114.008H393.25V114ZM395.748 107.25H395.755V107.258H395.748V107.25ZM395.748 109.5H395.755V109.508H395.748V109.5ZM395.748 111.75H395.755V111.758H395.748V111.75ZM395.748 114H395.755V114.008H395.748V114ZM398.252 107.25H398.26V107.258H398.252V107.25ZM398.252 109.5H398.26V109.508H398.252V109.5ZM398.252 111.75H398.26V111.758H398.252V111.75ZM398.252 114H398.26V114.008H398.252V114ZM400.75 107.25H400.758V107.258H400.75V107.25ZM400.75 109.5H400.758V109.508H400.75V109.5ZM393.25 102H400.75V104.25H393.25V102ZM397 98.25C395.108 98.25 393.242 98.36 391.407 98.572C390.307 98.7 389.5 99.65 389.5 100.757V115.5C389.5 116.097 389.737 116.669 390.159 117.091C390.581 117.513 391.153 117.75 391.75 117.75H402.25C402.847 117.75 403.419 117.513 403.841 117.091C404.263 116.669 404.5 116.097 404.5 115.5V100.757C404.5 99.649 403.694 98.7 402.593 98.572C400.736 98.357 398.869 98.2495 397 98.25Z" stroke="#F1FA8C" stroke-width="1.5" stroke-linecap="round" stroke-linejoin="round"/>
<g id="Code snippet_2">
<text fill="#F1FA8C" xml:space="preserve" style="white-space: pre" font-family="DM Mono" font-size="10" letter-spacing="0em"><tspan x="389.5" y="159.365">inventory</tspan></text>
<text fill="#F1FA8C" xml:space="preserve" style="white-space: pre" font-family="DM Mono" font-size="15" letter-spacing="0em"><tspan x="389.5" y="144.365">Update&#10;</tspan></text>
</g>
</g>
<g id="event_2">
<rect x="512.5" y="81" width="125" height="100" rx="10" fill="#16181F"/>
<rect x="511.5" y="80" width="127" height="102" rx="11" stroke="#919CF9" stroke-opacity="0.3" stroke-width="2"/>
<path id="Vector_3" d="M530.5 114C530.5 114.398 530.342 114.78 530.061 115.061C529.779 115.342 529.398 115.5 529 115.5C528.602 115.5 528.221 115.342 527.939 115.061C527.658 114.78 527.5 114.398 527.5 114M530.5 114C530.5 113.602 530.342 113.221 530.061 112.94C529.779 112.658 529.398 112.5 529 112.5C528.602 112.5 528.221 112.658 527.939 112.94C527.658 113.221 527.5 113.602 527.5 114M530.5 114H536.5M527.5 114H525.625C525.327 114 525.041 113.882 524.83 113.671C524.619 113.46 524.5 113.174 524.5 112.875V109.5M536.5 114H538.75M536.5 114V109.5M524.5 109.5V101.865C524.498 101.591 524.598 101.327 524.781 101.122C524.963 100.918 525.215 100.789 525.487 100.759C528.82 100.413 532.18 100.413 535.513 100.759C536.078 100.817 536.5 101.297 536.5 101.865V102.823M524.5 109.5H536.5M541.75 114C541.75 114.398 541.592 114.78 541.311 115.061C541.029 115.342 540.648 115.5 540.25 115.5C539.852 115.5 539.471 115.342 539.189 115.061C538.908 114.78 538.75 114.398 538.75 114M541.75 114C541.75 113.602 541.592 113.221 541.311 112.94C541.029 112.658 540.648 112.5 540.25 112.5C539.852 112.5 539.471 112.658 539.189 112.94C538.908 113.221 538.75 113.602 538.75 114M541.75 114H542.875C543.496 114 544.004 113.496 543.965 112.876C543.764 109.574 542.652 106.392 540.752 103.683C540.571 103.43 540.335 103.22 540.061 103.071C539.787 102.922 539.483 102.837 539.172 102.823H536.5M536.5 102.823V109.5" stroke="#FF79C6" stroke-width="1.5" stroke-linecap="round" stroke-linejoin="round"/>
<g id="Code snippet_3">
<text fill="#FF79C6" xml:space="preserve" style="white-space: pre" font-family="DM Mono" font-size="10" letter-spacing="0em"><tspan x="524.5" y="157.115">shipment</tspan></text>
<text fill="#FF79C6" xml:space="preserve" style="white-space: pre" font-family="DM Mono" font-size="15" letter-spacing="0em"><tspan x="524.5" y="142.115">Schedule&#10;</tspan></text>
</g>
</g>
<g id="event_3">
<rect x="647.5" y="81" width="125" height="100" rx="10" fill="#16181F"/>
<rect x="646.5" y="80" width="127" height="102" rx="11" stroke="#919CF9" stroke-opacity="0.3" stroke-width="2"/>
<path id="Vector_4" d="M674.5 110.25V107.625C674.5 106.73 674.144 105.871 673.511 105.239C672.879 104.606 672.02 104.25 671.125 104.25H669.625C669.327 104.25 669.04 104.131 668.83 103.92C668.619 103.71 668.5 103.423 668.5 103.125V101.625C668.5 100.73 668.144 99.8714 667.511 99.2385C666.879 98.6056 666.02 98.25 665.125 98.25H663.25M667 107.25V114.75M669.25 108.284C668.12 107.993 666.945 107.924 665.789 108.081C665.253 108.153 664.815 108.559 664.768 109.098C664.756 109.232 664.75 109.366 664.75 109.5C664.75 109.964 665.086 110.344 665.525 110.494L668.475 111.506C668.915 111.656 669.25 112.036 669.25 112.5C669.25 112.636 669.244 112.77 669.232 112.902C669.185 113.441 668.747 113.847 668.211 113.919C667.055 114.074 665.88 114.005 664.75 113.716M665.5 98.25H660.625C660.004 98.25 659.5 98.754 659.5 99.375V116.625C659.5 117.246 660.004 117.75 660.625 117.75H673.375C673.996 117.75 674.5 117.246 674.5 116.625V107.25C674.5 104.863 673.552 102.574 671.864 100.886C670.176 99.1982 667.887 98.25 665.5 98.25Z" stroke="#50FA7B" stroke-width="1.5" stroke-linecap="round" stroke-linejoin="round"/>
<g id="Code snippet_4">
<text fill="#50FA7B" xml:space="preserve" style="white-space: pre" font-family="DM Mono" font-size="10" letter-spacing="0em"><tspan x="659.5" y="159.365">invoice</tspan></text>
<text fill="#50FA7B" xml:space="preserve" style="white-space: pre" font-family="DM Mono" font-size="15" letter-spacing="0em"><tspan x="659.5" y="144.365">Create&#10;</tspan></text>
</g>
</g>
</g>
<path id="Arrow" d="M417.5 61.0001L417.5 62.0001L417.5 61.0001ZM427.5 71L428.5 71L428.5 71L427.5 71ZM426.793 76.7072C427.183 77.0977 427.817 77.0977 428.207 76.7072L434.571 70.3432C434.962 69.9527 434.962 69.3195 434.571 68.929C434.18 68.5385 433.547 68.5385 433.157 68.929L427.5 74.5858L421.843 68.929C421.453 68.5385 420.819 68.5385 420.429 68.929C420.038 69.3195 420.038 69.9527 420.429 70.3432L426.793 76.7072ZM346.5 62.0001L417.5 62.0001L417.5 60.0001L346.5 60.0001L346.5 62.0001ZM426.5 71L426.5 76.0001L428.5 76.0001L428.5 71L426.5 71ZM417.5 62.0001C422.471 62.0001 426.5 66.0295 426.5 71L428.5 71C428.5 64.9249 423.575 60.0001 417.5 60.0001L417.5 62.0001Z" fill="black" class="dark:fill-white"/>
<path id="Arrow_2" d="M560.843 51.2569L560.842 52.2569L560.842 52.2569L560.843 51.2569ZM570.833 61.2478L569.833 61.2487L569.833 61.2487L570.833 61.2478ZM570.14 76.9279C570.531 77.318 571.164 77.3175 571.555 76.9266L577.913 70.5568C578.303 70.166 578.302 69.5328 577.912 69.1426C577.521 68.7525 576.887 68.753 576.497 69.1439L570.846 74.8059L565.184 69.1542C564.793 68.764 564.16 68.7646 563.769 69.1555C563.379 69.5463 563.38 70.1795 563.771 70.5697L570.14 76.9279ZM346.499 52.0463L560.842 52.2569L560.844 50.2569L346.501 50.0463L346.499 52.0463ZM569.833 61.2487L569.847 76.221L571.847 76.2192L571.833 61.2469L569.833 61.2487ZM560.842 52.2569C565.806 52.2617 569.829 56.2848 569.833 61.2487L571.833 61.2469C571.828 55.1799 566.911 50.2628 560.844 50.2569L560.842 52.2569Z" fill="black" class="dark:fill-white"/>
<path id="Arrow_3" d="M699.278 39.2687L699.274 38.2687L699.278 39.2687ZM709.317 49.2687L708.317 49.2687L708.317 49.2687L709.317 49.2687ZM708.61 76.7071C709 77.0976 709.633 77.0976 710.024 76.7071L716.388 70.3431C716.778 69.9526 716.778 69.3194 716.388 68.9289C715.997 68.5384 715.364 68.5384 714.974 68.9289L709.317 74.5858L703.66 68.9289C703.269 68.5384 702.636 68.5384 702.246 68.9289C701.855 69.3194 701.855 69.9526 702.246 70.3431L708.61 76.7071ZM346.504 41.6387L699.282 40.2687L699.274 38.2687L346.496 39.6387L346.504 41.6387ZM708.317 49.2687L708.317 76L710.317 76L710.317 49.2687L708.317 49.2687ZM699.282 40.2687C704.266 40.2494 708.317 44.2844 708.317 49.2687L710.317 49.2687C710.317 43.1768 705.366 38.2451 699.274 38.2687L699.282 40.2687Z" fill="black" class="dark:fill-white"/>
</g>
</g>
</g>
<defs>
<clipPath id="clip0_51_2">
<rect width="800" height="201" fill="white"/>
</clipPath>
</defs>
<style>
@media (prefers-color-scheme: dark) {
  .dark\:fill-white {
    fill: white;
  }
}
</style>
</svg>
